<mxfile host="app.diagrams.net" agent="Mozilla/5.0 (Windows NT 10.0; Win64; x64) AppleWebKit/537.36 (KHTML, like Gecko) Chrome/135.0.0.0 Safari/537.36 Edg/135.0.0.0" version="26.2.13" pages="2">
  <diagram name="Overview" id="SBuDRYB37uJU2NKfY7Cd">
    <mxGraphModel grid="1" page="0" gridSize="10" guides="1" tooltips="1" connect="1" arrows="1" fold="1" pageScale="1" pageWidth="3300" pageHeight="4681" background="#ffffff" math="0" shadow="1">
      <root>
        <mxCell id="0" />
        <mxCell id="1" parent="0" />
        <mxCell id="jP8q12sV8X-tmS4Cmy3f-1" value="Hệ thống dạy học trực tuyến" style="rounded=0;whiteSpace=wrap;html=1;" vertex="1" parent="1">
          <mxGeometry x="1560" y="280" width="200" height="80" as="geometry" />
        </mxCell>
        <mxCell id="jP8q12sV8X-tmS4Cmy3f-13" value="Các role:&lt;div&gt;1. Sinh viên:&lt;/div&gt;&lt;div&gt;&lt;span style=&quot;white-space: pre;&quot;&gt;&#x9;&lt;/span&gt;- Đăng ký, tham gia khóa học&lt;br&gt;&lt;/div&gt;&lt;div&gt;&lt;span style=&quot;white-space: pre;&quot;&gt;&#x9;&lt;/span&gt;- Truy cập tài liệu học tập và bài giảng&lt;br&gt;&lt;/div&gt;&lt;div&gt;&lt;span style=&quot;white-space: pre;&quot;&gt;&#x9;&lt;/span&gt;- Tham gia hoạt động tương tác ( diễn đàn, thảo luận )&lt;br&gt;&lt;/div&gt;&lt;div&gt;&lt;span style=&quot;white-space: pre;&quot;&gt;&#x9;&lt;/span&gt;- Nộp bài tập, làm bài kiểm tra&lt;br&gt;&lt;/div&gt;&lt;div&gt;&lt;span style=&quot;white-space: pre;&quot;&gt;&#x9;&lt;/span&gt;- Theo dõi tiến độ học tập, kết quả đánh giá&lt;br&gt;&lt;/div&gt;&lt;div&gt;&lt;span style=&quot;white-space: pre;&quot;&gt;&#x9;&lt;/span&gt;- Nhận phản hồi từ giảng viên, trợ giảng&lt;br&gt;&lt;/div&gt;&lt;div&gt;&lt;span style=&quot;white-space: pre;&quot;&gt;&#x9;&lt;/span&gt;- Tham gia nhóm học tập&lt;br&gt;&lt;/div&gt;&lt;div&gt;2. Giảng viên:&lt;/div&gt;&lt;div&gt;&lt;span style=&quot;white-space: pre;&quot;&gt;&#x9;&lt;/span&gt;- Tạo, quản lý nội dung khóa học&lt;br&gt;&lt;/div&gt;&lt;div&gt;&lt;span style=&quot;white-space: pre;&quot;&gt;&#x9;&lt;/span&gt;- Phản triển tài liệu giảng dạy và kiểm tra&lt;br&gt;&lt;/div&gt;&lt;div&gt;&lt;span style=&quot;white-space: pre;&quot;&gt;&#x9;&lt;/span&gt;- Tổ chức buổi giảng trực tuyến&lt;br&gt;&lt;/div&gt;&lt;div&gt;&lt;span style=&quot;white-space: pre;&quot;&gt;&#x9;&lt;/span&gt;- Đánh giá bài tập và cung cấp phản hồi&lt;br&gt;&lt;/div&gt;&lt;div&gt;&lt;span style=&quot;white-space: pre;&quot;&gt;&#x9;&lt;/span&gt;- Tương tác với sinh viên&lt;br&gt;&lt;/div&gt;&lt;div&gt;&lt;span style=&quot;white-space: pre;&quot;&gt;&#x9;&lt;/span&gt;- Theo dõi tiến độ và hiệu suất học tập của sinh viên&lt;br&gt;&lt;/div&gt;&lt;div&gt;&lt;span style=&quot;white-space: pre;&quot;&gt;&#x9;&lt;/span&gt;-&amp;nbsp; Cập nhật nội dung khóa học&lt;/div&gt;&lt;div&gt;3. Quản trị viên hệ thống:&lt;/div&gt;&lt;div&gt;&lt;span style=&quot;white-space: pre;&quot;&gt;&#x9;&lt;/span&gt;- Quản lý tài khoản người dùng và phân quyền&lt;br&gt;&lt;/div&gt;&lt;div&gt;&lt;span style=&quot;white-space: pre;&quot;&gt;&#x9;&lt;/span&gt;- Quản lý danh mục khóa học, chương trình học&lt;br&gt;&lt;/div&gt;&lt;div&gt;&lt;span style=&quot;white-space: pre;&quot;&gt;&#x9;&lt;/span&gt;- Quản lý lịch trình học tập&lt;/div&gt;" style="rounded=0;whiteSpace=wrap;html=1;align=left;" vertex="1" parent="1">
          <mxGeometry x="120" y="320" width="280" height="360" as="geometry" />
        </mxCell>
        <mxCell id="jP8q12sV8X-tmS4Cmy3f-16" value="Trang Portal" style="rounded=0;whiteSpace=wrap;html=1;" vertex="1" parent="1">
          <mxGeometry x="840" y="400" width="160" height="80" as="geometry" />
        </mxCell>
        <mxCell id="jP8q12sV8X-tmS4Cmy3f-17" value="Hiển thị thông tin trường, sự kiện" style="rounded=0;whiteSpace=wrap;html=1;" vertex="1" parent="1">
          <mxGeometry x="880" y="520" width="160" height="80" as="geometry" />
        </mxCell>
        <mxCell id="jP8q12sV8X-tmS4Cmy3f-18" value="Trang role: Sinh Viên" style="rounded=0;whiteSpace=wrap;html=1;direction=south;" vertex="1" parent="1">
          <mxGeometry x="390" y="720" width="140" height="80" as="geometry" />
        </mxCell>
        <mxCell id="jP8q12sV8X-tmS4Cmy3f-19" value="Đăng nhập" style="rounded=0;whiteSpace=wrap;html=1;" vertex="1" parent="1">
          <mxGeometry x="1200" y="520" width="160" height="80" as="geometry" />
        </mxCell>
        <mxCell id="jP8q12sV8X-tmS4Cmy3f-20" value="Trang chủ" style="rounded=0;whiteSpace=wrap;html=1;" vertex="1" parent="1">
          <mxGeometry x="1200" y="640" width="160" height="80" as="geometry" />
        </mxCell>
        <mxCell id="jP8q12sV8X-tmS4Cmy3f-21" value="Nhiệm vụ trong tuần" style="rounded=0;whiteSpace=wrap;html=1;" vertex="1" parent="1">
          <mxGeometry x="1240" y="760" width="160" height="80" as="geometry" />
        </mxCell>
        <mxCell id="jP8q12sV8X-tmS4Cmy3f-22" value="Khóa học đang học" style="rounded=0;whiteSpace=wrap;html=1;" vertex="1" parent="1">
          <mxGeometry x="1240" y="880" width="160" height="80" as="geometry" />
        </mxCell>
        <mxCell id="jP8q12sV8X-tmS4Cmy3f-24" value="Khóa học của tôi" style="rounded=0;whiteSpace=wrap;html=1;" vertex="1" parent="1">
          <mxGeometry x="1200" y="1000" width="160" height="80" as="geometry" />
        </mxCell>
        <mxCell id="jP8q12sV8X-tmS4Cmy3f-25" value="Diễn đàn học phần" style="rounded=0;whiteSpace=wrap;html=1;" vertex="1" parent="1">
          <mxGeometry x="1240" y="1120" width="160" height="80" as="geometry" />
        </mxCell>
        <mxCell id="jP8q12sV8X-tmS4Cmy3f-26" value="Câu hỏi" style="rounded=0;whiteSpace=wrap;html=1;" vertex="1" parent="1">
          <mxGeometry x="1240" y="1240" width="160" height="80" as="geometry" />
        </mxCell>
        <mxCell id="jP8q12sV8X-tmS4Cmy3f-27" value="Kế hoạch học tập/ Lộ trình học tập" style="rounded=0;whiteSpace=wrap;html=1;" vertex="1" parent="1">
          <mxGeometry x="1240" y="1360" width="160" height="80" as="geometry" />
        </mxCell>
        <mxCell id="jP8q12sV8X-tmS4Cmy3f-28" value="Giới thiệu" style="rounded=0;whiteSpace=wrap;html=1;" vertex="1" parent="1">
          <mxGeometry x="1240" y="1480" width="160" height="80" as="geometry" />
        </mxCell>
        <mxCell id="jP8q12sV8X-tmS4Cmy3f-29" value="Tài liệu học" style="rounded=0;whiteSpace=wrap;html=1;" vertex="1" parent="1">
          <mxGeometry x="1240" y="1600" width="160" height="80" as="geometry" />
        </mxCell>
        <mxCell id="6Kg-fG0c2uNbFSNrHBmb-1" value="" style="rounded=0;whiteSpace=wrap;html=1;gradientColor=none;" vertex="1" parent="1">
          <mxGeometry x="370" y="-1980" width="1580" height="810" as="geometry" />
        </mxCell>
        <mxCell id="E6JwsRQUun1D4JkAsvZs-1" value="Đăng nhập / Đăng xuất" style="rounded=0;whiteSpace=wrap;html=1;" vertex="1" parent="1">
          <mxGeometry x="380" y="840" width="160" height="80" as="geometry" />
        </mxCell>
        <mxCell id="E6JwsRQUun1D4JkAsvZs-2" value="&lt;strike&gt;Đăng ký&lt;/strike&gt;" style="rounded=0;whiteSpace=wrap;html=1;" vertex="1" parent="1">
          <mxGeometry x="380" y="960" width="160" height="80" as="geometry" />
        </mxCell>
        <mxCell id="E6JwsRQUun1D4JkAsvZs-3" value="Xem thông tin cá nhân" style="rounded=0;whiteSpace=wrap;html=1;" vertex="1" parent="1">
          <mxGeometry x="380" y="1080" width="160" height="80" as="geometry" />
        </mxCell>
        <mxCell id="E6JwsRQUun1D4JkAsvZs-4" value="Đăng ký khóa học" style="rounded=0;whiteSpace=wrap;html=1;" vertex="1" parent="1">
          <mxGeometry x="380" y="1320" width="160" height="80" as="geometry" />
        </mxCell>
        <mxCell id="E6JwsRQUun1D4JkAsvZs-5" value="Xem danh sách khóa học" style="rounded=0;whiteSpace=wrap;html=1;" vertex="1" parent="1">
          <mxGeometry x="380" y="1200" width="160" height="80" as="geometry" />
        </mxCell>
        <mxCell id="E6JwsRQUun1D4JkAsvZs-6" value="Thanh toán khóa học" style="rounded=0;whiteSpace=wrap;html=1;" vertex="1" parent="1">
          <mxGeometry x="380" y="1440" width="160" height="80" as="geometry" />
        </mxCell>
        <mxCell id="E6JwsRQUun1D4JkAsvZs-8" value="Danh sách khóa học đã đăng ký" style="rounded=0;whiteSpace=wrap;html=1;" vertex="1" parent="1">
          <mxGeometry x="580" y="1160" width="160" height="80" as="geometry" />
        </mxCell>
        <mxCell id="E6JwsRQUun1D4JkAsvZs-9" value="Danh sách khóa học chưa đăng ký" style="rounded=0;whiteSpace=wrap;html=1;" vertex="1" parent="1">
          <mxGeometry x="580" y="1270" width="160" height="80" as="geometry" />
        </mxCell>
        <mxCell id="E6JwsRQUun1D4JkAsvZs-10" value="Xem lịch học" style="rounded=0;whiteSpace=wrap;html=1;" vertex="1" parent="1">
          <mxGeometry x="380" y="1560" width="160" height="80" as="geometry" />
        </mxCell>
        <mxCell id="E6JwsRQUun1D4JkAsvZs-11" value="Tải lịch học về calendar&lt;br&gt;Iphone / android" style="rounded=0;whiteSpace=wrap;html=1;" vertex="1" parent="1">
          <mxGeometry x="380" y="1680" width="160" height="80" as="geometry" />
        </mxCell>
        <mxCell id="E6JwsRQUun1D4JkAsvZs-12" value="Học trực tuyến" style="rounded=0;whiteSpace=wrap;html=1;" vertex="1" parent="1">
          <mxGeometry x="380" y="1800" width="160" height="80" as="geometry" />
        </mxCell>
        <mxCell id="E6JwsRQUun1D4JkAsvZs-13" value="Tham gia diễn đàn từng khóa học hiện tại" style="rounded=0;whiteSpace=wrap;html=1;" vertex="1" parent="1">
          <mxGeometry x="380" y="1920" width="160" height="80" as="geometry" />
        </mxCell>
        <mxCell id="E6JwsRQUun1D4JkAsvZs-14" value="Tham gia nhóm chat" style="rounded=0;whiteSpace=wrap;html=1;" vertex="1" parent="1">
          <mxGeometry x="380" y="2040" width="160" height="80" as="geometry" />
        </mxCell>
        <mxCell id="E6JwsRQUun1D4JkAsvZs-15" value="Kiểm tra trực tuyến" style="rounded=0;whiteSpace=wrap;html=1;" vertex="1" parent="1">
          <mxGeometry x="380" y="2160" width="160" height="80" as="geometry" />
        </mxCell>
        <mxCell id="E6JwsRQUun1D4JkAsvZs-22" style="edgeStyle=orthogonalEdgeStyle;rounded=0;orthogonalLoop=1;jettySize=auto;html=1;entryX=0;entryY=0.5;entryDx=0;entryDy=0;" edge="1" parent="1" source="E6JwsRQUun1D4JkAsvZs-17" target="E6JwsRQUun1D4JkAsvZs-19">
          <mxGeometry relative="1" as="geometry" />
        </mxCell>
        <mxCell id="E6JwsRQUun1D4JkAsvZs-23" style="edgeStyle=orthogonalEdgeStyle;rounded=0;orthogonalLoop=1;jettySize=auto;html=1;entryX=0;entryY=0.75;entryDx=0;entryDy=0;" edge="1" parent="1" source="E6JwsRQUun1D4JkAsvZs-17" target="E6JwsRQUun1D4JkAsvZs-20">
          <mxGeometry relative="1" as="geometry">
            <Array as="points">
              <mxPoint x="460" y="2490" />
              <mxPoint x="575" y="2490" />
              <mxPoint x="575" y="2520" />
            </Array>
          </mxGeometry>
        </mxCell>
        <mxCell id="E6JwsRQUun1D4JkAsvZs-17" value="Thi trực tuyến" style="rounded=0;whiteSpace=wrap;html=1;" vertex="1" parent="1">
          <mxGeometry x="380" y="2370" width="160" height="80" as="geometry" />
        </mxCell>
        <mxCell id="E6JwsRQUun1D4JkAsvZs-18" value="auto bật mic, khi nói thì kiểm tra có nói trùng keyword trong đề thi không ?" style="rounded=0;whiteSpace=wrap;html=1;" vertex="1" parent="1">
          <mxGeometry x="610" y="2260" width="160" height="80" as="geometry" />
        </mxCell>
        <mxCell id="E6JwsRQUun1D4JkAsvZs-19" value="auto bật cam =&amp;gt; nullable" style="rounded=0;whiteSpace=wrap;html=1;" vertex="1" parent="1">
          <mxGeometry x="610" y="2360" width="160" height="80" as="geometry" />
        </mxCell>
        <mxCell id="E6JwsRQUun1D4JkAsvZs-20" value="check keydown keyboard&lt;br&gt;khi focus vào input trong bài thi thì turn off check keydown" style="rounded=0;whiteSpace=wrap;html=1;" vertex="1" parent="1">
          <mxGeometry x="610" y="2460" width="160" height="80" as="geometry" />
        </mxCell>
        <mxCell id="E6JwsRQUun1D4JkAsvZs-21" style="edgeStyle=orthogonalEdgeStyle;rounded=0;orthogonalLoop=1;jettySize=auto;html=1;entryX=0;entryY=0.437;entryDx=0;entryDy=0;entryPerimeter=0;" edge="1" parent="1" source="E6JwsRQUun1D4JkAsvZs-17" target="E6JwsRQUun1D4JkAsvZs-18">
          <mxGeometry relative="1" as="geometry">
            <Array as="points">
              <mxPoint x="460" y="2330" />
              <mxPoint x="575" y="2330" />
              <mxPoint x="575" y="2295" />
            </Array>
          </mxGeometry>
        </mxCell>
        <mxCell id="Bu1Jaf-0owffB2VXctZz-1" value="&lt;font&gt;&lt;b&gt;Tổ chức đào tạo:&lt;/b&gt;&lt;/font&gt;&lt;div&gt;&lt;span&gt;&lt;b&gt;&lt;br&gt;&lt;/b&gt;&lt;/span&gt;&lt;div&gt;&lt;font&gt;- Quản lý lớp học ( online, offline, liveclass, blended class )&lt;/font&gt;&lt;/div&gt;&lt;div&gt;&lt;font&gt;- Tham gia học tập của học viên&lt;/font&gt;&lt;/div&gt;&lt;div&gt;&lt;font&gt;- Quản lý giảng viên&lt;/font&gt;&lt;/div&gt;&lt;div&gt;&lt;font&gt;- Quản lý chứng nhận, chứng chỉ&lt;/font&gt;&lt;/div&gt;&lt;div&gt;&lt;font&gt;- Quản lý KPI giờ học, giờ giảng&lt;/font&gt;&lt;/div&gt;&lt;div&gt;&lt;font&gt;- Quản lý chi phí&lt;/font&gt;&lt;/div&gt;&lt;div&gt;&lt;font&gt;- Quản lý điểm danh QR Code&lt;/font&gt;&lt;/div&gt;&lt;div&gt;&lt;font&gt;- Quản lý phòng học và trang thiết bị ( phục vụ đào tạo kết hợp )&lt;/font&gt;&lt;/div&gt;&lt;/div&gt;" style="rounded=0;whiteSpace=wrap;html=1;align=left;fontSize=14;" vertex="1" parent="1">
          <mxGeometry x="-920" y="335" width="380" height="225" as="geometry" />
        </mxCell>
        <mxCell id="Bu1Jaf-0owffB2VXctZz-2" value="&lt;span&gt;&lt;b&gt;Quản lý nội dung đào tạo:&lt;/b&gt;&lt;/span&gt;&lt;div&gt;&lt;span&gt;&lt;b&gt;&lt;br&gt;&lt;/b&gt;&lt;/span&gt;&lt;/div&gt;&lt;div&gt;&lt;span&gt;- Quản lý môn học, học phần&lt;/span&gt;&lt;/div&gt;&lt;div&gt;&lt;span&gt;- Quản lý chương trình đào tạo&lt;/span&gt;&lt;/div&gt;&lt;div&gt;&lt;span&gt;- Quản lý thư viện tài liệu, bài giảng&lt;/span&gt;&lt;/div&gt;" style="rounded=0;whiteSpace=wrap;html=1;align=left;fontSize=14;" vertex="1" parent="1">
          <mxGeometry x="-1330" y="335" width="380" height="125" as="geometry" />
        </mxCell>
        <mxCell id="Bu1Jaf-0owffB2VXctZz-3" value="&lt;span&gt;&lt;b&gt;Tổ chức thi, kiểm tra đánh giá&lt;/b&gt;&lt;/span&gt;&lt;div&gt;&lt;span&gt;&lt;b&gt;&lt;br&gt;&lt;/b&gt;&lt;/span&gt;&lt;/div&gt;&lt;div&gt;&lt;span&gt;- Quản lý ngân hàng câu hỏi&lt;/span&gt;&lt;/div&gt;&lt;div&gt;&lt;span&gt;- Quản lý đề thi&lt;/span&gt;&lt;/div&gt;&lt;div&gt;&lt;span&gt;- Quản lý đợt thi, ca thi: Thi lý thuyết, thi thực hành, ...&lt;br&gt;- Ứng dụng thi chuyên biệt ( hạn chế gian lận thi cử )&lt;/span&gt;&lt;/div&gt;" style="rounded=0;whiteSpace=wrap;html=1;align=left;fontSize=14;" vertex="1" parent="1">
          <mxGeometry x="-1330" y="497.5" width="380" height="125" as="geometry" />
        </mxCell>
        <mxCell id="Bu1Jaf-0owffB2VXctZz-4" value="&lt;span&gt;&lt;b&gt;Quản lý hệ thống&lt;/b&gt;&lt;/span&gt;&lt;div&gt;&lt;br&gt;&lt;/div&gt;&lt;div&gt;- Quản lý người dùng và phân quyền&lt;/div&gt;" style="rounded=0;whiteSpace=wrap;html=1;align=left;fontSize=14;" vertex="1" parent="1">
          <mxGeometry x="-1330" y="650" width="380" height="90" as="geometry" />
        </mxCell>
        <mxCell id="Bu1Jaf-0owffB2VXctZz-5" value="&lt;span&gt;&lt;b&gt;Cộng tác, chia sẻ&lt;/b&gt;&lt;/span&gt;&lt;div&gt;&lt;br&gt;&lt;/div&gt;&lt;div&gt;- Thảo luận trong lớp học&lt;/div&gt;&lt;div&gt;- Notification&lt;/div&gt;&lt;div&gt;- Email&lt;/div&gt;" style="rounded=0;whiteSpace=wrap;html=1;align=left;fontSize=14;" vertex="1" parent="1">
          <mxGeometry x="-920" y="600" width="380" height="90" as="geometry" />
        </mxCell>
        <mxCell id="Bu1Jaf-0owffB2VXctZz-6" value="&lt;font style=&quot;font-size: 14px;&quot;&gt;&lt;b&gt;Role Admin:&lt;/b&gt;&lt;br&gt;&lt;div style=&quot;text-align: left;&quot;&gt;&lt;span style=&quot;background-color: transparent; color: light-dark(rgb(0, 0, 0), rgb(255, 255, 255));&quot;&gt;- Tạo và quản lý tài khoản người dùng&lt;/span&gt;&lt;/div&gt;&lt;/font&gt;&lt;div&gt;&lt;div style=&quot;text-align: left;&quot;&gt;&lt;span style=&quot;font-size: 14px; background-color: transparent; color: light-dark(rgb(0, 0, 0), rgb(255, 255, 255));&quot;&gt;- Phân quyền cho các vai trò&lt;/span&gt;&lt;/div&gt;&lt;/div&gt;&lt;div style=&quot;text-align: left;&quot;&gt;&lt;span style=&quot;font-size: 14px; background-color: transparent; color: light-dark(rgb(0, 0, 0), rgb(255, 255, 255));&quot;&gt;- Quản lý báo cáo tổng thể&lt;br&gt;&lt;/span&gt;&lt;font style=&quot;font-size: 14px;&quot;&gt;&lt;div&gt;&lt;span style=&quot;background-color: transparent; color: light-dark(rgb(0, 0, 0), rgb(255, 255, 255));&quot;&gt;- Thiết lập chương trình đào tạo&lt;/span&gt;&lt;/div&gt;&lt;div&gt;&lt;span style=&quot;background-color: transparent; color: light-dark(rgb(0, 0, 0), rgb(255, 255, 255));&quot;&gt;- Quản lý danh mục môn học, học phần&lt;/span&gt;&lt;/div&gt;&lt;/font&gt;&lt;div&gt;&lt;span style=&quot;font-size: 14px;&quot;&gt;- Quản lý lớp học ( online, offline, belended )&lt;/span&gt;&lt;/div&gt;&lt;div&gt;&lt;span style=&quot;font-size: 14px;&quot;&gt;- Quản&amp;nbsp; lý sắp xếp lịch học&lt;/span&gt;&lt;/div&gt;&lt;div&gt;&lt;span style=&quot;font-size: 14px;&quot;&gt;- Quản lý phòng học và trang thiết bị&lt;/span&gt;&lt;/div&gt;&lt;div&gt;&lt;span style=&quot;font-size: 14px;&quot;&gt;- Quản lý kế hoạch đào tạo&lt;/span&gt;&lt;/div&gt;&lt;div&gt;&lt;span style=&quot;font-size: 14px;&quot;&gt;- Quản lý ngân hàng câu hỏi và đề thi&lt;/span&gt;&lt;/div&gt;&lt;div&gt;&lt;span style=&quot;font-size: 14px;&quot;&gt;- Quản lý kỳ thi và đánh giá&lt;/span&gt;&lt;/div&gt;&lt;div&gt;&lt;span style=&quot;font-size: 14px;&quot;&gt;- Quản lý chi phí đào tạo&lt;/span&gt;&lt;/div&gt;&lt;div&gt;&lt;span style=&quot;font-size: 14px;&quot;&gt;- Quản lý thư viện tài liệu, bài giảng&lt;/span&gt;&lt;/div&gt;&lt;div&gt;&lt;span style=&quot;font-size: 14px;&quot;&gt;- Phân công giảng viên&lt;/span&gt;&lt;/div&gt;&lt;div&gt;&lt;span style=&quot;font-size: 14px;&quot;&gt;- Quản lý đợt thi, ca thi và giám sát&lt;/span&gt;&lt;/div&gt;&lt;div&gt;&lt;span style=&quot;font-size: 14px;&quot;&gt;- Phân tích dữ liệu đào tạo&lt;/span&gt;&lt;/div&gt;&lt;div&gt;&lt;span style=&quot;font-size: 14px;&quot;&gt;- Gửi thông báo toàn bộ người dùng&lt;/span&gt;&lt;/div&gt;&lt;/div&gt;" style="rounded=0;whiteSpace=wrap;html=1;" vertex="1" parent="1">
          <mxGeometry x="-3060" y="760" width="290" height="320" as="geometry" />
        </mxCell>
        <mxCell id="HW7B9qlzJ43_0zu3FjqF-2" value="&lt;b style=&quot;&quot;&gt;&lt;font style=&quot;font-size: 14px;&quot;&gt;Hệ thống đào tạo từ xa:&lt;/font&gt;&lt;/b&gt;&lt;div style=&quot;&quot;&gt;&lt;span style=&quot;font-size: 14px;&quot;&gt;&lt;b&gt;&amp;nbsp; &amp;nbsp; -&amp;nbsp;&amp;nbsp;Quản lý nội dung đào tạo:&lt;/b&gt;&lt;/span&gt;&lt;/div&gt;&lt;div style=&quot;&quot;&gt;&lt;span style=&quot;font-size: 14px;&quot;&gt;&amp;nbsp; &amp;nbsp; &amp;nbsp; &amp;nbsp;+ Quản lý chương trình đào tạo&lt;br&gt;&amp;nbsp; &amp;nbsp; &amp;nbsp; &amp;nbsp;+ Quản lý môn học, học phần&lt;br&gt;&amp;nbsp; &amp;nbsp; &amp;nbsp; &amp;nbsp;+ Quản lý thư viện tài liệu, bài giảng&lt;/span&gt;&lt;/div&gt;&lt;div style=&quot;&quot;&gt;&lt;span style=&quot;font-size: 14px;&quot;&gt;&amp;nbsp; &amp;nbsp;&amp;nbsp;&lt;b&gt;- Tổ chức đào tạo:&lt;/b&gt;&lt;/span&gt;&lt;/div&gt;&lt;div style=&quot;&quot;&gt;&lt;span style=&quot;font-size: 14px;&quot;&gt;&amp;nbsp; &amp;nbsp; &amp;nbsp; &amp;nbsp;+ Quản lý lớp học&amp;nbsp;&lt;/span&gt;&lt;/div&gt;&lt;div style=&quot;&quot;&gt;&lt;span style=&quot;font-size: 14px;&quot;&gt;&amp;nbsp; &amp;nbsp; &amp;nbsp; &amp;nbsp;+ Quản lý giảng viên&lt;/span&gt;&lt;/div&gt;&lt;div style=&quot;&quot;&gt;&lt;span style=&quot;font-size: 14px;&quot;&gt;&amp;nbsp; &amp;nbsp; &amp;nbsp; &amp;nbsp;+ Quản lý chứng nhận, chứng chỉ&lt;/span&gt;&lt;/div&gt;&lt;div style=&quot;&quot;&gt;&lt;span style=&quot;font-size: 14px;&quot;&gt;&amp;nbsp; &amp;nbsp; &amp;nbsp; &amp;nbsp;+ Quản lý phòng học và trang thiết bị ( phục vụ đào tạo kết hợp )&lt;br&gt;&amp;nbsp; &amp;nbsp; &amp;nbsp;&lt;b&gt;- Tổ chức thi, kiểm tra đánh giá:&lt;/b&gt;&lt;/span&gt;&lt;/div&gt;&lt;div style=&quot;&quot;&gt;&lt;span style=&quot;font-size: 14px;&quot;&gt;&amp;nbsp; &amp;nbsp; &amp;nbsp; &amp;nbsp;+ Quản lý ngân hàng câu hỏi&lt;/span&gt;&lt;/div&gt;&lt;div style=&quot;&quot;&gt;&lt;span style=&quot;font-size: 14px;&quot;&gt;&amp;nbsp; &amp;nbsp; &amp;nbsp; &amp;nbsp;+ Quản lý đề thi&lt;/span&gt;&lt;/div&gt;&lt;div style=&quot;&quot;&gt;&lt;span style=&quot;font-size: 14px;&quot;&gt;&amp;nbsp; &amp;nbsp; &amp;nbsp; &amp;nbsp;+ Quản lý đợt thi, ca thi&lt;/span&gt;&lt;/div&gt;&lt;div style=&quot;&quot;&gt;&lt;span style=&quot;font-size: 14px;&quot;&gt;&amp;nbsp; &amp;nbsp; &amp;nbsp; &amp;nbsp;+ Ứng dụng thi chuyên biệt&lt;/span&gt;&lt;/div&gt;&lt;div style=&quot;&quot;&gt;&lt;span style=&quot;font-size: 14px;&quot;&gt;&lt;b&gt;&amp;nbsp; &amp;nbsp; &amp;nbsp;- Cộng tác:&lt;/b&gt;&lt;/span&gt;&lt;/div&gt;&lt;div style=&quot;&quot;&gt;&lt;span style=&quot;font-size: 14px;&quot;&gt;&amp;nbsp; &amp;nbsp; &amp;nbsp; &amp;nbsp;+ Thảo luận trong lớp học&lt;/span&gt;&lt;/div&gt;&lt;div style=&quot;&quot;&gt;&lt;span style=&quot;font-size: 14px;&quot;&gt;&amp;nbsp; &amp;nbsp; &amp;nbsp; &amp;nbsp;+ Notification, Email&lt;/span&gt;&lt;/div&gt;&lt;div style=&quot;&quot;&gt;&lt;span style=&quot;font-size: 14px;&quot;&gt;&lt;b&gt;&amp;nbsp; &amp;nbsp; &amp;nbsp;- Quản lý hệ thống:&lt;/b&gt;&lt;/span&gt;&lt;/div&gt;&lt;div style=&quot;&quot;&gt;&lt;span style=&quot;font-size: 14px;&quot;&gt;&amp;nbsp; &amp;nbsp; &amp;nbsp; &amp;nbsp;+ Quản lý người dùng và phân quyền&lt;/span&gt;&lt;/div&gt;&lt;div style=&quot;&quot;&gt;&lt;span style=&quot;font-size: 14px;&quot;&gt;&amp;nbsp; &amp;nbsp; &lt;b&gt;&amp;nbsp;- Báo cáo thống kê:&lt;/b&gt;&lt;/span&gt;&lt;/div&gt;" style="rounded=0;whiteSpace=wrap;html=1;align=left;" vertex="1" parent="1">
          <mxGeometry x="-2280" y="280" width="330" height="380" as="geometry" />
        </mxCell>
        <mxCell id="HW7B9qlzJ43_0zu3FjqF-3" value="&lt;font style=&quot;font-size: 14px;&quot;&gt;&lt;b&gt;Role Student:&lt;/b&gt;&lt;br&gt;&lt;div style=&quot;text-align: left;&quot;&gt;&lt;span style=&quot;background-color: transparent; color: light-dark(rgb(0, 0, 0), rgb(255, 255, 255));&quot;&gt;- Xem chương trình đào tạo&lt;/span&gt;&lt;/div&gt;&lt;/font&gt;&lt;div&gt;&lt;div style=&quot;text-align: left;&quot;&gt;&lt;span style=&quot;font-size: 14px; background-color: transparent; color: light-dark(rgb(0, 0, 0), rgb(255, 255, 255));&quot;&gt;- Xem, đăng ký môn học&lt;/span&gt;&lt;/div&gt;&lt;/div&gt;&lt;div style=&quot;text-align: left;&quot;&gt;&lt;span style=&quot;font-size: 14px; background-color: transparent; color: light-dark(rgb(0, 0, 0), rgb(255, 255, 255));&quot;&gt;- Đăng nhập&lt;/span&gt;&lt;/div&gt;&lt;div style=&quot;text-align: left;&quot;&gt;&lt;span style=&quot;font-size: 14px; background-color: transparent; color: light-dark(rgb(0, 0, 0), rgb(255, 255, 255));&quot;&gt;- Xem thông tin cá nhân&lt;/span&gt;&lt;/div&gt;&lt;div style=&quot;text-align: left;&quot;&gt;&lt;span style=&quot;font-size: 14px; background-color: transparent; color: light-dark(rgb(0, 0, 0), rgb(255, 255, 255));&quot;&gt;- Xem các thông tin môn học đã học&lt;/span&gt;&lt;/div&gt;&lt;div style=&quot;text-align: left;&quot;&gt;&lt;span style=&quot;font-size: 14px; background-color: transparent; color: light-dark(rgb(0, 0, 0), rgb(255, 255, 255));&quot;&gt;- Xem lịch học&lt;/span&gt;&lt;/div&gt;&lt;div style=&quot;text-align: left;&quot;&gt;&lt;span style=&quot;font-size: 14px; background-color: transparent; color: light-dark(rgb(0, 0, 0), rgb(255, 255, 255));&quot;&gt;- Tham gia lớp học&lt;/span&gt;&lt;/div&gt;&lt;div style=&quot;text-align: left;&quot;&gt;&lt;span style=&quot;font-size: 14px; background-color: transparent; color: light-dark(rgb(0, 0, 0), rgb(255, 255, 255));&quot;&gt;- Điểm danh QR Code và GPS&lt;/span&gt;&lt;/div&gt;&lt;div style=&quot;text-align: left;&quot;&gt;&lt;span style=&quot;font-size: 14px; background-color: transparent; color: light-dark(rgb(0, 0, 0), rgb(255, 255, 255));&quot;&gt;- Tham gia diễn đàn môn học&lt;/span&gt;&lt;/div&gt;&lt;div style=&quot;text-align: left;&quot;&gt;&lt;span style=&quot;font-size: 14px; background-color: transparent; color: light-dark(rgb(0, 0, 0), rgb(255, 255, 255));&quot;&gt;- Tham gia nhóm chat môn học&lt;/span&gt;&lt;/div&gt;&lt;div style=&quot;text-align: left;&quot;&gt;&lt;span style=&quot;font-size: 14px; background-color: transparent; color: light-dark(rgb(0, 0, 0), rgb(255, 255, 255));&quot;&gt;- Truy cập tài liệu môn học&lt;/span&gt;&lt;/div&gt;&lt;div style=&quot;text-align: left;&quot;&gt;&lt;span style=&quot;font-size: 14px; background-color: transparent; color: light-dark(rgb(0, 0, 0), rgb(255, 255, 255));&quot;&gt;- Xem và thanh toán&lt;/span&gt;&lt;/div&gt;&lt;div style=&quot;text-align: left;&quot;&gt;&lt;span style=&quot;font-size: 14px; background-color: transparent; color: light-dark(rgb(0, 0, 0), rgb(255, 255, 255));&quot;&gt;- Thực hiện làm kiểm tra trực truyến&lt;/span&gt;&lt;/div&gt;&lt;div style=&quot;text-align: left;&quot;&gt;&lt;span style=&quot;font-size: 14px; background-color: transparent; color: light-dark(rgb(0, 0, 0), rgb(255, 255, 255));&quot;&gt;- Thực hiện Thi trực tuyến&lt;/span&gt;&lt;/div&gt;&lt;div style=&quot;text-align: left;&quot;&gt;&lt;span style=&quot;font-size: 14px; background-color: transparent; color: light-dark(rgb(0, 0, 0), rgb(255, 255, 255));&quot;&gt;- Xem tiến độ học tập cá nhân&lt;/span&gt;&lt;/div&gt;&lt;div style=&quot;text-align: left;&quot;&gt;&lt;span style=&quot;font-size: 14px; background-color: transparent; color: light-dark(rgb(0, 0, 0), rgb(255, 255, 255));&quot;&gt;- Đánh giá giảng viên / môn học&lt;/span&gt;&lt;/div&gt;&lt;div style=&quot;text-align: left;&quot;&gt;&lt;span style=&quot;font-size: 14px; background-color: transparent; color: light-dark(rgb(0, 0, 0), rgb(255, 255, 255));&quot;&gt;- Nhận thông báo từ hệ thống&lt;/span&gt;&lt;/div&gt;" style="rounded=0;whiteSpace=wrap;html=1;" vertex="1" parent="1">
          <mxGeometry x="-3320" y="760" width="240" height="310" as="geometry" />
        </mxCell>
        <mxCell id="HW7B9qlzJ43_0zu3FjqF-4" value="&lt;div style=&quot;text-align: center;&quot;&gt;&lt;b style=&quot;font-size: 14px; background-color: transparent; color: light-dark(rgb(0, 0, 0), rgb(255, 255, 255));&quot;&gt;Role Teacher:&lt;/b&gt;&lt;/div&gt;&lt;font style=&quot;font-size: 14px;&quot;&gt;&lt;div style=&quot;&quot;&gt;&lt;span style=&quot;background-color: transparent; color: light-dark(rgb(0, 0, 0), rgb(255, 255, 255));&quot;&gt;&amp;nbsp;- Quản lý lớp học được phân công&lt;/span&gt;&lt;/div&gt;&lt;div style=&quot;&quot;&gt;&lt;span style=&quot;background-color: transparent; color: light-dark(rgb(0, 0, 0), rgb(255, 255, 255));&quot;&gt;&amp;nbsp;- Tạo và cập nhật nội dung giảng dạy&lt;/span&gt;&lt;/div&gt;&lt;div style=&quot;&quot;&gt;&lt;span style=&quot;background-color: transparent; color: light-dark(rgb(0, 0, 0), rgb(255, 255, 255));&quot;&gt;&amp;nbsp;- Tạo/ chỉnh sửa câu hỏi, bài kiểm tra&lt;/span&gt;&lt;/div&gt;&lt;div style=&quot;&quot;&gt;&lt;span style=&quot;background-color: transparent; color: light-dark(rgb(0, 0, 0), rgb(255, 255, 255));&quot;&gt;&amp;nbsp;- Chấm bài và đánh giá sinh viên&lt;/span&gt;&lt;/div&gt;&lt;div style=&quot;&quot;&gt;&lt;span style=&quot;background-color: transparent; color: light-dark(rgb(0, 0, 0), rgb(255, 255, 255));&quot;&gt;&amp;nbsp;- Quản lý diễn đàn, chat môn học&lt;/span&gt;&lt;/div&gt;&lt;div style=&quot;&quot;&gt;&amp;nbsp;- Xem phân tích học tập của sinh viên&lt;/div&gt;&lt;div style=&quot;&quot;&gt;&amp;nbsp;- Gửi thông báo cho lớp / sinh viên&lt;/div&gt;&lt;div style=&quot;&quot;&gt;&amp;nbsp;- Tham gia thi / giám sát kỳ thi&amp;nbsp;&lt;span style=&quot;background-color: transparent; color: light-dark(rgb(0, 0, 0), rgb(255, 255, 255));&quot;&gt;( nếu phân công )&lt;/span&gt;&lt;/div&gt;&lt;div style=&quot;&quot;&gt;&amp;nbsp;- Gửi đánh giá cho admin&lt;/div&gt;&lt;/font&gt;" style="rounded=0;whiteSpace=wrap;html=1;align=left;" vertex="1" parent="1">
          <mxGeometry x="-3320" y="1110" width="240" height="210" as="geometry" />
        </mxCell>
        <mxCell id="v9oc3wIaHa0F5nW27fbr-1" value="&lt;font style=&quot;font-size: 14px;&quot;&gt;&lt;b&gt;&lt;font style=&quot;color: rgb(255, 51, 153);&quot;&gt;Role Student:&lt;/font&gt;&lt;/b&gt;&lt;br&gt;&lt;div style=&quot;text-align: left;&quot;&gt;&lt;span style=&quot;background-color: transparent; color: light-dark(rgb(0, 0, 0), rgb(255, 255, 255));&quot;&gt;&lt;b&gt;- Quản lý tài khoản:&lt;/b&gt;&lt;/span&gt;&lt;/div&gt;&lt;div style=&quot;text-align: left;&quot;&gt;&lt;span style=&quot;background-color: transparent; color: light-dark(rgb(0, 0, 0), rgb(255, 255, 255));&quot;&gt;&amp;nbsp; &amp;nbsp;+ Đăng nhập / Đăng xuất&lt;/span&gt;&lt;/div&gt;&lt;div style=&quot;text-align: left;&quot;&gt;&lt;span style=&quot;background-color: transparent; color: light-dark(rgb(0, 0, 0), rgb(255, 255, 255));&quot;&gt;&amp;nbsp; &amp;nbsp;+ Xem và cập nhật thông tin cá nhân&lt;/span&gt;&lt;/div&gt;&lt;div style=&quot;text-align: left;&quot;&gt;&lt;span style=&quot;background-color: transparent; color: light-dark(rgb(0, 0, 0), rgb(255, 255, 255));&quot;&gt;&amp;nbsp; &amp;nbsp;+ Đổi mật khẩu&lt;/span&gt;&lt;/div&gt;&lt;div style=&quot;text-align: left;&quot;&gt;&lt;span style=&quot;background-color: transparent; color: light-dark(rgb(0, 0, 0), rgb(255, 255, 255));&quot;&gt;&amp;nbsp; &amp;nbsp;+ Thiết lập thông báo&lt;/span&gt;&lt;/div&gt;&lt;div style=&quot;text-align: left;&quot;&gt;&lt;b&gt;- Học tập:&lt;/b&gt;&lt;/div&gt;&lt;div style=&quot;text-align: left;&quot;&gt;&amp;nbsp; &amp;nbsp;+ Xem chương trình đào tạo&lt;/div&gt;&lt;div style=&quot;text-align: left;&quot;&gt;&amp;nbsp; &amp;nbsp;+ Xem và đăng ký môn học&lt;/div&gt;&lt;div style=&quot;text-align: left;&quot;&gt;&amp;nbsp; &amp;nbsp;+ Tham gia lớp học trực tuyến ( online / hybrid ) -&amp;gt; Truy cập liên kết lớp học trực tuyến ( Google Meet, Zoom, ... )&lt;/div&gt;&lt;div style=&quot;text-align: left;&quot;&gt;&amp;nbsp; &amp;nbsp;+ Xem lịch học và lịch thi&lt;/div&gt;&lt;div style=&quot;text-align: left;&quot;&gt;&amp;nbsp; &amp;nbsp;+ Truy cập và tải tài liệu môn học&lt;/div&gt;&lt;div style=&quot;text-align: left;&quot;&gt;&amp;nbsp; &amp;nbsp;+ Xem bài giảng ( video&amp;nbsp; / slides )&lt;/div&gt;&lt;div style=&quot;text-align: left;&quot;&gt;&amp;nbsp; &amp;nbsp;+ Nộp bài tập&lt;/div&gt;&lt;div style=&quot;text-align: left;&quot;&gt;&lt;b&gt;- Điểm danh:&lt;/b&gt;&lt;/div&gt;&lt;div style=&quot;text-align: left;&quot;&gt;&amp;nbsp; &amp;nbsp;+ Điểm danh bằng quét QR Code&lt;/div&gt;&lt;div style=&quot;text-align: left;&quot;&gt;&amp;nbsp; &amp;nbsp;+ Điểm danh có xác thực vị trí GPS&lt;/div&gt;&lt;div style=&quot;text-align: left;&quot;&gt;&amp;nbsp; &amp;nbsp;+ Xem lịch sử điểm danh&lt;/div&gt;&lt;div style=&quot;text-align: left;&quot;&gt;&amp;nbsp; &amp;nbsp;+ Nhận thông báo nhắc nhở điểm danh&lt;/div&gt;&lt;div style=&quot;text-align: left;&quot;&gt;&lt;b&gt;- Tương tác:&lt;/b&gt;&lt;/div&gt;&lt;div style=&quot;text-align: left;&quot;&gt;&lt;b&gt;&amp;nbsp; &amp;nbsp;&lt;/b&gt;+ Tham gia diễn đàn môn học&lt;/div&gt;&lt;div style=&quot;text-align: left;&quot;&gt;&amp;nbsp; &amp;nbsp;+ Tham gia nhóm chat môn học&lt;/div&gt;&lt;div style=&quot;text-align: left;&quot;&gt;&amp;nbsp; &amp;nbsp;+ Đặt câu hỏi giảng viên&lt;/div&gt;&lt;div style=&quot;text-align: left;&quot;&gt;&amp;nbsp; &amp;nbsp;+ Phản hồi và đánh giá giảng viên / môn học&lt;/div&gt;&lt;div style=&quot;text-align: left;&quot;&gt;&lt;b&gt;- Kiểm tra và đánh giá:&lt;/b&gt;&lt;/div&gt;&lt;div style=&quot;text-align: left;&quot;&gt;&amp;nbsp; &amp;nbsp;+ Thực hiện kiểm tra trực tuyến&lt;/div&gt;&lt;div style=&quot;text-align: left;&quot;&gt;&amp;nbsp; &amp;nbsp;+ Thực hiện thi trực tuyến&lt;/div&gt;&lt;div style=&quot;text-align: left;&quot;&gt;&amp;nbsp; &amp;nbsp;+ Xem kết quả kiểm tra&amp;nbsp; / thi&lt;/div&gt;&lt;div style=&quot;text-align: left;&quot;&gt;&lt;b&gt;- Theo dõi tiến độ:&lt;/b&gt;&lt;/div&gt;&lt;div style=&quot;text-align: left;&quot;&gt;&amp;nbsp; &amp;nbsp;+ Xem tiến độ học tập cá nhân&lt;/div&gt;&lt;div style=&quot;text-align: left;&quot;&gt;&amp;nbsp; &amp;nbsp;+ Xem bảng điểm&lt;/div&gt;&lt;div style=&quot;text-align: left;&quot;&gt;&amp;nbsp; &amp;nbsp;+ Nhận thông báo từ hệ thống&lt;/div&gt;&lt;div style=&quot;text-align: left;&quot;&gt;&lt;b&gt;- Thanh toán:&lt;/b&gt;&lt;/div&gt;&lt;div style=&quot;text-align: left;&quot;&gt;&amp;nbsp; &amp;nbsp;+ Xem học phí&lt;/div&gt;&lt;div style=&quot;text-align: left;&quot;&gt;&amp;nbsp; &amp;nbsp;+ Thanh toán học phí&lt;/div&gt;&lt;div style=&quot;text-align: left;&quot;&gt;&amp;nbsp; &amp;nbsp;+ Xem lịch sử giao dịch&lt;/div&gt;&lt;/font&gt;" style="rounded=0;whiteSpace=wrap;html=1;" vertex="1" parent="1">
          <mxGeometry x="-6330" y="580" width="240" height="720" as="geometry" />
        </mxCell>
        <mxCell id="v9oc3wIaHa0F5nW27fbr-2" value="&lt;div style=&quot;text-align: center;&quot;&gt;&lt;b style=&quot;font-size: 14px; background-color: transparent;&quot;&gt;&lt;font style=&quot;color: light-dark(rgb(0, 0, 153), rgb(255, 255, 255));&quot;&gt;Role Teacher:&lt;/font&gt;&lt;/b&gt;&lt;/div&gt;&lt;font style=&quot;font-size: 14px;&quot;&gt;&lt;div style=&quot;&quot;&gt;&lt;div&gt;&lt;span style=&quot;background-color: transparent; color: light-dark(rgb(0, 0, 0), rgb(255, 255, 255));&quot;&gt;&lt;b&gt;- Quản lý tài khoản:&lt;/b&gt;&lt;/span&gt;&lt;/div&gt;&lt;div&gt;&lt;span style=&quot;background-color: transparent; color: light-dark(rgb(0, 0, 0), rgb(255, 255, 255));&quot;&gt;&amp;nbsp; &amp;nbsp;+ Đăng nhập / Đăng xuất&lt;/span&gt;&lt;/div&gt;&lt;div&gt;&lt;span style=&quot;background-color: transparent; color: light-dark(rgb(0, 0, 0), rgb(255, 255, 255));&quot;&gt;&amp;nbsp; &amp;nbsp;+ Xem và cập nhật thông tin cá nhân&lt;/span&gt;&lt;/div&gt;&lt;div&gt;&lt;span style=&quot;background-color: transparent; color: light-dark(rgb(0, 0, 0), rgb(255, 255, 255));&quot;&gt;&amp;nbsp; &amp;nbsp;+ Đổi mật khẩu&lt;/span&gt;&lt;/div&gt;&lt;div&gt;&lt;span style=&quot;background-color: transparent; color: light-dark(rgb(0, 0, 0), rgb(255, 255, 255));&quot;&gt;&amp;nbsp; &amp;nbsp;+ Thiết lập thông báo&lt;/span&gt;&lt;/div&gt;&lt;/div&gt;&lt;div style=&quot;&quot;&gt;&lt;span style=&quot;background-color: transparent; color: light-dark(rgb(0, 0, 0), rgb(255, 255, 255));&quot;&gt;&lt;b&gt;- Quản lý lớp học:&lt;/b&gt;&lt;/span&gt;&lt;/div&gt;&lt;div style=&quot;&quot;&gt;&lt;span style=&quot;background-color: transparent; color: light-dark(rgb(0, 0, 0), rgb(255, 255, 255));&quot;&gt;&amp;nbsp; &amp;nbsp;+ Xem danh sách lớp được phân công&lt;/span&gt;&lt;/div&gt;&lt;div style=&quot;&quot;&gt;&lt;span style=&quot;background-color: transparent; color: light-dark(rgb(0, 0, 0), rgb(255, 255, 255));&quot;&gt;&amp;nbsp; &amp;nbsp;+ Điểm danh học viên&lt;/span&gt;&lt;/div&gt;&lt;div style=&quot;&quot;&gt;&lt;span style=&quot;background-color: transparent; color: light-dark(rgb(0, 0, 0), rgb(255, 255, 255));&quot;&gt;&amp;nbsp; &amp;nbsp;+ Tạo mã QR Code cho điểm danh&lt;/span&gt;&lt;/div&gt;&lt;div style=&quot;&quot;&gt;&lt;span style=&quot;background-color: transparent; color: light-dark(rgb(0, 0, 0), rgb(255, 255, 255));&quot;&gt;&amp;nbsp; &amp;nbsp;+ Thiết lập phạm vi GPS hợp lệ cho điểm danh&lt;/span&gt;&lt;/div&gt;&lt;div style=&quot;&quot;&gt;&lt;span style=&quot;background-color: transparent; color: light-dark(rgb(0, 0, 0), rgb(255, 255, 255));&quot;&gt;&amp;nbsp; &amp;nbsp;+ Xem báo cáo điểm danh&lt;/span&gt;&lt;/div&gt;&lt;div style=&quot;&quot;&gt;&lt;span style=&quot;background-color: transparent; color: light-dark(rgb(0, 0, 0), rgb(255, 255, 255));&quot;&gt;&amp;nbsp; &amp;nbsp;+ Quản lý hoạt động của học viên&lt;/span&gt;&lt;/div&gt;&lt;div style=&quot;&quot;&gt;&lt;span style=&quot;background-color: transparent; color: light-dark(rgb(0, 0, 0), rgb(255, 255, 255));&quot;&gt;&lt;b&gt;- Giảng dạy:&lt;/b&gt;&lt;/span&gt;&lt;/div&gt;&lt;div style=&quot;&quot;&gt;&lt;span style=&quot;background-color: transparent; color: light-dark(rgb(0, 0, 0), rgb(255, 255, 255));&quot;&gt;&amp;nbsp; &amp;nbsp;+ Tạo và cập nhật nội dung giảng dạy&lt;/span&gt;&lt;/div&gt;&lt;div style=&quot;&quot;&gt;&lt;span style=&quot;background-color: transparent; color: light-dark(rgb(0, 0, 0), rgb(255, 255, 255));&quot;&gt;&amp;nbsp; &amp;nbsp;+ Tải lên tài liệu, bài giảng&lt;/span&gt;&lt;/div&gt;&lt;div style=&quot;&quot;&gt;&lt;span style=&quot;background-color: transparent; color: light-dark(rgb(0, 0, 0), rgb(255, 255, 255));&quot;&gt;&amp;nbsp; &amp;nbsp;+ Mở lớp học trực tuyến&lt;/span&gt;&lt;/div&gt;&lt;div style=&quot;&quot;&gt;&lt;span style=&quot;background-color: transparent; color: light-dark(rgb(0, 0, 0), rgb(255, 255, 255));&quot;&gt;&lt;b&gt;- Đánh giá:&lt;/b&gt;&lt;/span&gt;&lt;/div&gt;&lt;div style=&quot;&quot;&gt;&lt;span style=&quot;background-color: transparent; color: light-dark(rgb(0, 0, 0), rgb(255, 255, 255));&quot;&gt;&amp;nbsp; &amp;nbsp;+ Tạo / chỉnh sửa câu hỏi, bài kiểm tra&lt;/span&gt;&lt;/div&gt;&lt;div style=&quot;&quot;&gt;&lt;span style=&quot;background-color: transparent; color: light-dark(rgb(0, 0, 0), rgb(255, 255, 255));&quot;&gt;&amp;nbsp; &amp;nbsp;+ Tạo / quản lý bài tập&lt;/span&gt;&lt;/div&gt;&lt;div style=&quot;&quot;&gt;&lt;span style=&quot;background-color: transparent; color: light-dark(rgb(0, 0, 0), rgb(255, 255, 255));&quot;&gt;&amp;nbsp; &amp;nbsp;+ Chấm bài và đánh giá học viên&lt;/span&gt;&lt;/div&gt;&lt;div style=&quot;&quot;&gt;&lt;span style=&quot;background-color: transparent; color: light-dark(rgb(0, 0, 0), rgb(255, 255, 255));&quot;&gt;&amp;nbsp; &amp;nbsp;+ Nhập điểm và phản hồi&lt;/span&gt;&lt;/div&gt;&lt;div style=&quot;&quot;&gt;&lt;span style=&quot;background-color: transparent; color: light-dark(rgb(0, 0, 0), rgb(255, 255, 255));&quot;&gt;&lt;b&gt;- Tương tác:&lt;/b&gt;&lt;/span&gt;&lt;/div&gt;&lt;div style=&quot;&quot;&gt;&lt;span style=&quot;background-color: transparent; color: light-dark(rgb(0, 0, 0), rgb(255, 255, 255));&quot;&gt;&amp;nbsp; &amp;nbsp;+ Quản lý diễn đàn, chat môn học&lt;br&gt;&amp;nbsp; &amp;nbsp;+ Gửi thông báo cho lớp, học viên&lt;/span&gt;&lt;/div&gt;&lt;div style=&quot;&quot;&gt;&lt;span style=&quot;background-color: transparent; color: light-dark(rgb(0, 0, 0), rgb(255, 255, 255));&quot;&gt;&amp;nbsp; &amp;nbsp;+ Tư vấn học tập&lt;/span&gt;&lt;/div&gt;&lt;div style=&quot;&quot;&gt;&lt;span style=&quot;background-color: transparent; color: light-dark(rgb(0, 0, 0), rgb(255, 255, 255));&quot;&gt;&lt;b&gt;- Phân tích:&lt;/b&gt;&lt;/span&gt;&lt;/div&gt;&lt;div style=&quot;&quot;&gt;&lt;span style=&quot;background-color: transparent; color: light-dark(rgb(0, 0, 0), rgb(255, 255, 255));&quot;&gt;&amp;nbsp; &amp;nbsp;+ Xem phân tích&amp;nbsp; học tập của học viên&lt;/span&gt;&lt;/div&gt;&lt;div style=&quot;&quot;&gt;&lt;span style=&quot;background-color: transparent; color: light-dark(rgb(0, 0, 0), rgb(255, 255, 255));&quot;&gt;&amp;nbsp; + Theo dõi kết quả học tập của các học viên&lt;/span&gt;&lt;/div&gt;&lt;div style=&quot;&quot;&gt;&lt;span style=&quot;background-color: transparent; color: light-dark(rgb(0, 0, 0), rgb(255, 255, 255));&quot;&gt;&amp;nbsp; + Báo cáo tiến độ giảng dạy&lt;/span&gt;&lt;/div&gt;&lt;div style=&quot;&quot;&gt;&lt;b&gt;- Thi cử:&lt;/b&gt;&lt;/div&gt;&lt;div style=&quot;&quot;&gt;&amp;nbsp; + Tham gia giám sát kỳ thi ( nếu được phân công )&lt;/div&gt;&lt;div style=&quot;&quot;&gt;&amp;nbsp; + Nhập đề thi vào ngân hàng câu hỏi&lt;/div&gt;&lt;div style=&quot;&quot;&gt;&amp;nbsp; + Phê duyệt kết quả thi&lt;/div&gt;&lt;/font&gt;" style="rounded=0;whiteSpace=wrap;html=1;align=left;" vertex="1" parent="1">
          <mxGeometry x="-6050" y="580" width="240" height="730" as="geometry" />
        </mxCell>
        <mxCell id="v9oc3wIaHa0F5nW27fbr-3" value="&lt;div style=&quot;text-align: center;&quot;&gt;&lt;b style=&quot;font-size: 14px; background-color: transparent;&quot;&gt;&lt;font style=&quot;color: light-dark(rgb(204, 0, 0), rgb(255, 255, 255));&quot;&gt;Role Admin:&lt;/font&gt;&lt;/b&gt;&lt;/div&gt;&lt;font style=&quot;font-size: 14px;&quot;&gt;&lt;div style=&quot;&quot;&gt;&lt;div&gt;&lt;span style=&quot;background-color: transparent; color: light-dark(rgb(0, 0, 0), rgb(255, 255, 255));&quot;&gt;&lt;b&gt;- Quản lý tài khoản:&lt;/b&gt;&lt;/span&gt;&lt;/div&gt;&lt;div&gt;&lt;span style=&quot;background-color: transparent; color: light-dark(rgb(0, 0, 0), rgb(255, 255, 255));&quot;&gt;&amp;nbsp; &amp;nbsp;+ Đăng nhập / Đăng xuất&lt;/span&gt;&lt;/div&gt;&lt;div&gt;&lt;span style=&quot;background-color: transparent; color: light-dark(rgb(0, 0, 0), rgb(255, 255, 255));&quot;&gt;&amp;nbsp; &amp;nbsp;+ Xem và cập nhật thông tin cá nhân&lt;/span&gt;&lt;/div&gt;&lt;div&gt;&lt;span style=&quot;background-color: transparent; color: light-dark(rgb(0, 0, 0), rgb(255, 255, 255));&quot;&gt;&amp;nbsp; &amp;nbsp;+ Đổi mật khẩu&lt;/span&gt;&lt;/div&gt;&lt;div&gt;&lt;span style=&quot;background-color: transparent; color: light-dark(rgb(0, 0, 0), rgb(255, 255, 255));&quot;&gt;&amp;nbsp; &amp;nbsp;+ Thiết lập thông báo&lt;/span&gt;&lt;/div&gt;&lt;/div&gt;&lt;div style=&quot;&quot;&gt;&lt;span style=&quot;background-color: transparent; color: light-dark(rgb(0, 0, 0), rgb(255, 255, 255));&quot;&gt;&lt;b&gt;- Quản lý người dùng:&lt;br&gt;&lt;/b&gt;&lt;/span&gt;&lt;/div&gt;&lt;div style=&quot;&quot;&gt;&lt;b&gt;&amp;nbsp; &amp;nbsp;&lt;/b&gt;+ Tạo và quản lý tài khoản người dùng&lt;/div&gt;&lt;div style=&quot;&quot;&gt;&amp;nbsp; &amp;nbsp;+ Phân quyền cho các vai trò&lt;/div&gt;&lt;div style=&quot;&quot;&gt;&amp;nbsp; &amp;nbsp;+ Quản lý nhóm người dùng&lt;/div&gt;&lt;div style=&quot;&quot;&gt;&lt;b&gt;- Quản lý chương trình:&lt;/b&gt;&lt;/div&gt;&lt;div style=&quot;&quot;&gt;&lt;b&gt;&amp;nbsp; &amp;nbsp;&lt;/b&gt;+ Thiết lập chương trình đào tạo&lt;/div&gt;&lt;div style=&quot;&quot;&gt;&amp;nbsp; &amp;nbsp;+ Quản lý danh mục môn học, học phần&lt;/div&gt;&lt;div style=&quot;&quot;&gt;&amp;nbsp; &amp;nbsp;+ Quản lý kế hoạch đào tạo&lt;/div&gt;&lt;div style=&quot;&quot;&gt;&lt;b&gt;- Quản lý lớp học:&lt;/b&gt;&lt;/div&gt;&lt;div style=&quot;&quot;&gt;&lt;b&gt;&amp;nbsp; &amp;nbsp;&lt;/b&gt;+ Tạo và quản lý lớp học&lt;/div&gt;&lt;div style=&quot;&quot;&gt;&amp;nbsp; &amp;nbsp;+ Quản lý sắp xếp lịch học&lt;/div&gt;&lt;div style=&quot;&quot;&gt;&amp;nbsp; &amp;nbsp;+ Phân công giảng viên&lt;br&gt;&amp;nbsp; &amp;nbsp;+ Quản lý phòng học và trang thiết bị&lt;/div&gt;&lt;div style=&quot;&quot;&gt;&amp;nbsp; &amp;nbsp;+ Cấu hình tích hợp công cụ học trực tuyến&lt;/div&gt;&lt;div style=&quot;&quot;&gt;&lt;b&gt;- Quản lý học tập:&lt;/b&gt;&lt;/div&gt;&lt;div style=&quot;&quot;&gt;&amp;nbsp; &amp;nbsp;+ Quản lý thư viện tài liệu, bài giảng&lt;/div&gt;&lt;div style=&quot;&quot;&gt;&amp;nbsp; &amp;nbsp;+ Quản lý diễn đàn và hoạt động tương tác&lt;/div&gt;&lt;div style=&quot;&quot;&gt;&amp;nbsp; &amp;nbsp;+ Giám sát tiến độ giảng dạy và học tập&lt;/div&gt;&lt;div style=&quot;&quot;&gt;&lt;b&gt;- Quản lý đánh giá:&lt;/b&gt;&lt;/div&gt;&lt;div style=&quot;&quot;&gt;&amp;nbsp; &amp;nbsp;+ Quản lý ngân hàng câu hỏi và đề thi&lt;/div&gt;&lt;div style=&quot;&quot;&gt;&amp;nbsp; &amp;nbsp;+ Quản lý kỳ thi và đánh giá&lt;/div&gt;&lt;div style=&quot;&quot;&gt;&amp;nbsp; &amp;nbsp;+ Quản lý đợt thi, ca thi và giám sát&lt;/div&gt;&lt;div style=&quot;&quot;&gt;&lt;b&gt;- Quản lý tài chính:&lt;/b&gt;&lt;/div&gt;&lt;div style=&quot;&quot;&gt;&amp;nbsp; &amp;nbsp;+ Quản lý chi phí đào tạo&lt;/div&gt;&lt;div style=&quot;&quot;&gt;&amp;nbsp; &amp;nbsp;+ Thiết lập học phí&lt;/div&gt;&lt;div style=&quot;&quot;&gt;&amp;nbsp; &amp;nbsp;+ Theo dõi thanh toán&lt;/div&gt;&lt;div style=&quot;&quot;&gt;&amp;nbsp; &amp;nbsp;+ Báo cáo tài chính&lt;/div&gt;&lt;div style=&quot;&quot;&gt;&lt;b&gt;- Phân tích và báo cáo:&lt;/b&gt;&lt;/div&gt;&lt;div style=&quot;&quot;&gt;&amp;nbsp; + Quản lý báo cáo tổng thể&lt;/div&gt;&lt;div style=&quot;&quot;&gt;&amp;nbsp; + Phân tích dữ liệu đào tạo&lt;/div&gt;&lt;div style=&quot;&quot;&gt;&amp;nbsp; + Xuất báo cáo định kỳ&lt;/div&gt;&lt;div style=&quot;&quot;&gt;&lt;b&gt;- Thông báo:&lt;/b&gt;&lt;/div&gt;&lt;div style=&quot;&quot;&gt;&amp;nbsp; + Gửi thông báo toàn bộ người dùng&lt;/div&gt;&lt;div style=&quot;&quot;&gt;&amp;nbsp; + Quản lý hệ thống thông báo&lt;/div&gt;&lt;/font&gt;" style="rounded=0;whiteSpace=wrap;html=1;align=left;" vertex="1" parent="1">
          <mxGeometry x="-5770" y="580" width="240" height="830" as="geometry" />
        </mxCell>
        <mxCell id="MS7olFMDDa0M2ojFL7Bc-1" value="Chi tiết chức năng" style="shape=umlFrame;whiteSpace=wrap;html=1;pointerEvents=0;width=120;height=30;fillColor=#e1d5e7;strokeColor=#9673a6;" vertex="1" parent="1">
          <mxGeometry x="-6380" y="520" width="900" height="920" as="geometry" />
        </mxCell>
        <mxCell id="MS7olFMDDa0M2ojFL7Bc-2" value="&lt;div style=&quot;text-align: center;&quot;&gt;&lt;b style=&quot;font-size: 14px; background-color: transparent; color: light-dark(rgb(0, 0, 0), rgb(255, 255, 255));&quot;&gt;&lt;font style=&quot;color: rgb(255, 51, 153);&quot;&gt;Role Student:&lt;/font&gt;&lt;/b&gt;&lt;/div&gt;&lt;font style=&quot;font-size: 14px;&quot;&gt;&lt;div style=&quot;&quot;&gt;&lt;span style=&quot;background-color: transparent; color: light-dark(rgb(0, 0, 0), rgb(255, 255, 255));&quot;&gt;&lt;b&gt;- Quản lý tài khoản:&lt;/b&gt;&lt;/span&gt;&lt;/div&gt;&lt;div style=&quot;&quot;&gt;&lt;b&gt;- Học tập:&lt;/b&gt;&lt;/div&gt;&lt;div style=&quot;&quot;&gt;&lt;b&gt;- Điểm danh:&lt;/b&gt;&lt;/div&gt;&lt;div style=&quot;&quot;&gt;&lt;b&gt;- Tương tác:&lt;/b&gt;&lt;/div&gt;&lt;div style=&quot;&quot;&gt;&lt;b&gt;- Kiểm tra:&lt;/b&gt;&lt;/div&gt;&lt;div style=&quot;&quot;&gt;&lt;b&gt;- Theo dõi tiến độ:&lt;/b&gt;&lt;/div&gt;&lt;div style=&quot;&quot;&gt;&lt;b&gt;- Thanh toán:&lt;/b&gt;&lt;/div&gt;&lt;/font&gt;" style="rounded=0;whiteSpace=wrap;html=1;align=left;" vertex="1" parent="1">
          <mxGeometry x="-6290" y="1540" width="150" height="170" as="geometry" />
        </mxCell>
        <mxCell id="MS7olFMDDa0M2ojFL7Bc-3" value="&lt;div style=&quot;text-align: center;&quot;&gt;&lt;b style=&quot;font-size: 14px; background-color: transparent;&quot;&gt;&lt;font style=&quot;color: light-dark(rgb(0, 0, 153), rgb(255, 255, 255));&quot;&gt;Role Teacher:&lt;/font&gt;&lt;/b&gt;&lt;/div&gt;&lt;font style=&quot;font-size: 14px;&quot;&gt;&lt;div style=&quot;&quot;&gt;&lt;span style=&quot;background-color: transparent; color: light-dark(rgb(0, 0, 0), rgb(255, 255, 255));&quot;&gt;&lt;b&gt;- Quản lý tài khoản:&lt;/b&gt;&lt;/span&gt;&lt;/div&gt;&lt;div style=&quot;&quot;&gt;&lt;b&gt;- Quản lý lớp học:&lt;/b&gt;&lt;span style=&quot;background-color: transparent; color: light-dark(rgb(0, 0, 0), rgb(255, 255, 255));&quot;&gt;&lt;b&gt;&lt;/b&gt;&lt;/span&gt;&lt;/div&gt;&lt;div style=&quot;&quot;&gt;&lt;span style=&quot;background-color: transparent; color: light-dark(rgb(0, 0, 0), rgb(255, 255, 255));&quot;&gt;&lt;b&gt;- Giảng dạy:&lt;/b&gt;&lt;/span&gt;&lt;/div&gt;&lt;div style=&quot;&quot;&gt;&lt;span style=&quot;background-color: transparent; color: light-dark(rgb(0, 0, 0), rgb(255, 255, 255));&quot;&gt;&lt;b&gt;- Đánh giá:&lt;/b&gt;&lt;/span&gt;&lt;/div&gt;&lt;div style=&quot;&quot;&gt;&lt;span style=&quot;background-color: transparent; color: light-dark(rgb(0, 0, 0), rgb(255, 255, 255));&quot;&gt;&lt;b&gt;- Tương tác:&lt;/b&gt;&lt;/span&gt;&lt;/div&gt;&lt;div style=&quot;&quot;&gt;&lt;span style=&quot;background-color: transparent; color: light-dark(rgb(0, 0, 0), rgb(255, 255, 255));&quot;&gt;&lt;b&gt;- Phân tích tiến độ học viên:&lt;/b&gt;&lt;/span&gt;&lt;/div&gt;&lt;div style=&quot;&quot;&gt;&lt;b&gt;- Giám sát thi:&lt;/b&gt;&lt;/div&gt;&lt;/font&gt;" style="rounded=0;whiteSpace=wrap;html=1;align=left;" vertex="1" parent="1">
          <mxGeometry x="-6100" y="1540" width="160" height="200" as="geometry" />
        </mxCell>
        <mxCell id="MS7olFMDDa0M2ojFL7Bc-5" value="&lt;div style=&quot;text-align: center;&quot;&gt;&lt;b style=&quot;font-size: 14px; background-color: transparent;&quot;&gt;&lt;font style=&quot;color: light-dark(rgb(204, 0, 0), rgb(255, 255, 255));&quot;&gt;Role Admin:&lt;/font&gt;&lt;/b&gt;&lt;/div&gt;&lt;font style=&quot;font-size: 14px;&quot;&gt;&lt;div style=&quot;&quot;&gt;&lt;span style=&quot;background-color: transparent; color: light-dark(rgb(0, 0, 0), rgb(255, 255, 255));&quot;&gt;&lt;b&gt;- Quản lý tài khoản:&lt;/b&gt;&lt;/span&gt;&lt;/div&gt;&lt;div style=&quot;&quot;&gt;&lt;b&gt;- Quản lý người dùng:&lt;/b&gt;&lt;span style=&quot;background-color: transparent; color: light-dark(rgb(0, 0, 0), rgb(255, 255, 255));&quot;&gt;&lt;b&gt;&lt;/b&gt;&lt;/span&gt;&lt;/div&gt;&lt;div style=&quot;&quot;&gt;&lt;b&gt;- Quản lý chương trình:&lt;/b&gt;&lt;/div&gt;&lt;div style=&quot;&quot;&gt;&lt;b&gt;- Quản lý lớp học:&lt;/b&gt;&lt;/div&gt;&lt;div style=&quot;&quot;&gt;&lt;b&gt;- Quản lý học tập:&lt;/b&gt;&lt;/div&gt;&lt;div style=&quot;&quot;&gt;&lt;b&gt;- Quản lý đánh giá:&lt;/b&gt;&lt;/div&gt;&lt;div style=&quot;&quot;&gt;&lt;b&gt;- Quản lý tài chính:&lt;/b&gt;&lt;/div&gt;&lt;div style=&quot;&quot;&gt;&lt;b&gt;- Phân tích và báo cáo:&lt;/b&gt;&lt;/div&gt;&lt;div style=&quot;&quot;&gt;&lt;b&gt;- Thông báo:&lt;/b&gt;&lt;/div&gt;&lt;/font&gt;" style="rounded=0;whiteSpace=wrap;html=1;align=left;" vertex="1" parent="1">
          <mxGeometry x="-5900" y="1540" width="160" height="200" as="geometry" />
        </mxCell>
        <mxCell id="MS7olFMDDa0M2ojFL7Bc-6" value="Chức năng chính" style="shape=umlFrame;whiteSpace=wrap;html=1;pointerEvents=0;width=120;height=30;fillColor=#fff2cc;strokeColor=#d6b656;" vertex="1" parent="1">
          <mxGeometry x="-6390" y="1460" width="760" height="350" as="geometry" />
        </mxCell>
        <mxCell id="dHNzoLcERIJZqX13L5r_-1" value="&lt;div&gt;Quản lý Hệ thống Học tập&lt;/div&gt;" style="rounded=0;whiteSpace=wrap;html=1;" vertex="1" parent="1">
          <mxGeometry x="-4560" y="480" width="200" height="80" as="geometry" />
        </mxCell>
        <mxCell id="dHNzoLcERIJZqX13L5r_-2" value="" style="endArrow=none;html=1;rounded=0;entryX=0.5;entryY=1;entryDx=0;entryDy=0;" edge="1" parent="1" target="dHNzoLcERIJZqX13L5r_-1">
          <mxGeometry width="50" height="50" relative="1" as="geometry">
            <mxPoint x="-4460" y="600" as="sourcePoint" />
            <mxPoint x="-4460" y="590" as="targetPoint" />
          </mxGeometry>
        </mxCell>
        <mxCell id="dHNzoLcERIJZqX13L5r_-3" value="&lt;div&gt;Quản lý Người dùng&lt;/div&gt;" style="rounded=0;whiteSpace=wrap;html=1;" vertex="1" parent="1">
          <mxGeometry x="-5240" y="640" width="160" height="60" as="geometry" />
        </mxCell>
        <mxCell id="dHNzoLcERIJZqX13L5r_-4" value="&lt;div&gt;Quản lý Khóa học&lt;/div&gt;" style="rounded=0;whiteSpace=wrap;html=1;" vertex="1" parent="1">
          <mxGeometry x="-5040" y="640" width="160" height="60" as="geometry" />
        </mxCell>
        <mxCell id="dHNzoLcERIJZqX13L5r_-5" value="&lt;div&gt;Quản lý Nội dung&lt;/div&gt;" style="rounded=0;whiteSpace=wrap;html=1;" vertex="1" parent="1">
          <mxGeometry x="-4840" y="640" width="160" height="60" as="geometry" />
        </mxCell>
        <mxCell id="dHNzoLcERIJZqX13L5r_-6" value="&lt;div&gt;Quản lý Đánh giá&lt;/div&gt;" style="rounded=0;whiteSpace=wrap;html=1;" vertex="1" parent="1">
          <mxGeometry x="-4640" y="640" width="160" height="60" as="geometry" />
        </mxCell>
        <mxCell id="dHNzoLcERIJZqX13L5r_-7" value="&lt;div&gt;Quản lý Tương tác&lt;/div&gt;" style="rounded=0;whiteSpace=wrap;html=1;" vertex="1" parent="1">
          <mxGeometry x="-4440" y="640" width="160" height="60" as="geometry" />
        </mxCell>
        <mxCell id="dHNzoLcERIJZqX13L5r_-8" value="&lt;div&gt;Quản lý Điểm danh&lt;/div&gt;" style="rounded=0;whiteSpace=wrap;html=1;" vertex="1" parent="1">
          <mxGeometry x="-4240" y="640" width="160" height="60" as="geometry" />
        </mxCell>
        <mxCell id="dHNzoLcERIJZqX13L5r_-9" value="&lt;div&gt;Báo cáo và Phân tích&lt;/div&gt;" style="rounded=0;whiteSpace=wrap;html=1;" vertex="1" parent="1">
          <mxGeometry x="-3840" y="640" width="160" height="60" as="geometry" />
        </mxCell>
        <mxCell id="dHNzoLcERIJZqX13L5r_-10" value="&lt;div&gt;Quản lý Thanh toán&lt;/div&gt;" style="rounded=0;whiteSpace=wrap;html=1;" vertex="1" parent="1">
          <mxGeometry x="-4040" y="640" width="160" height="60" as="geometry" />
        </mxCell>
        <mxCell id="dHNzoLcERIJZqX13L5r_-11" value="" style="endArrow=none;html=1;rounded=0;entryX=0.5;entryY=1;entryDx=0;entryDy=0;" edge="1" parent="1" target="dHNzoLcERIJZqX13L5r_-4">
          <mxGeometry width="50" height="50" relative="1" as="geometry">
            <mxPoint x="-4960" y="1040" as="sourcePoint" />
            <mxPoint x="-4910" y="740" as="targetPoint" />
          </mxGeometry>
        </mxCell>
        <mxCell id="rhBjP45D6UoDsy54cdQU-1" value="users" style="swimlane;childLayout=stackLayout;horizontal=1;startSize=50;horizontalStack=0;rounded=1;fontSize=14;fontStyle=0;strokeWidth=2;resizeParent=0;resizeLast=1;shadow=0;dashed=0;align=center;arcSize=4;whiteSpace=wrap;html=1;" vertex="1" parent="1">
          <mxGeometry x="-8770" y="585" width="320" height="205" as="geometry" />
        </mxCell>
        <mxCell id="rhBjP45D6UoDsy54cdQU-2" value="&lt;div&gt;&lt;span style=&quot;background-color: light-dark(#ffffff, var(--ge-dark-color, #121212));&quot;&gt;&lt;font&gt;+ id:&amp;nbsp;&lt;/font&gt;&lt;/span&gt;&lt;/div&gt;&lt;span style=&quot;background-color: light-dark(#ffffff, var(--ge-dark-color, #121212));&quot;&gt;&lt;font&gt;+ user_id: uuid [pk]&lt;/font&gt;&lt;/span&gt;&lt;div&gt;&lt;div&gt;&lt;/div&gt;&lt;/div&gt;&lt;div&gt;&lt;span style=&quot;background-color: light-dark(#ffffff, var(--ge-dark-color, #121212));&quot;&gt;&lt;font&gt;+ username: varchar [ unique, not null ]&lt;/font&gt;&lt;/span&gt;&lt;/div&gt;&lt;div&gt;&lt;span style=&quot;background-color: light-dark(#ffffff, var(--ge-dark-color, #121212));&quot;&gt;&lt;font&gt;+ email:&amp;nbsp; varchar [ unique, not null ]&lt;/font&gt;&lt;/span&gt;&lt;/div&gt;&lt;div&gt;&lt;span style=&quot;background-color: light-dark(#ffffff, var(--ge-dark-color, #121212));&quot;&gt;&lt;font&gt;+ password: varchar [ not null ]&lt;/font&gt;&lt;/span&gt;&lt;/div&gt;&lt;div&gt;&lt;span style=&quot;background-color: light-dark(#ffffff, var(--ge-dark-color, #121212));&quot;&gt;&lt;font&gt;+ role: varchar&amp;nbsp; [ not null ]&amp;nbsp;&lt;/font&gt;&lt;/span&gt;&lt;/div&gt;&lt;div&gt;&lt;span style=&quot;background-color: light-dark(#ffffff, var(--ge-dark-color, #121212));&quot;&gt;&lt;font&gt;+ created_at: timestamp [ default: `now()` ]&lt;/font&gt;&lt;/span&gt;&lt;/div&gt;&lt;div&gt;&lt;span style=&quot;background-color: light-dark(#ffffff, var(--ge-dark-color, #121212));&quot;&gt;&lt;font&gt;+ updated_at: timestamp [ default: `now()` ]&lt;/font&gt;&lt;/span&gt;&lt;/div&gt;&lt;div&gt;&lt;span style=&quot;background-color: light-dark(#ffffff, var(--ge-dark-color, #121212));&quot;&gt;&lt;font&gt;&lt;br&gt;&lt;/font&gt;&lt;/span&gt;&lt;/div&gt;" style="align=left;strokeColor=none;fillColor=none;spacingLeft=4;fontSize=14;verticalAlign=top;resizable=0;rotatable=0;part=1;html=1;" vertex="1" parent="rhBjP45D6UoDsy54cdQU-1">
          <mxGeometry y="50" width="320" height="155" as="geometry" />
        </mxCell>
        <mxCell id="rhBjP45D6UoDsy54cdQU-3" value="user_profiles" style="swimlane;childLayout=stackLayout;horizontal=1;startSize=50;horizontalStack=0;rounded=1;fontSize=14;fontStyle=0;strokeWidth=2;resizeParent=0;resizeLast=1;shadow=0;dashed=0;align=center;arcSize=4;whiteSpace=wrap;html=1;" vertex="1" parent="1">
          <mxGeometry x="-8360" y="600" width="320" height="190" as="geometry" />
        </mxCell>
        <mxCell id="rhBjP45D6UoDsy54cdQU-4" value="&lt;span style=&quot;background-color: light-dark(#ffffff, var(--ge-dark-color, #121212));&quot;&gt;&lt;font&gt;+ user_id: uuid [pk]&lt;/font&gt;&lt;/span&gt;&lt;div&gt;&lt;div&gt;&lt;/div&gt;&lt;/div&gt;&lt;div&gt;&lt;span style=&quot;background-color: light-dark(#ffffff, var(--ge-dark-color, #121212));&quot;&gt;&lt;font&gt;+ username: varchar [ unique, not null ]&lt;/font&gt;&lt;/span&gt;&lt;/div&gt;&lt;div&gt;&lt;span style=&quot;background-color: light-dark(#ffffff, var(--ge-dark-color, #121212));&quot;&gt;&lt;font&gt;+ email:&amp;nbsp; varchar [ unique, not null ]&lt;/font&gt;&lt;/span&gt;&lt;/div&gt;&lt;div&gt;&lt;span style=&quot;background-color: light-dark(#ffffff, var(--ge-dark-color, #121212));&quot;&gt;&lt;font&gt;+ password: varchar [ not null ]&lt;/font&gt;&lt;/span&gt;&lt;/div&gt;&lt;div&gt;&lt;span style=&quot;background-color: light-dark(#ffffff, var(--ge-dark-color, #121212));&quot;&gt;&lt;font&gt;+ role: varchar&amp;nbsp; [ not null ]&amp;nbsp;&lt;/font&gt;&lt;/span&gt;&lt;/div&gt;&lt;div&gt;&lt;span style=&quot;background-color: light-dark(#ffffff, var(--ge-dark-color, #121212));&quot;&gt;&lt;font&gt;+ created_at: timestamp [ default: `now()` ]&lt;/font&gt;&lt;/span&gt;&lt;/div&gt;&lt;div&gt;&lt;span style=&quot;background-color: light-dark(#ffffff, var(--ge-dark-color, #121212));&quot;&gt;&lt;font&gt;+ updated_at: timestamp [ default: `now()` ]&lt;/font&gt;&lt;/span&gt;&lt;/div&gt;&lt;div&gt;&lt;span style=&quot;background-color: light-dark(#ffffff, var(--ge-dark-color, #121212));&quot;&gt;&lt;font&gt;&lt;br&gt;&lt;/font&gt;&lt;/span&gt;&lt;/div&gt;" style="align=left;strokeColor=none;fillColor=none;spacingLeft=4;fontSize=14;verticalAlign=top;resizable=0;rotatable=0;part=1;html=1;" vertex="1" parent="rhBjP45D6UoDsy54cdQU-3">
          <mxGeometry y="50" width="320" height="140" as="geometry" />
        </mxCell>
        <mxCell id="Azj_B5enKPVXK59vIyw5-1" value="Phân cấp tổ chức" style="rounded=0;whiteSpace=wrap;html=1;" vertex="1" parent="1">
          <mxGeometry x="-8360" y="-1880" width="120" height="60" as="geometry" />
        </mxCell>
        <mxCell id="Azj_B5enKPVXK59vIyw5-2" value="Trường học" style="rounded=0;whiteSpace=wrap;html=1;" vertex="1" parent="1">
          <mxGeometry x="-8360" y="-1760" width="120" height="60" as="geometry" />
        </mxCell>
        <mxCell id="Azj_B5enKPVXK59vIyw5-3" value="Khoa A" style="rounded=0;whiteSpace=wrap;html=1;" vertex="1" parent="1">
          <mxGeometry x="-8750" y="-1640" width="120" height="60" as="geometry" />
        </mxCell>
        <mxCell id="Azj_B5enKPVXK59vIyw5-4" value="Khoa B" style="rounded=0;whiteSpace=wrap;html=1;" vertex="1" parent="1">
          <mxGeometry x="-8380" y="-1650" width="120" height="60" as="geometry" />
        </mxCell>
        <mxCell id="Azj_B5enKPVXK59vIyw5-5" value="Khoa C" style="rounded=0;whiteSpace=wrap;html=1;" vertex="1" parent="1">
          <mxGeometry x="-8220" y="-1650" width="120" height="60" as="geometry" />
        </mxCell>
        <mxCell id="Azj_B5enKPVXK59vIyw5-6" value="Khoa D" style="rounded=0;whiteSpace=wrap;html=1;" vertex="1" parent="1">
          <mxGeometry x="-8050" y="-1650" width="120" height="60" as="geometry" />
        </mxCell>
        <mxCell id="Azj_B5enKPVXK59vIyw5-7" value="Lớp quản lý 1 ( Offline )" style="rounded=0;whiteSpace=wrap;html=1;" vertex="1" parent="1">
          <mxGeometry x="-8950" y="-1550" width="120" height="60" as="geometry" />
        </mxCell>
        <mxCell id="Azj_B5enKPVXK59vIyw5-8" value="Lớp quản lý 3 ( Offline )" style="rounded=0;whiteSpace=wrap;html=1;" vertex="1" parent="1">
          <mxGeometry x="-8380" y="-1550" width="120" height="60" as="geometry" />
        </mxCell>
        <mxCell id="Azj_B5enKPVXK59vIyw5-9" value="Lớp quản lý 2 ( Online )" style="rounded=0;whiteSpace=wrap;html=1;" vertex="1" parent="1">
          <mxGeometry x="-8800" y="-1550" width="120" height="60" as="geometry" />
        </mxCell>
        <mxCell id="Azj_B5enKPVXK59vIyw5-10" value="Lớp quản lý 4 ( Online )" style="rounded=0;whiteSpace=wrap;html=1;" vertex="1" parent="1">
          <mxGeometry x="-8220" y="-1550" width="120" height="60" as="geometry" />
        </mxCell>
        <mxCell id="Azj_B5enKPVXK59vIyw5-11" value="Lớp quản lý 5 ( Offline )" style="rounded=0;whiteSpace=wrap;html=1;" vertex="1" parent="1">
          <mxGeometry x="-8050" y="-1550" width="120" height="60" as="geometry" />
        </mxCell>
        <mxCell id="Azj_B5enKPVXK59vIyw5-12" value="" style="endArrow=classic;html=1;rounded=0;exitX=0.5;exitY=1;exitDx=0;exitDy=0;entryX=0.5;entryY=0;entryDx=0;entryDy=0;" edge="1" parent="1" source="Azj_B5enKPVXK59vIyw5-1" target="Azj_B5enKPVXK59vIyw5-2">
          <mxGeometry width="50" height="50" relative="1" as="geometry">
            <mxPoint x="-8410" y="-1750" as="sourcePoint" />
            <mxPoint x="-8360" y="-1800" as="targetPoint" />
          </mxGeometry>
        </mxCell>
        <mxCell id="Azj_B5enKPVXK59vIyw5-13" value="" style="endArrow=classic;html=1;rounded=0;exitX=0.25;exitY=1;exitDx=0;exitDy=0;entryX=0.431;entryY=-0.014;entryDx=0;entryDy=0;entryPerimeter=0;" edge="1" parent="1" source="Azj_B5enKPVXK59vIyw5-2" target="Azj_B5enKPVXK59vIyw5-3">
          <mxGeometry width="50" height="50" relative="1" as="geometry">
            <mxPoint x="-8810" y="-1560" as="sourcePoint" />
            <mxPoint x="-8530" y="-1650" as="targetPoint" />
          </mxGeometry>
        </mxCell>
        <mxCell id="Azj_B5enKPVXK59vIyw5-14" value="" style="endArrow=classic;html=1;rounded=0;exitX=0.469;exitY=1.005;exitDx=0;exitDy=0;exitPerimeter=0;entryX=0.454;entryY=-0.027;entryDx=0;entryDy=0;entryPerimeter=0;" edge="1" parent="1" source="Azj_B5enKPVXK59vIyw5-2" target="Azj_B5enKPVXK59vIyw5-4">
          <mxGeometry width="50" height="50" relative="1" as="geometry">
            <mxPoint x="-8400" y="-1600" as="sourcePoint" />
            <mxPoint x="-8350" y="-1650" as="targetPoint" />
          </mxGeometry>
        </mxCell>
        <mxCell id="Azj_B5enKPVXK59vIyw5-15" value="" style="endArrow=classic;html=1;rounded=0;exitX=0.787;exitY=1.005;exitDx=0;exitDy=0;exitPerimeter=0;entryX=0.279;entryY=-0.003;entryDx=0;entryDy=0;entryPerimeter=0;" edge="1" parent="1" source="Azj_B5enKPVXK59vIyw5-2" target="Azj_B5enKPVXK59vIyw5-5">
          <mxGeometry width="50" height="50" relative="1" as="geometry">
            <mxPoint x="-8250" y="-1640" as="sourcePoint" />
            <mxPoint x="-8200" y="-1690" as="targetPoint" />
          </mxGeometry>
        </mxCell>
        <mxCell id="Azj_B5enKPVXK59vIyw5-16" value="" style="endArrow=classic;html=1;rounded=0;exitX=0.938;exitY=1.021;exitDx=0;exitDy=0;exitPerimeter=0;entryX=0.088;entryY=-0.043;entryDx=0;entryDy=0;entryPerimeter=0;" edge="1" parent="1" source="Azj_B5enKPVXK59vIyw5-2" target="Azj_B5enKPVXK59vIyw5-6">
          <mxGeometry width="50" height="50" relative="1" as="geometry">
            <mxPoint x="-8160" y="-1650" as="sourcePoint" />
            <mxPoint x="-8110" y="-1700" as="targetPoint" />
          </mxGeometry>
        </mxCell>
        <mxCell id="Azj_B5enKPVXK59vIyw5-17" value="" style="endArrow=classic;html=1;rounded=0;exitX=0.25;exitY=1;exitDx=0;exitDy=0;entryX=0.5;entryY=0;entryDx=0;entryDy=0;" edge="1" parent="1" source="Azj_B5enKPVXK59vIyw5-3" target="Azj_B5enKPVXK59vIyw5-7">
          <mxGeometry width="50" height="50" relative="1" as="geometry">
            <mxPoint x="-8650" y="-1440" as="sourcePoint" />
            <mxPoint x="-8600" y="-1490" as="targetPoint" />
          </mxGeometry>
        </mxCell>
        <mxCell id="Azj_B5enKPVXK59vIyw5-18" value="" style="endArrow=classic;html=1;rounded=0;exitX=0.699;exitY=1.007;exitDx=0;exitDy=0;exitPerimeter=0;entryX=0.335;entryY=0.007;entryDx=0;entryDy=0;entryPerimeter=0;" edge="1" parent="1" source="Azj_B5enKPVXK59vIyw5-3" target="Azj_B5enKPVXK59vIyw5-9">
          <mxGeometry width="50" height="50" relative="1" as="geometry">
            <mxPoint x="-8670" y="-1530" as="sourcePoint" />
            <mxPoint x="-8620" y="-1580" as="targetPoint" />
          </mxGeometry>
        </mxCell>
        <mxCell id="Azj_B5enKPVXK59vIyw5-19" value="" style="endArrow=classic;html=1;rounded=0;exitX=0.435;exitY=0.998;exitDx=0;exitDy=0;exitPerimeter=0;" edge="1" parent="1" source="Azj_B5enKPVXK59vIyw5-4" target="Azj_B5enKPVXK59vIyw5-8">
          <mxGeometry width="50" height="50" relative="1" as="geometry">
            <mxPoint x="-8390" y="-1430" as="sourcePoint" />
            <mxPoint x="-8340" y="-1480" as="targetPoint" />
          </mxGeometry>
        </mxCell>
        <mxCell id="Azj_B5enKPVXK59vIyw5-20" value="" style="endArrow=classic;html=1;rounded=0;exitX=0.535;exitY=1.007;exitDx=0;exitDy=0;exitPerimeter=0;entryX=0.539;entryY=0.017;entryDx=0;entryDy=0;entryPerimeter=0;" edge="1" parent="1" source="Azj_B5enKPVXK59vIyw5-5" target="Azj_B5enKPVXK59vIyw5-10">
          <mxGeometry width="50" height="50" relative="1" as="geometry">
            <mxPoint x="-8240" y="-1530" as="sourcePoint" />
            <mxPoint x="-8190" y="-1580" as="targetPoint" />
          </mxGeometry>
        </mxCell>
        <mxCell id="Azj_B5enKPVXK59vIyw5-21" value="" style="endArrow=classic;html=1;rounded=0;exitX=0.456;exitY=1.017;exitDx=0;exitDy=0;exitPerimeter=0;entryX=0.5;entryY=0;entryDx=0;entryDy=0;" edge="1" parent="1" source="Azj_B5enKPVXK59vIyw5-6" target="Azj_B5enKPVXK59vIyw5-11">
          <mxGeometry width="50" height="50" relative="1" as="geometry">
            <mxPoint x="-7890" y="-1530" as="sourcePoint" />
            <mxPoint x="-7840" y="-1580" as="targetPoint" />
          </mxGeometry>
        </mxCell>
        <mxCell id="Azj_B5enKPVXK59vIyw5-22" value="Lớp Python ( Online )" style="rounded=0;whiteSpace=wrap;html=1;" vertex="1" parent="1">
          <mxGeometry x="-8660" y="-1550" width="120" height="60" as="geometry" />
        </mxCell>
        <mxCell id="Azj_B5enKPVXK59vIyw5-24" value="" style="endArrow=classic;html=1;rounded=0;exitX=0.75;exitY=1;exitDx=0;exitDy=0;entryX=0.333;entryY=0;entryDx=0;entryDy=0;entryPerimeter=0;" edge="1" parent="1" source="Azj_B5enKPVXK59vIyw5-3" target="Azj_B5enKPVXK59vIyw5-22">
          <mxGeometry width="50" height="50" relative="1" as="geometry">
            <mxPoint x="-8610" y="-1520" as="sourcePoint" />
            <mxPoint x="-8560" y="-1570" as="targetPoint" />
          </mxGeometry>
        </mxCell>
        <mxCell id="Azj_B5enKPVXK59vIyw5-25" value="Lớp C++&amp;nbsp; ( Offline)" style="rounded=0;whiteSpace=wrap;html=1;" vertex="1" parent="1">
          <mxGeometry x="-8520" y="-1550" width="120" height="60" as="geometry" />
        </mxCell>
        <mxCell id="Azj_B5enKPVXK59vIyw5-27" value="" style="endArrow=classic;html=1;rounded=0;exitX=0.9;exitY=1.04;exitDx=0;exitDy=0;exitPerimeter=0;entryX=0.303;entryY=-0.033;entryDx=0;entryDy=0;entryPerimeter=0;" edge="1" parent="1" source="Azj_B5enKPVXK59vIyw5-3" target="Azj_B5enKPVXK59vIyw5-25">
          <mxGeometry width="50" height="50" relative="1" as="geometry">
            <mxPoint x="-8560" y="-1540" as="sourcePoint" />
            <mxPoint x="-8510" y="-1590" as="targetPoint" />
          </mxGeometry>
        </mxCell>
        <mxCell id="Azj_B5enKPVXK59vIyw5-28" value="Giáo viên 1" style="rounded=0;whiteSpace=wrap;html=1;" vertex="1" parent="1">
          <mxGeometry x="-8950" y="-1340" width="120" height="60" as="geometry" />
        </mxCell>
        <mxCell id="Azj_B5enKPVXK59vIyw5-29" value="Giáo viên 2" style="rounded=0;whiteSpace=wrap;html=1;" vertex="1" parent="1">
          <mxGeometry x="-8780" y="-1340" width="120" height="60" as="geometry" />
        </mxCell>
        <mxCell id="Azj_B5enKPVXK59vIyw5-30" value="Giáo viên 3" style="rounded=0;whiteSpace=wrap;html=1;" vertex="1" parent="1">
          <mxGeometry x="-8620" y="-1340" width="120" height="60" as="geometry" />
        </mxCell>
        <mxCell id="Azj_B5enKPVXK59vIyw5-31" value="Học sinh 1" style="rounded=0;whiteSpace=wrap;html=1;" vertex="1" parent="1">
          <mxGeometry x="-8440" y="-1250" width="120" height="60" as="geometry" />
        </mxCell>
        <mxCell id="Azj_B5enKPVXK59vIyw5-32" value="Học sinh 2" style="rounded=0;whiteSpace=wrap;html=1;" vertex="1" parent="1">
          <mxGeometry x="-8300" y="-1340" width="120" height="60" as="geometry" />
        </mxCell>
        <mxCell id="Azj_B5enKPVXK59vIyw5-33" value="Học sinh 3" style="rounded=0;whiteSpace=wrap;html=1;" vertex="1" parent="1">
          <mxGeometry x="-8150" y="-1340" width="120" height="60" as="geometry" />
        </mxCell>
        <mxCell id="Azj_B5enKPVXK59vIyw5-34" value="" style="endArrow=classic;html=1;rounded=0;exitX=0.25;exitY=0;exitDx=0;exitDy=0;entryX=0.45;entryY=1.033;entryDx=0;entryDy=0;entryPerimeter=0;" edge="1" parent="1" source="Azj_B5enKPVXK59vIyw5-28" target="Azj_B5enKPVXK59vIyw5-7">
          <mxGeometry width="50" height="50" relative="1" as="geometry">
            <mxPoint x="-8950" y="-1350" as="sourcePoint" />
            <mxPoint x="-8900" y="-1400" as="targetPoint" />
          </mxGeometry>
        </mxCell>
        <mxCell id="Azj_B5enKPVXK59vIyw5-35" value="Mỗi giáo viên quản lý&amp;nbsp;&lt;div&gt;1 lớp quản lý ( chủ nhiệm )&lt;/div&gt;" style="edgeLabel;html=1;align=center;verticalAlign=middle;resizable=0;points=[];" connectable="0" vertex="1" parent="Azj_B5enKPVXK59vIyw5-34">
          <mxGeometry x="-0.0507" y="-2" relative="1" as="geometry">
            <mxPoint as="offset" />
          </mxGeometry>
        </mxCell>
        <mxCell id="Azj_B5enKPVXK59vIyw5-36" value="" style="endArrow=classic;html=1;rounded=0;exitX=0.5;exitY=0;exitDx=0;exitDy=0;entryX=0.442;entryY=1.05;entryDx=0;entryDy=0;entryPerimeter=0;" edge="1" parent="1" source="Azj_B5enKPVXK59vIyw5-29" target="Azj_B5enKPVXK59vIyw5-9">
          <mxGeometry width="50" height="50" relative="1" as="geometry">
            <mxPoint x="-8720" y="-1350" as="sourcePoint" />
            <mxPoint x="-8670" y="-1400" as="targetPoint" />
          </mxGeometry>
        </mxCell>
        <mxCell id="Azj_B5enKPVXK59vIyw5-37" value="Mỗi giáo viên quản lý&amp;nbsp;&lt;div&gt;1 lớp quản lý ( chủ nhiệm )&lt;/div&gt;" style="edgeLabel;html=1;align=center;verticalAlign=middle;resizable=0;points=[];" connectable="0" vertex="1" parent="Azj_B5enKPVXK59vIyw5-36">
          <mxGeometry x="0.0497" y="1" relative="1" as="geometry">
            <mxPoint as="offset" />
          </mxGeometry>
        </mxCell>
        <mxCell id="Azj_B5enKPVXK59vIyw5-38" value="" style="endArrow=classic;html=1;rounded=0;exitX=0.5;exitY=0;exitDx=0;exitDy=0;entryX=0.608;entryY=1.017;entryDx=0;entryDy=0;entryPerimeter=0;" edge="1" parent="1" source="Azj_B5enKPVXK59vIyw5-30" target="Azj_B5enKPVXK59vIyw5-8">
          <mxGeometry width="50" height="50" relative="1" as="geometry">
            <mxPoint x="-8550" y="-1380" as="sourcePoint" />
            <mxPoint x="-8500" y="-1430" as="targetPoint" />
          </mxGeometry>
        </mxCell>
        <mxCell id="Azj_B5enKPVXK59vIyw5-39" value="Mỗi giáo viên quản lý&amp;nbsp;&lt;div&gt;1 lớp quản lý ( chủ nhiệm )&lt;/div&gt;" style="edgeLabel;html=1;align=center;verticalAlign=middle;resizable=0;points=[];" connectable="0" vertex="1" parent="Azj_B5enKPVXK59vIyw5-38">
          <mxGeometry x="0.0338" y="3" relative="1" as="geometry">
            <mxPoint as="offset" />
          </mxGeometry>
        </mxCell>
        <mxCell id="Azj_B5enKPVXK59vIyw5-40" value="" style="endArrow=classic;html=1;rounded=0;exitX=0.5;exitY=0;exitDx=0;exitDy=0;entryX=0.5;entryY=1;entryDx=0;entryDy=0;" edge="1" parent="1" source="Azj_B5enKPVXK59vIyw5-28" target="Azj_B5enKPVXK59vIyw5-22">
          <mxGeometry width="50" height="50" relative="1" as="geometry">
            <mxPoint x="-8860" y="-1340" as="sourcePoint" />
            <mxPoint x="-8810" y="-1390" as="targetPoint" />
            <Array as="points">
              <mxPoint x="-8600" y="-1380" />
            </Array>
          </mxGeometry>
        </mxCell>
        <mxCell id="Azj_B5enKPVXK59vIyw5-41" value="Mỗi giáo viên có thể dạy nhiều môn học" style="edgeLabel;html=1;align=center;verticalAlign=middle;resizable=0;points=[];" connectable="0" vertex="1" parent="Azj_B5enKPVXK59vIyw5-40">
          <mxGeometry x="0.3133" relative="1" as="geometry">
            <mxPoint x="8" y="-4" as="offset" />
          </mxGeometry>
        </mxCell>
        <mxCell id="Azj_B5enKPVXK59vIyw5-42" value="" style="endArrow=classic;html=1;rounded=0;exitX=0.75;exitY=0;exitDx=0;exitDy=0;entryX=0.617;entryY=1.033;entryDx=0;entryDy=0;entryPerimeter=0;" edge="1" parent="1" source="Azj_B5enKPVXK59vIyw5-28" target="Azj_B5enKPVXK59vIyw5-25">
          <mxGeometry width="50" height="50" relative="1" as="geometry">
            <mxPoint x="-8860" y="-1350" as="sourcePoint" />
            <mxPoint x="-8810" y="-1400" as="targetPoint" />
            <Array as="points">
              <mxPoint x="-8540" y="-1440" />
            </Array>
          </mxGeometry>
        </mxCell>
        <mxCell id="Azj_B5enKPVXK59vIyw5-43" value="Mỗi giáo viên có thể dạy nhiều môn học" style="edgeLabel;html=1;align=center;verticalAlign=middle;resizable=0;points=[];" connectable="0" vertex="1" parent="Azj_B5enKPVXK59vIyw5-42">
          <mxGeometry x="0.4016" y="3" relative="1" as="geometry">
            <mxPoint x="6" y="-15" as="offset" />
          </mxGeometry>
        </mxCell>
        <mxCell id="Azj_B5enKPVXK59vIyw5-44" value="" style="endArrow=classic;html=1;rounded=0;exitX=0.6;exitY=0;exitDx=0;exitDy=0;exitPerimeter=0;entryX=0.5;entryY=1;entryDx=0;entryDy=0;" edge="1" parent="1" source="Azj_B5enKPVXK59vIyw5-31" target="Azj_B5enKPVXK59vIyw5-10">
          <mxGeometry width="50" height="50" relative="1" as="geometry">
            <mxPoint x="-8340" y="-1350" as="sourcePoint" />
            <mxPoint x="-8290" y="-1400" as="targetPoint" />
          </mxGeometry>
        </mxCell>
        <mxCell id="Azj_B5enKPVXK59vIyw5-45" value="Mỗi học sinh thuộc về&amp;nbsp;&lt;div&gt;1 lớp quản lý&lt;/div&gt;" style="edgeLabel;html=1;align=center;verticalAlign=middle;resizable=0;points=[];" connectable="0" vertex="1" parent="Azj_B5enKPVXK59vIyw5-44">
          <mxGeometry x="0.0019" y="-1" relative="1" as="geometry">
            <mxPoint y="1" as="offset" />
          </mxGeometry>
        </mxCell>
        <mxCell id="Azj_B5enKPVXK59vIyw5-46" value="" style="endArrow=classic;html=1;rounded=0;exitX=0.342;exitY=-0.017;exitDx=0;exitDy=0;exitPerimeter=0;entryX=0.358;entryY=1.05;entryDx=0;entryDy=0;entryPerimeter=0;" edge="1" parent="1" source="Azj_B5enKPVXK59vIyw5-31" target="Azj_B5enKPVXK59vIyw5-25">
          <mxGeometry width="50" height="50" relative="1" as="geometry">
            <mxPoint x="-8410" y="-1350" as="sourcePoint" />
            <mxPoint x="-8360" y="-1400" as="targetPoint" />
            <Array as="points">
              <mxPoint x="-8360" y="-1380" />
            </Array>
          </mxGeometry>
        </mxCell>
        <mxCell id="Azj_B5enKPVXK59vIyw5-47" value="Mỗi học sinh có thể&amp;nbsp;&lt;div&gt;học nhiều lớp học phần&lt;/div&gt;" style="edgeLabel;html=1;align=center;verticalAlign=middle;resizable=0;points=[];" connectable="0" vertex="1" parent="Azj_B5enKPVXK59vIyw5-46">
          <mxGeometry x="-0.5447" y="1" relative="1" as="geometry">
            <mxPoint x="1" as="offset" />
          </mxGeometry>
        </mxCell>
        <mxCell id="Azj_B5enKPVXK59vIyw5-50" value="" style="endArrow=classic;html=1;rounded=0;exitX=0.117;exitY=-0.05;exitDx=0;exitDy=0;exitPerimeter=0;entryX=0.575;entryY=1.05;entryDx=0;entryDy=0;entryPerimeter=0;" edge="1" parent="1" source="Azj_B5enKPVXK59vIyw5-31" target="Azj_B5enKPVXK59vIyw5-22">
          <mxGeometry width="50" height="50" relative="1" as="geometry">
            <mxPoint x="-8530" y="-1200" as="sourcePoint" />
            <mxPoint x="-8480" y="-1250" as="targetPoint" />
          </mxGeometry>
        </mxCell>
        <mxCell id="Azj_B5enKPVXK59vIyw5-51" value="Mỗi học sinh có thể&amp;nbsp;&lt;div&gt;học nhiều lớp học phần&lt;/div&gt;" style="edgeLabel;html=1;align=center;verticalAlign=middle;resizable=0;points=[];" connectable="0" vertex="1" parent="Azj_B5enKPVXK59vIyw5-50">
          <mxGeometry x="-0.3446" y="1" relative="1" as="geometry">
            <mxPoint x="21" y="-31" as="offset" />
          </mxGeometry>
        </mxCell>
      </root>
    </mxGraphModel>
  </diagram>
  <diagram id="uOOkUHUmHHC71eljStjI" name="Database">
    <mxGraphModel dx="17875" dy="4105" grid="1" gridSize="10" guides="1" tooltips="1" connect="1" arrows="1" fold="1" page="0" pageScale="1" pageWidth="3300" pageHeight="4681" math="0" shadow="0">
      <root>
        <mxCell id="0" />
        <mxCell id="1" parent="0" />
        <mxCell id="Ul3zSu1BYaa60VeHAMO2-1" value="Sinh viên" style="shape=umlActor;verticalLabelPosition=bottom;verticalAlign=top;html=1;" parent="1" vertex="1">
          <mxGeometry y="200" width="80" height="120" as="geometry" />
        </mxCell>
        <mxCell id="Ul3zSu1BYaa60VeHAMO2-4" value="Giảng viên" style="shape=umlActor;verticalLabelPosition=bottom;verticalAlign=top;html=1;" parent="1" vertex="1">
          <mxGeometry y="640" width="80" height="120" as="geometry" />
        </mxCell>
        <mxCell id="Ul3zSu1BYaa60VeHAMO2-5" value="Quản trị viên" style="shape=umlActor;verticalLabelPosition=bottom;verticalAlign=top;html=1;" parent="1" vertex="1">
          <mxGeometry y="1080" width="80" height="120" as="geometry" />
        </mxCell>
        <mxCell id="6eY6zue9w3DzlHH3J1nf-2" value="users" style="swimlane;childLayout=stackLayout;horizontal=1;startSize=50;horizontalStack=0;rounded=1;fontSize=14;fontStyle=0;strokeWidth=2;resizeParent=0;resizeLast=1;shadow=0;dashed=0;align=center;arcSize=4;whiteSpace=wrap;html=1;" parent="1" vertex="1">
          <mxGeometry x="-960" y="1680" width="440" height="250" as="geometry" />
        </mxCell>
        <mxCell id="6eY6zue9w3DzlHH3J1nf-3" value="&lt;span style=&quot;background-color: light-dark(#ffffff, var(--ge-dark-color, #121212));&quot;&gt;&lt;font&gt;+ user_id: uuid [pk]&lt;/font&gt;&lt;/span&gt;&lt;div&gt;&lt;div&gt;&lt;/div&gt;&lt;/div&gt;&lt;div&gt;&lt;span style=&quot;background-color: light-dark(#ffffff, var(--ge-dark-color, #121212));&quot;&gt;&lt;font&gt;+ username: varchar [ unique, not null ]&lt;/font&gt;&lt;/span&gt;&lt;/div&gt;&lt;div&gt;&lt;span style=&quot;background-color: light-dark(#ffffff, var(--ge-dark-color, #121212));&quot;&gt;&lt;font&gt;+ email:&amp;nbsp; varchar [ unique, not null ]&lt;/font&gt;&lt;/span&gt;&lt;/div&gt;&lt;div&gt;&lt;span style=&quot;background-color: light-dark(#ffffff, var(--ge-dark-color, #121212));&quot;&gt;&lt;font&gt;+ password: varchar [ not null ]&lt;/font&gt;&lt;/span&gt;&lt;/div&gt;&lt;div&gt;&lt;span style=&quot;background-color: light-dark(#ffffff, var(--ge-dark-color, #121212));&quot;&gt;&lt;font&gt;+ role: varchar&amp;nbsp; [ not null ] // &#39;admin&#39;, &#39;teacher&#39;, student&#39;&amp;nbsp;&lt;/font&gt;&lt;/span&gt;&lt;/div&gt;&lt;div&gt;&lt;span style=&quot;background-color: light-dark(#ffffff, var(--ge-dark-color, #121212));&quot;&gt;&lt;font&gt;+ created_at: timestamp [ default: `now()` ]&lt;/font&gt;&lt;/span&gt;&lt;/div&gt;&lt;div&gt;&lt;span style=&quot;background-color: light-dark(#ffffff, var(--ge-dark-color, #121212));&quot;&gt;&lt;font&gt;+ updated_at: timestamp [ default: `now()` ]&lt;/font&gt;&lt;/span&gt;&lt;/div&gt;&lt;div&gt;&lt;span style=&quot;background-color: light-dark(#ffffff, var(--ge-dark-color, #121212));&quot;&gt;&lt;font&gt;&lt;strike&gt;+ last_login: timestamp&lt;/strike&gt;&lt;/font&gt;&lt;/span&gt;&lt;/div&gt;&lt;div&gt;&lt;span style=&quot;background-color: rgb(255, 255, 255);&quot;&gt;&lt;strike&gt;+ status: varchar [default: `active`] // `active`, `inactive`, `suspended`&lt;/strike&gt;&lt;/span&gt;&lt;/div&gt;&lt;div&gt;&lt;span style=&quot;background-color: rgb(255, 255, 255);&quot;&gt;+ reset_token: varchar&lt;/span&gt;&lt;/div&gt;&lt;div&gt;&lt;span style=&quot;background-color: rgb(255, 255, 255);&quot;&gt;+ reset_token_expires: timestamp&lt;/span&gt;&lt;/div&gt;&lt;div&gt;&lt;span style=&quot;background-color: light-dark(#ffffff, var(--ge-dark-color, #121212));&quot;&gt;&lt;font&gt;&lt;br&gt;&lt;/font&gt;&lt;/span&gt;&lt;/div&gt;" style="align=left;strokeColor=none;fillColor=none;spacingLeft=4;fontSize=14;verticalAlign=top;resizable=0;rotatable=0;part=1;html=1;" parent="6eY6zue9w3DzlHH3J1nf-2" vertex="1">
          <mxGeometry y="50" width="440" height="200" as="geometry" />
        </mxCell>
        <mxCell id="6eY6zue9w3DzlHH3J1nf-9" value="user_profiles" style="swimlane;childLayout=stackLayout;horizontal=1;startSize=50;horizontalStack=0;rounded=1;fontSize=14;fontStyle=0;strokeWidth=2;resizeParent=0;resizeLast=1;shadow=0;dashed=0;align=center;arcSize=4;whiteSpace=wrap;html=1;" parent="1" vertex="1">
          <mxGeometry x="-360" y="1680" width="440" height="280" as="geometry" />
        </mxCell>
        <mxCell id="6eY6zue9w3DzlHH3J1nf-10" value="&lt;div&gt;&lt;span style=&quot;background-color: light-dark(#ffffff, var(--ge-dark-color, #121212));&quot;&gt;&lt;font&gt;+ profile_id: uuid [pk]&lt;/font&gt;&lt;/span&gt;&lt;/div&gt;&lt;span style=&quot;background-color: light-dark(#ffffff, var(--ge-dark-color, #121212));&quot;&gt;&lt;font&gt;+ user_id: uuid [pk]&lt;/font&gt;&lt;/span&gt;&lt;div&gt;&lt;div&gt;&lt;/div&gt;&lt;/div&gt;&lt;div&gt;&lt;span style=&quot;background-color: light-dark(#ffffff, var(--ge-dark-color, #121212));&quot;&gt;&lt;font&gt;+ full_name: varchar [ not null ]&lt;/font&gt;&lt;/span&gt;&lt;/div&gt;&lt;div&gt;&lt;span style=&quot;background-color: light-dark(#ffffff, var(--ge-dark-color, #121212));&quot;&gt;&lt;font&gt;+ address: varchar&lt;/font&gt;&lt;/span&gt;&lt;/div&gt;&lt;div&gt;&lt;span style=&quot;background-color: light-dark(#ffffff, var(--ge-dark-color, #121212));&quot;&gt;&lt;font&gt;+ phone: varchar&lt;/font&gt;&lt;/span&gt;&lt;/div&gt;&lt;div&gt;&lt;span style=&quot;background-color: light-dark(#ffffff, var(--ge-dark-color, #121212));&quot;&gt;&lt;font&gt;+ dob: date&lt;/font&gt;&lt;/span&gt;&lt;/div&gt;&lt;div&gt;&lt;span style=&quot;background-color: light-dark(#ffffff, var(--ge-dark-color, #121212));&quot;&gt;&lt;font&gt;+ gender: varchar&lt;/font&gt;&lt;/span&gt;&lt;/div&gt;&lt;div&gt;&lt;span style=&quot;background-color: rgb(255, 255, 255);&quot;&gt;+ profile_picture: varchar&lt;/span&gt;&lt;/div&gt;&lt;div&gt;&lt;span style=&quot;background-color: rgb(255, 255, 255);&quot;&gt;+&amp;nbsp;&lt;/span&gt;&lt;span style=&quot;background-color: transparent; color: light-dark(rgb(0, 0, 0), rgb(255, 255, 255));&quot;&gt;academic_title: varchar ( `giáo sư`, ` tiến sĩ `, ` thạc sĩ `,&amp;nbsp; .. )&lt;/span&gt;&lt;/div&gt;&lt;div&gt;&lt;span style=&quot;background-color: transparent; color: light-dark(rgb(0, 0, 0), rgb(255, 255, 255));&quot;&gt;+ department: varchar ( ` Khoa CNTT `, .. ) // Phòng/ban&lt;/span&gt;&lt;/div&gt;&lt;div&gt;&lt;span style=&quot;background-color: transparent; color: light-dark(rgb(0, 0, 0), rgb(255, 255, 255));&quot;&gt;+&amp;nbsp;&lt;/span&gt;&lt;span style=&quot;background-color: transparent; color: light-dark(rgb(0, 0, 0), rgb(255, 255, 255));&quot;&gt;academic_id: varchar ( ` SV2151163736 `, `GV123` ) // Mã số&lt;/span&gt;&lt;/div&gt;&lt;div&gt;&lt;span style=&quot;background-color: transparent; color: light-dark(rgb(0, 0, 0), rgb(255, 255, 255));&quot;&gt;+&amp;nbsp;&lt;/span&gt;&lt;span style=&quot;background-color: rgb(255, 255, 255); color: light-dark(rgb(0, 0, 0), rgb(255, 255, 255));&quot;&gt;created_at: timestamp [ default: `now()` ]&lt;/span&gt;&lt;/div&gt;&lt;div&gt;&lt;span style=&quot;background-color: rgb(255, 255, 255);&quot;&gt;+ updated_at: timestamp [ default: `now()` ]&lt;/span&gt;&lt;/div&gt;&lt;div&gt;&lt;span style=&quot;background-color: light-dark(#ffffff, var(--ge-dark-color, #121212));&quot;&gt;&lt;font&gt;&lt;br&gt;&lt;/font&gt;&lt;/span&gt;&lt;/div&gt;" style="align=left;strokeColor=none;fillColor=none;spacingLeft=4;fontSize=14;verticalAlign=top;resizable=0;rotatable=0;part=1;html=1;" parent="6eY6zue9w3DzlHH3J1nf-9" vertex="1">
          <mxGeometry y="50" width="440" height="230" as="geometry" />
        </mxCell>
        <mxCell id="6eY6zue9w3DzlHH3J1nf-11" style="edgeStyle=orthogonalEdgeStyle;rounded=0;orthogonalLoop=1;jettySize=auto;html=1;entryX=0.004;entryY=0.145;entryDx=0;entryDy=0;entryPerimeter=0;" parent="1" source="6eY6zue9w3DzlHH3J1nf-2" target="6eY6zue9w3DzlHH3J1nf-10" edge="1">
          <mxGeometry relative="1" as="geometry">
            <Array as="points">
              <mxPoint x="-440" y="1750" />
              <mxPoint x="-440" y="1763" />
            </Array>
          </mxGeometry>
        </mxCell>
        <mxCell id="N-bTjCTBQTZ_UuMf8WYt-1" value="&lt;div&gt;notification_preferences&lt;/div&gt;" style="swimlane;childLayout=stackLayout;horizontal=1;startSize=50;horizontalStack=0;rounded=1;fontSize=14;fontStyle=0;strokeWidth=2;resizeParent=0;resizeLast=1;shadow=0;dashed=0;align=center;arcSize=4;whiteSpace=wrap;html=1;" parent="1" vertex="1">
          <mxGeometry x="-1400" y="2040" width="440" height="250" as="geometry" />
        </mxCell>
        <mxCell id="N-bTjCTBQTZ_UuMf8WYt-2" value="&lt;span style=&quot;background-color: light-dark(#ffffff, var(--ge-dark-color, #121212));&quot;&gt;&lt;font&gt;+ user_id: uuid [pk]&lt;/font&gt;&lt;/span&gt;&lt;div&gt;&lt;div&gt;&lt;/div&gt;&lt;/div&gt;&lt;div&gt;&lt;span style=&quot;background-color: light-dark(#ffffff, var(--ge-dark-color, #121212));&quot;&gt;&lt;font&gt;+ username: varchar [ unique, not null ]&lt;/font&gt;&lt;/span&gt;&lt;/div&gt;&lt;div&gt;&lt;span style=&quot;background-color: light-dark(#ffffff, var(--ge-dark-color, #121212));&quot;&gt;&lt;font&gt;+ email:&amp;nbsp; varchar [ unique, not null ]&lt;/font&gt;&lt;/span&gt;&lt;/div&gt;&lt;div&gt;&lt;span style=&quot;background-color: light-dark(#ffffff, var(--ge-dark-color, #121212));&quot;&gt;&lt;font&gt;+ password: varchar [ not null ]&lt;/font&gt;&lt;/span&gt;&lt;/div&gt;&lt;div&gt;&lt;span style=&quot;background-color: light-dark(#ffffff, var(--ge-dark-color, #121212));&quot;&gt;&lt;font&gt;+ role: varchar&amp;nbsp; [ not null ] // &#39;admin&#39;, &#39;teacher&#39;, student&#39;&amp;nbsp;&lt;/font&gt;&lt;/span&gt;&lt;/div&gt;&lt;div&gt;&lt;span style=&quot;background-color: light-dark(#ffffff, var(--ge-dark-color, #121212));&quot;&gt;&lt;font&gt;+ created_at: timestamp [ default: `now()` ]&lt;/font&gt;&lt;/span&gt;&lt;/div&gt;&lt;div&gt;&lt;span style=&quot;background-color: light-dark(#ffffff, var(--ge-dark-color, #121212));&quot;&gt;&lt;font&gt;+ updated_at: timestamp [ default: `now()` ]&lt;/font&gt;&lt;/span&gt;&lt;/div&gt;&lt;div&gt;&lt;span style=&quot;background-color: light-dark(#ffffff, var(--ge-dark-color, #121212));&quot;&gt;&lt;font&gt;&lt;strike&gt;+ last_login: timestamp&lt;/strike&gt;&lt;/font&gt;&lt;/span&gt;&lt;/div&gt;&lt;div&gt;&lt;span style=&quot;background-color: rgb(255, 255, 255);&quot;&gt;&lt;strike&gt;+ status: varchar [default: `active`] // `active`, `inactive`, `suspended`&lt;/strike&gt;&lt;/span&gt;&lt;/div&gt;&lt;div&gt;&lt;span style=&quot;background-color: rgb(255, 255, 255);&quot;&gt;+ reset_token: varchar&lt;/span&gt;&lt;/div&gt;&lt;div&gt;&lt;span style=&quot;background-color: rgb(255, 255, 255);&quot;&gt;+ reset_token_expires: timestamp&lt;/span&gt;&lt;/div&gt;&lt;div&gt;&lt;span style=&quot;background-color: light-dark(#ffffff, var(--ge-dark-color, #121212));&quot;&gt;&lt;font&gt;&lt;br&gt;&lt;/font&gt;&lt;/span&gt;&lt;/div&gt;" style="align=left;strokeColor=none;fillColor=none;spacingLeft=4;fontSize=14;verticalAlign=top;resizable=0;rotatable=0;part=1;html=1;" parent="N-bTjCTBQTZ_UuMf8WYt-1" vertex="1">
          <mxGeometry y="50" width="440" height="200" as="geometry" />
        </mxCell>
        <mxCell id="JLNBPi1FeU_z8Aygyn0l-12" style="edgeStyle=orthogonalEdgeStyle;rounded=0;orthogonalLoop=1;jettySize=auto;html=1;entryX=0.313;entryY=-0.005;entryDx=0;entryDy=0;entryPerimeter=0;" edge="1" parent="1" source="yCvwQu07WbUM5x7n1wTh-1" target="JLNBPi1FeU_z8Aygyn0l-10">
          <mxGeometry relative="1" as="geometry">
            <mxPoint x="-9070" y="-1050" as="targetPoint" />
            <Array as="points">
              <mxPoint x="-9880" y="-1120" />
              <mxPoint x="-9070" y="-1120" />
            </Array>
          </mxGeometry>
        </mxCell>
        <mxCell id="yCvwQu07WbUM5x7n1wTh-1" value="schools" style="swimlane;childLayout=stackLayout;horizontal=1;startSize=50;horizontalStack=0;rounded=1;fontSize=14;fontStyle=0;strokeWidth=2;resizeParent=0;resizeLast=1;shadow=0;dashed=0;align=center;arcSize=4;whiteSpace=wrap;html=1;" parent="1" vertex="1">
          <mxGeometry x="-10040" y="-1040" width="320" height="200" as="geometry" />
        </mxCell>
        <mxCell id="yCvwQu07WbUM5x7n1wTh-2" value="&lt;div&gt;&lt;span style=&quot;background-color: light-dark(#ffffff, var(--ge-dark-color, #121212));&quot;&gt;&lt;font&gt;+ id: bigint (unique)&lt;/font&gt;&lt;/span&gt;&lt;/div&gt;&lt;div&gt;&lt;div&gt;&lt;/div&gt;&lt;/div&gt;&lt;div&gt;&lt;span style=&quot;background-color: light-dark(#ffffff, var(--ge-dark-color, #121212));&quot;&gt;&lt;font&gt;+ name: varchar&amp;nbsp;&lt;/font&gt;&lt;/span&gt;&lt;/div&gt;&lt;div&gt;&lt;span style=&quot;background-color: light-dark(#ffffff, var(--ge-dark-color, #121212));&quot;&gt;&lt;font&gt;+ address:&amp;nbsp; varchar&amp;nbsp;&lt;/font&gt;&lt;/span&gt;&lt;/div&gt;&lt;div&gt;&lt;span style=&quot;background-color: light-dark(#ffffff, var(--ge-dark-color, #121212));&quot;&gt;&lt;font&gt;+ phone_number: varchar&amp;nbsp;&lt;/font&gt;&lt;/span&gt;&lt;/div&gt;&lt;div&gt;&lt;span style=&quot;background-color: light-dark(#ffffff, var(--ge-dark-color, #121212));&quot;&gt;&lt;font&gt;+ email: varchar&amp;nbsp;&amp;nbsp;&lt;/font&gt;&lt;/span&gt;&lt;/div&gt;&lt;div&gt;&lt;span style=&quot;background-color: light-dark(#ffffff, var(--ge-dark-color, #121212));&quot;&gt;&lt;font&gt;+ deleted_at: datetime&lt;/font&gt;&lt;/span&gt;&lt;/div&gt;&lt;div&gt;&lt;span style=&quot;background-color: light-dark(#ffffff, var(--ge-dark-color, #121212));&quot;&gt;&lt;font&gt;+ created_at:&amp;nbsp;&lt;/font&gt;&lt;/span&gt;&lt;span style=&quot;background-color: rgb(255, 255, 255);&quot;&gt;datetime&lt;/span&gt;&lt;/div&gt;&lt;div&gt;&lt;span style=&quot;background-color: light-dark(#ffffff, var(--ge-dark-color, #121212));&quot;&gt;&lt;font&gt;+ updated_at:&amp;nbsp;&lt;/font&gt;&lt;/span&gt;&lt;span style=&quot;background-color: rgb(255, 255, 255);&quot;&gt;datetime&lt;/span&gt;&lt;/div&gt;&lt;div&gt;&lt;span style=&quot;background-color: light-dark(#ffffff, var(--ge-dark-color, #121212));&quot;&gt;&lt;font&gt;&lt;br&gt;&lt;/font&gt;&lt;/span&gt;&lt;/div&gt;" style="align=left;strokeColor=none;fillColor=none;spacingLeft=4;fontSize=14;verticalAlign=top;resizable=0;rotatable=0;part=1;html=1;" parent="yCvwQu07WbUM5x7n1wTh-1" vertex="1">
          <mxGeometry y="50" width="320" height="150" as="geometry" />
        </mxCell>
        <mxCell id="yCvwQu07WbUM5x7n1wTh-3" value="departments" style="swimlane;childLayout=stackLayout;horizontal=1;startSize=50;horizontalStack=0;rounded=1;fontSize=14;fontStyle=0;strokeWidth=2;resizeParent=0;resizeLast=1;shadow=0;dashed=0;align=center;arcSize=4;whiteSpace=wrap;html=1;" parent="1" vertex="1">
          <mxGeometry x="-9610" y="-1020" width="320" height="170" as="geometry" />
        </mxCell>
        <mxCell id="yCvwQu07WbUM5x7n1wTh-4" value="&lt;div&gt;&lt;span style=&quot;background-color: light-dark(#ffffff, var(--ge-dark-color, #121212));&quot;&gt;&lt;font&gt;+ id: bigint&lt;/font&gt;&lt;/span&gt;&lt;/div&gt;&lt;span style=&quot;background-color: light-dark(#ffffff, var(--ge-dark-color, #121212));&quot;&gt;&lt;font&gt;+ school_id: bigint&lt;/font&gt;&lt;/span&gt;&lt;div&gt;&lt;div&gt;&lt;/div&gt;&lt;/div&gt;&lt;div&gt;&lt;span style=&quot;background-color: light-dark(#ffffff, var(--ge-dark-color, #121212));&quot;&gt;&lt;font&gt;+ name: varchar&lt;/font&gt;&lt;/span&gt;&lt;/div&gt;&lt;div&gt;&lt;div&gt;&lt;span style=&quot;background-color: rgb(255, 255, 255);&quot;&gt;+ deleted_at: datetime&lt;/span&gt;&lt;/div&gt;&lt;div&gt;&lt;span style=&quot;background-color: rgb(255, 255, 255);&quot;&gt;+ created_at:&amp;nbsp;&lt;/span&gt;&lt;span style=&quot;background-color: rgb(255, 255, 255);&quot;&gt;datetime&lt;/span&gt;&lt;/div&gt;&lt;div&gt;&lt;span style=&quot;background-color: rgb(255, 255, 255);&quot;&gt;+ updated_at:&amp;nbsp;&lt;/span&gt;&lt;span style=&quot;background-color: rgb(255, 255, 255);&quot;&gt;datetime&lt;/span&gt;&lt;/div&gt;&lt;/div&gt;&lt;div&gt;&lt;span style=&quot;background-color: light-dark(#ffffff, var(--ge-dark-color, #121212));&quot;&gt;&lt;font&gt;&lt;br&gt;&lt;/font&gt;&lt;/span&gt;&lt;/div&gt;" style="align=left;strokeColor=none;fillColor=none;spacingLeft=4;fontSize=14;verticalAlign=top;resizable=0;rotatable=0;part=1;html=1;" parent="yCvwQu07WbUM5x7n1wTh-3" vertex="1">
          <mxGeometry y="50" width="320" height="120" as="geometry" />
        </mxCell>
        <mxCell id="yCvwQu07WbUM5x7n1wTh-5" style="edgeStyle=orthogonalEdgeStyle;rounded=0;orthogonalLoop=1;jettySize=auto;html=1;entryX=0.002;entryY=0.131;entryDx=0;entryDy=0;entryPerimeter=0;" parent="1" source="yCvwQu07WbUM5x7n1wTh-1" target="yCvwQu07WbUM5x7n1wTh-4" edge="1">
          <mxGeometry relative="1" as="geometry" />
        </mxCell>
        <mxCell id="yCvwQu07WbUM5x7n1wTh-6" value="classes ( Lớp quản lý )" style="swimlane;childLayout=stackLayout;horizontal=1;startSize=50;horizontalStack=0;rounded=1;fontSize=14;fontStyle=0;strokeWidth=2;resizeParent=0;resizeLast=1;shadow=0;dashed=0;align=center;arcSize=4;whiteSpace=wrap;html=1;" parent="1" vertex="1">
          <mxGeometry x="-9600" y="-440" width="320" height="190" as="geometry" />
        </mxCell>
        <mxCell id="yCvwQu07WbUM5x7n1wTh-7" value="&lt;div&gt;&lt;span style=&quot;background-color: light-dark(#ffffff, var(--ge-dark-color, #121212));&quot;&gt;&lt;font&gt;+ id: bigint&lt;/font&gt;&lt;/span&gt;&lt;/div&gt;&lt;span style=&quot;background-color: light-dark(#ffffff, var(--ge-dark-color, #121212));&quot;&gt;&lt;font&gt;+ major_id: bigint&lt;/font&gt;&lt;/span&gt;&lt;div&gt;&lt;div&gt;&lt;/div&gt;&lt;/div&gt;&lt;div&gt;&lt;span style=&quot;background-color: light-dark(#ffffff, var(--ge-dark-color, #121212));&quot;&gt;&lt;font&gt;+ name: varchar&lt;/font&gt;&lt;/span&gt;&lt;/div&gt;&lt;div&gt;&lt;span style=&quot;background-color: light-dark(#ffffff, var(--ge-dark-color, #121212));&quot;&gt;&lt;font&gt;+ homeroom_teacher_id: bigint&lt;/font&gt;&lt;/span&gt;&lt;/div&gt;&lt;div&gt;&lt;div&gt;&lt;span style=&quot;background-color: rgb(255, 255, 255);&quot;&gt;+ deleted_at: datetime&lt;/span&gt;&lt;/div&gt;&lt;div&gt;&lt;span style=&quot;background-color: rgb(255, 255, 255);&quot;&gt;+ created_at:&amp;nbsp;&lt;/span&gt;&lt;span style=&quot;background-color: rgb(255, 255, 255);&quot;&gt;datetime&lt;/span&gt;&lt;/div&gt;&lt;div&gt;&lt;span style=&quot;background-color: rgb(255, 255, 255);&quot;&gt;+ updated_at:&amp;nbsp;&lt;/span&gt;&lt;span style=&quot;background-color: rgb(255, 255, 255);&quot;&gt;datetime&lt;/span&gt;&lt;/div&gt;&lt;/div&gt;&lt;div&gt;&lt;span style=&quot;background-color: light-dark(#ffffff, var(--ge-dark-color, #121212));&quot;&gt;&lt;font&gt;&lt;br&gt;&lt;/font&gt;&lt;/span&gt;&lt;/div&gt;" style="align=left;strokeColor=none;fillColor=none;spacingLeft=4;fontSize=14;verticalAlign=top;resizable=0;rotatable=0;part=1;html=1;" parent="yCvwQu07WbUM5x7n1wTh-6" vertex="1">
          <mxGeometry y="50" width="320" height="140" as="geometry" />
        </mxCell>
        <mxCell id="JLNBPi1FeU_z8Aygyn0l-1" value="majors" style="swimlane;childLayout=stackLayout;horizontal=1;startSize=50;horizontalStack=0;rounded=1;fontSize=14;fontStyle=0;strokeWidth=2;resizeParent=0;resizeLast=1;shadow=0;dashed=0;align=center;arcSize=4;whiteSpace=wrap;html=1;" vertex="1" parent="1">
          <mxGeometry x="-9600" y="-740" width="320" height="170" as="geometry" />
        </mxCell>
        <mxCell id="JLNBPi1FeU_z8Aygyn0l-2" value="&lt;div&gt;&lt;span style=&quot;background-color: light-dark(#ffffff, var(--ge-dark-color, #121212));&quot;&gt;&lt;font&gt;+ id: bigint&lt;/font&gt;&lt;/span&gt;&lt;/div&gt;&lt;span style=&quot;background-color: light-dark(#ffffff, var(--ge-dark-color, #121212));&quot;&gt;&lt;font&gt;+ department_id: bigint&lt;/font&gt;&lt;/span&gt;&lt;div&gt;&lt;div&gt;&lt;/div&gt;&lt;/div&gt;&lt;div&gt;&lt;span style=&quot;background-color: light-dark(#ffffff, var(--ge-dark-color, #121212));&quot;&gt;&lt;font&gt;+ name: varchar&lt;/font&gt;&lt;/span&gt;&lt;/div&gt;&lt;div&gt;&lt;div&gt;&lt;span style=&quot;background-color: rgb(255, 255, 255);&quot;&gt;+ deleted_at: datetime&lt;/span&gt;&lt;/div&gt;&lt;div&gt;&lt;span style=&quot;background-color: rgb(255, 255, 255);&quot;&gt;+ created_at:&amp;nbsp;&lt;/span&gt;&lt;span style=&quot;background-color: rgb(255, 255, 255);&quot;&gt;datetime&lt;/span&gt;&lt;/div&gt;&lt;div&gt;&lt;span style=&quot;background-color: rgb(255, 255, 255);&quot;&gt;+ updated_at:&amp;nbsp;&lt;/span&gt;&lt;span style=&quot;background-color: rgb(255, 255, 255);&quot;&gt;datetime&lt;/span&gt;&lt;/div&gt;&lt;/div&gt;&lt;div&gt;&lt;span style=&quot;background-color: light-dark(#ffffff, var(--ge-dark-color, #121212));&quot;&gt;&lt;font&gt;&lt;br&gt;&lt;/font&gt;&lt;/span&gt;&lt;/div&gt;" style="align=left;strokeColor=none;fillColor=none;spacingLeft=4;fontSize=14;verticalAlign=top;resizable=0;rotatable=0;part=1;html=1;" vertex="1" parent="JLNBPi1FeU_z8Aygyn0l-1">
          <mxGeometry y="50" width="320" height="120" as="geometry" />
        </mxCell>
        <mxCell id="JLNBPi1FeU_z8Aygyn0l-3" style="edgeStyle=orthogonalEdgeStyle;rounded=0;orthogonalLoop=1;jettySize=auto;html=1;entryX=0;entryY=0.5;entryDx=0;entryDy=0;" edge="1" parent="1" source="yCvwQu07WbUM5x7n1wTh-4" target="JLNBPi1FeU_z8Aygyn0l-1">
          <mxGeometry relative="1" as="geometry" />
        </mxCell>
        <mxCell id="JLNBPi1FeU_z8Aygyn0l-4" style="edgeStyle=orthogonalEdgeStyle;rounded=0;orthogonalLoop=1;jettySize=auto;html=1;entryX=0.003;entryY=0.217;entryDx=0;entryDy=0;entryPerimeter=0;" edge="1" parent="1" source="JLNBPi1FeU_z8Aygyn0l-2" target="yCvwQu07WbUM5x7n1wTh-7">
          <mxGeometry relative="1" as="geometry" />
        </mxCell>
        <mxCell id="JLNBPi1FeU_z8Aygyn0l-5" value="training_programs" style="swimlane;childLayout=stackLayout;horizontal=1;startSize=50;horizontalStack=0;rounded=1;fontSize=14;fontStyle=0;strokeWidth=2;resizeParent=0;resizeLast=1;shadow=0;dashed=0;align=center;arcSize=4;whiteSpace=wrap;html=1;" vertex="1" parent="1">
          <mxGeometry x="-9150" y="-755" width="320" height="200" as="geometry" />
        </mxCell>
        <mxCell id="JLNBPi1FeU_z8Aygyn0l-6" value="&lt;div&gt;&lt;span style=&quot;background-color: light-dark(#ffffff, var(--ge-dark-color, #121212));&quot;&gt;&lt;font&gt;+ id: bigint&lt;/font&gt;&lt;/span&gt;&lt;/div&gt;&lt;span style=&quot;background-color: light-dark(#ffffff, var(--ge-dark-color, #121212));&quot;&gt;&lt;font&gt;+ major_id: bigint&lt;/font&gt;&lt;/span&gt;&lt;div&gt;&lt;div&gt;&lt;/div&gt;&lt;/div&gt;&lt;div&gt;&lt;span style=&quot;background-color: light-dark(#ffffff, var(--ge-dark-color, #121212));&quot;&gt;&lt;font&gt;+ name: varchar&lt;/font&gt;&lt;/span&gt;&lt;/div&gt;&lt;div&gt;&lt;span style=&quot;background-color: light-dark(#ffffff, var(--ge-dark-color, #121212));&quot;&gt;&lt;font&gt;+ start_year: int&lt;/font&gt;&lt;/span&gt;&lt;/div&gt;&lt;div&gt;&lt;span style=&quot;background-color: light-dark(#ffffff, var(--ge-dark-color, #121212));&quot;&gt;&lt;font&gt;+&amp;nbsp;&lt;/font&gt;&lt;/span&gt;&lt;span style=&quot;background-color: transparent; color: light-dark(rgb(0, 0, 0), rgb(255, 255, 255));&quot;&gt;total_credits: int&lt;/span&gt;&lt;/div&gt;&lt;div&gt;&lt;div&gt;&lt;span style=&quot;background-color: rgb(255, 255, 255);&quot;&gt;+ deleted_at: datetime&lt;/span&gt;&lt;/div&gt;&lt;div&gt;&lt;span style=&quot;background-color: rgb(255, 255, 255);&quot;&gt;+ created_at:&amp;nbsp;&lt;/span&gt;&lt;span style=&quot;background-color: rgb(255, 255, 255);&quot;&gt;datetime&lt;/span&gt;&lt;/div&gt;&lt;div&gt;&lt;span style=&quot;background-color: rgb(255, 255, 255);&quot;&gt;+ updated_at:&amp;nbsp;&lt;/span&gt;&lt;span style=&quot;background-color: rgb(255, 255, 255);&quot;&gt;datetime&lt;/span&gt;&lt;/div&gt;&lt;/div&gt;&lt;div&gt;&lt;span style=&quot;background-color: light-dark(#ffffff, var(--ge-dark-color, #121212));&quot;&gt;&lt;font&gt;&lt;br&gt;&lt;/font&gt;&lt;/span&gt;&lt;/div&gt;" style="align=left;strokeColor=none;fillColor=none;spacingLeft=4;fontSize=14;verticalAlign=top;resizable=0;rotatable=0;part=1;html=1;" vertex="1" parent="JLNBPi1FeU_z8Aygyn0l-5">
          <mxGeometry y="50" width="320" height="150" as="geometry" />
        </mxCell>
        <mxCell id="JLNBPi1FeU_z8Aygyn0l-7" style="edgeStyle=orthogonalEdgeStyle;rounded=0;orthogonalLoop=1;jettySize=auto;html=1;entryX=-0.006;entryY=0.212;entryDx=0;entryDy=0;entryPerimeter=0;" edge="1" parent="1" source="JLNBPi1FeU_z8Aygyn0l-2" target="JLNBPi1FeU_z8Aygyn0l-6">
          <mxGeometry relative="1" as="geometry" />
        </mxCell>
        <mxCell id="JLNBPi1FeU_z8Aygyn0l-8" value="training_program_subjects" style="swimlane;childLayout=stackLayout;horizontal=1;startSize=50;horizontalStack=0;rounded=1;fontSize=14;fontStyle=0;strokeWidth=2;resizeParent=0;resizeLast=1;shadow=0;dashed=0;align=center;arcSize=4;whiteSpace=wrap;html=1;" vertex="1" parent="1">
          <mxGeometry x="-8540" y="-755" width="320" height="205" as="geometry" />
        </mxCell>
        <mxCell id="JLNBPi1FeU_z8Aygyn0l-9" value="&lt;div&gt;&lt;span style=&quot;background-color: light-dark(#ffffff, var(--ge-dark-color, #121212));&quot;&gt;&lt;font&gt;+ id: bigint&lt;/font&gt;&lt;/span&gt;&lt;/div&gt;&lt;span style=&quot;background-color: light-dark(#ffffff, var(--ge-dark-color, #121212));&quot;&gt;&lt;font&gt;+ training_program_id: bigint&lt;/font&gt;&lt;/span&gt;&lt;div&gt;+ subject_id: bigint&lt;br&gt;+ semester: int&lt;br&gt;&lt;div&gt;&lt;div&gt;&lt;/div&gt;&lt;/div&gt;&lt;div&gt;&lt;span style=&quot;background-color: light-dark(#ffffff, var(--ge-dark-color, #121212));&quot;&gt;&lt;font&gt;+&amp;nbsp;&lt;/font&gt;&lt;/span&gt;&lt;span style=&quot;background-color: transparent; color: light-dark(rgb(0, 0, 0), rgb(255, 255, 255));&quot;&gt;is_mandatory: boolean&lt;/span&gt;&lt;/div&gt;&lt;div&gt;&lt;div&gt;&lt;span style=&quot;background-color: rgb(255, 255, 255);&quot;&gt;+ deleted_at: datetime&lt;/span&gt;&lt;/div&gt;&lt;div&gt;&lt;span style=&quot;background-color: rgb(255, 255, 255);&quot;&gt;+ created_at:&amp;nbsp;&lt;/span&gt;&lt;span style=&quot;background-color: rgb(255, 255, 255);&quot;&gt;datetime&lt;/span&gt;&lt;/div&gt;&lt;div&gt;&lt;span style=&quot;background-color: rgb(255, 255, 255);&quot;&gt;+ updated_at:&amp;nbsp;&lt;/span&gt;&lt;span style=&quot;background-color: rgb(255, 255, 255);&quot;&gt;datetime&lt;/span&gt;&lt;/div&gt;&lt;/div&gt;&lt;div&gt;&lt;span style=&quot;background-color: light-dark(#ffffff, var(--ge-dark-color, #121212));&quot;&gt;&lt;font&gt;&lt;br&gt;&lt;/font&gt;&lt;/span&gt;&lt;/div&gt;&lt;/div&gt;" style="align=left;strokeColor=none;fillColor=none;spacingLeft=4;fontSize=14;verticalAlign=top;resizable=0;rotatable=0;part=1;html=1;" vertex="1" parent="JLNBPi1FeU_z8Aygyn0l-8">
          <mxGeometry y="50" width="320" height="155" as="geometry" />
        </mxCell>
        <mxCell id="JLNBPi1FeU_z8Aygyn0l-10" value="subjects" style="swimlane;childLayout=stackLayout;horizontal=1;startSize=50;horizontalStack=0;rounded=1;fontSize=14;fontStyle=0;strokeWidth=2;resizeParent=0;resizeLast=1;shadow=0;dashed=0;align=center;arcSize=4;whiteSpace=wrap;html=1;" vertex="1" parent="1">
          <mxGeometry x="-9170" y="-1040" width="320" height="220" as="geometry" />
        </mxCell>
        <mxCell id="JLNBPi1FeU_z8Aygyn0l-11" value="&lt;div&gt;&lt;span style=&quot;background-color: light-dark(#ffffff, var(--ge-dark-color, #121212));&quot;&gt;&lt;font&gt;+ id: bigint&lt;/font&gt;&lt;/span&gt;&lt;/div&gt;&lt;span style=&quot;background-color: light-dark(#ffffff, var(--ge-dark-color, #121212));&quot;&gt;&lt;font&gt;+&amp;nbsp;&lt;/font&gt;&lt;/span&gt;&lt;span style=&quot;background-color: transparent; color: light-dark(rgb(0, 0, 0), rgb(255, 255, 255));&quot;&gt;school_id&lt;/span&gt;&lt;span style=&quot;background-color: light-dark(#ffffff, var(--ge-dark-color, #121212)); color: light-dark(rgb(0, 0, 0), rgb(255, 255, 255));&quot;&gt;: bigint&lt;/span&gt;&lt;div&gt;&lt;span style=&quot;background-color: rgb(255, 255, 255);&quot;&gt;+&amp;nbsp;&lt;/span&gt;&lt;span style=&quot;background-color: transparent; color: light-dark(rgb(0, 0, 0), rgb(255, 255, 255));&quot;&gt;major_id&lt;/span&gt;&lt;span style=&quot;background-color: rgb(255, 255, 255); color: light-dark(rgb(0, 0, 0), rgb(255, 255, 255));&quot;&gt;: bigint&lt;/span&gt;&lt;br&gt;&lt;div&gt;&lt;div&gt;&lt;/div&gt;&lt;/div&gt;&lt;div&gt;&lt;span style=&quot;background-color: light-dark(#ffffff, var(--ge-dark-color, #121212));&quot;&gt;&lt;font&gt;+ name: varchar&lt;/font&gt;&lt;/span&gt;&lt;/div&gt;&lt;div&gt;&lt;span style=&quot;background-color: light-dark(#ffffff, var(--ge-dark-color, #121212));&quot;&gt;&lt;font&gt;+ type: varchar&lt;/font&gt;&lt;/span&gt;&lt;/div&gt;&lt;div&gt;&lt;span style=&quot;background-color: light-dark(#ffffff, var(--ge-dark-color, #121212));&quot;&gt;&lt;font&gt;+&amp;nbsp;&lt;/font&gt;&lt;/span&gt;&lt;span style=&quot;background-color: transparent; color: light-dark(rgb(0, 0, 0), rgb(255, 255, 255));&quot;&gt;credits&lt;/span&gt;&lt;span style=&quot;background-color: transparent; color: light-dark(rgb(0, 0, 0), rgb(255, 255, 255));&quot;&gt;: int&lt;/span&gt;&lt;br&gt;&lt;/div&gt;&lt;div&gt;&lt;div&gt;&lt;span style=&quot;background-color: rgb(255, 255, 255);&quot;&gt;+ deleted_at: datetime&lt;/span&gt;&lt;/div&gt;&lt;div&gt;&lt;span style=&quot;background-color: rgb(255, 255, 255);&quot;&gt;+ created_at:&amp;nbsp;&lt;/span&gt;&lt;span style=&quot;background-color: rgb(255, 255, 255);&quot;&gt;datetime&lt;/span&gt;&lt;/div&gt;&lt;div&gt;&lt;span style=&quot;background-color: rgb(255, 255, 255);&quot;&gt;+ updated_at:&amp;nbsp;&lt;/span&gt;&lt;span style=&quot;background-color: rgb(255, 255, 255);&quot;&gt;datetime&lt;/span&gt;&lt;/div&gt;&lt;/div&gt;&lt;div&gt;&lt;span style=&quot;background-color: light-dark(#ffffff, var(--ge-dark-color, #121212));&quot;&gt;&lt;font&gt;&lt;br&gt;&lt;/font&gt;&lt;/span&gt;&lt;/div&gt;&lt;/div&gt;" style="align=left;strokeColor=none;fillColor=none;spacingLeft=4;fontSize=14;verticalAlign=top;resizable=0;rotatable=0;part=1;html=1;" vertex="1" parent="JLNBPi1FeU_z8Aygyn0l-10">
          <mxGeometry y="50" width="320" height="170" as="geometry" />
        </mxCell>
        <mxCell id="JLNBPi1FeU_z8Aygyn0l-13" style="edgeStyle=orthogonalEdgeStyle;rounded=0;orthogonalLoop=1;jettySize=auto;html=1;entryX=0;entryY=0.3;entryDx=0;entryDy=0;entryPerimeter=0;" edge="1" parent="1" source="JLNBPi1FeU_z8Aygyn0l-1" target="JLNBPi1FeU_z8Aygyn0l-11">
          <mxGeometry relative="1" as="geometry">
            <Array as="points">
              <mxPoint x="-9330" y="-780" />
              <mxPoint x="-9225" y="-780" />
              <mxPoint x="-9225" y="-939" />
            </Array>
          </mxGeometry>
        </mxCell>
        <mxCell id="JLNBPi1FeU_z8Aygyn0l-14" style="edgeStyle=orthogonalEdgeStyle;rounded=0;orthogonalLoop=1;jettySize=auto;html=1;entryX=0;entryY=0.204;entryDx=0;entryDy=0;entryPerimeter=0;" edge="1" parent="1" source="JLNBPi1FeU_z8Aygyn0l-5" target="JLNBPi1FeU_z8Aygyn0l-9">
          <mxGeometry relative="1" as="geometry">
            <Array as="points">
              <mxPoint x="-8780" y="-600" />
              <mxPoint x="-8780" y="-673" />
            </Array>
          </mxGeometry>
        </mxCell>
        <mxCell id="JLNBPi1FeU_z8Aygyn0l-15" style="edgeStyle=orthogonalEdgeStyle;rounded=0;orthogonalLoop=1;jettySize=auto;html=1;entryX=-0.002;entryY=0.337;entryDx=0;entryDy=0;entryPerimeter=0;" edge="1" parent="1" source="JLNBPi1FeU_z8Aygyn0l-11" target="JLNBPi1FeU_z8Aygyn0l-9">
          <mxGeometry relative="1" as="geometry" />
        </mxCell>
        <mxCell id="JLNBPi1FeU_z8Aygyn0l-16" value="teachers" style="swimlane;childLayout=stackLayout;horizontal=1;startSize=50;horizontalStack=0;rounded=1;fontSize=14;fontStyle=0;strokeWidth=2;resizeParent=0;resizeLast=1;shadow=0;dashed=0;align=center;arcSize=4;whiteSpace=wrap;html=1;" vertex="1" parent="1">
          <mxGeometry x="-9140" y="-445" width="320" height="185" as="geometry" />
        </mxCell>
        <mxCell id="JLNBPi1FeU_z8Aygyn0l-17" value="&lt;div&gt;&lt;span style=&quot;background-color: light-dark(#ffffff, var(--ge-dark-color, #121212));&quot;&gt;&lt;font&gt;+ id: bigint&lt;/font&gt;&lt;/span&gt;&lt;/div&gt;&lt;div&gt;&lt;span style=&quot;background-color: light-dark(#ffffff, var(--ge-dark-color, #121212));&quot;&gt;&lt;font&gt;+ user_id: bigint&lt;/font&gt;&lt;/span&gt;&lt;/div&gt;&lt;span style=&quot;background-color: light-dark(#ffffff, var(--ge-dark-color, #121212));&quot;&gt;&lt;font&gt;+ shool_id: bigint&lt;/font&gt;&lt;/span&gt;&lt;div&gt;&lt;div&gt;&lt;/div&gt;&lt;/div&gt;&lt;div&gt;&lt;span style=&quot;background-color: light-dark(#ffffff, var(--ge-dark-color, #121212));&quot;&gt;&lt;font&gt;+ name: varchar&lt;/font&gt;&lt;/span&gt;&lt;/div&gt;&lt;div&gt;&lt;div&gt;&lt;span style=&quot;background-color: rgb(255, 255, 255);&quot;&gt;+ deleted_at: datetime&lt;/span&gt;&lt;/div&gt;&lt;div&gt;&lt;span style=&quot;background-color: rgb(255, 255, 255);&quot;&gt;+ created_at:&amp;nbsp;&lt;/span&gt;&lt;span style=&quot;background-color: rgb(255, 255, 255);&quot;&gt;datetime&lt;/span&gt;&lt;/div&gt;&lt;div&gt;&lt;span style=&quot;background-color: rgb(255, 255, 255);&quot;&gt;+ updated_at:&amp;nbsp;&lt;/span&gt;&lt;span style=&quot;background-color: rgb(255, 255, 255);&quot;&gt;datetime&lt;/span&gt;&lt;/div&gt;&lt;/div&gt;&lt;div&gt;&lt;span style=&quot;background-color: light-dark(#ffffff, var(--ge-dark-color, #121212));&quot;&gt;&lt;font&gt;&lt;br&gt;&lt;/font&gt;&lt;/span&gt;&lt;/div&gt;" style="align=left;strokeColor=none;fillColor=none;spacingLeft=4;fontSize=14;verticalAlign=top;resizable=0;rotatable=0;part=1;html=1;" vertex="1" parent="JLNBPi1FeU_z8Aygyn0l-16">
          <mxGeometry y="50" width="320" height="135" as="geometry" />
        </mxCell>
        <mxCell id="JLNBPi1FeU_z8Aygyn0l-18" style="edgeStyle=orthogonalEdgeStyle;rounded=0;orthogonalLoop=1;jettySize=auto;html=1;entryX=1.001;entryY=0.437;entryDx=0;entryDy=0;entryPerimeter=0;" edge="1" parent="1" source="JLNBPi1FeU_z8Aygyn0l-17" target="yCvwQu07WbUM5x7n1wTh-7">
          <mxGeometry relative="1" as="geometry">
            <Array as="points">
              <mxPoint x="-9215" y="-370" />
              <mxPoint x="-9215" y="-329" />
            </Array>
          </mxGeometry>
        </mxCell>
        <mxCell id="JLNBPi1FeU_z8Aygyn0l-19" value="subject_assignments" style="swimlane;childLayout=stackLayout;horizontal=1;startSize=50;horizontalStack=0;rounded=1;fontSize=14;fontStyle=0;strokeWidth=2;resizeParent=0;resizeLast=1;shadow=0;dashed=0;align=center;arcSize=4;whiteSpace=wrap;html=1;" vertex="1" parent="1">
          <mxGeometry x="-8660" y="-1070" width="320" height="220" as="geometry" />
        </mxCell>
        <mxCell id="JLNBPi1FeU_z8Aygyn0l-20" value="&lt;div&gt;&lt;span style=&quot;background-color: light-dark(#ffffff, var(--ge-dark-color, #121212));&quot;&gt;&lt;font&gt;+ id: bigint&lt;/font&gt;&lt;/span&gt;&lt;/div&gt;&lt;span style=&quot;background-color: light-dark(#ffffff, var(--ge-dark-color, #121212));&quot;&gt;&lt;font&gt;+&amp;nbsp;&lt;/font&gt;&lt;/span&gt;&lt;span style=&quot;background-color: transparent; color: light-dark(rgb(0, 0, 0), rgb(255, 255, 255));&quot;&gt;teacher_id&lt;/span&gt;&lt;span style=&quot;background-color: light-dark(#ffffff, var(--ge-dark-color, #121212)); color: light-dark(rgb(0, 0, 0), rgb(255, 255, 255));&quot;&gt;: bigint&lt;/span&gt;&lt;br&gt;&lt;div&gt;&lt;span style=&quot;background-color: rgb(255, 255, 255);&quot;&gt;+&amp;nbsp;&lt;/span&gt;&lt;span style=&quot;background-color: rgb(255, 255, 255); color: light-dark(rgb(0, 0, 0), rgb(255, 255, 255));&quot;&gt;&lt;span style=&quot;background-color: light-dark(rgb(255, 255, 255), rgb(18, 18, 18)); color: light-dark(rgb(0, 0, 0), rgb(255, 255, 255));&quot;&gt;subject_id&lt;/span&gt;&lt;span style=&quot;background-color: light-dark(rgb(255, 255, 255), rgb(18, 18, 18)); color: light-dark(rgb(0, 0, 0), rgb(255, 255, 255));&quot;&gt;: bigint&lt;/span&gt;&lt;br&gt;&lt;/span&gt;&lt;div&gt;&lt;div&gt;&lt;span style=&quot;background-color: rgb(255, 255, 255);&quot;&gt;+ deleted_at: datetime&lt;/span&gt;&lt;/div&gt;&lt;div&gt;&lt;span style=&quot;background-color: rgb(255, 255, 255);&quot;&gt;+ created_at:&amp;nbsp;&lt;/span&gt;&lt;span style=&quot;background-color: rgb(255, 255, 255);&quot;&gt;datetime&lt;/span&gt;&lt;/div&gt;&lt;div&gt;&lt;span style=&quot;background-color: rgb(255, 255, 255);&quot;&gt;+ updated_at:&amp;nbsp;&lt;/span&gt;&lt;span style=&quot;background-color: rgb(255, 255, 255);&quot;&gt;datetime&lt;/span&gt;&lt;/div&gt;&lt;/div&gt;&lt;div&gt;&lt;span style=&quot;background-color: light-dark(#ffffff, var(--ge-dark-color, #121212));&quot;&gt;&lt;font&gt;&lt;br&gt;&lt;/font&gt;&lt;/span&gt;&lt;/div&gt;&lt;/div&gt;" style="align=left;strokeColor=none;fillColor=none;spacingLeft=4;fontSize=14;verticalAlign=top;resizable=0;rotatable=0;part=1;html=1;" vertex="1" parent="JLNBPi1FeU_z8Aygyn0l-19">
          <mxGeometry y="50" width="320" height="170" as="geometry" />
        </mxCell>
        <mxCell id="JLNBPi1FeU_z8Aygyn0l-21" style="edgeStyle=orthogonalEdgeStyle;rounded=0;orthogonalLoop=1;jettySize=auto;html=1;entryX=0;entryY=0.25;entryDx=0;entryDy=0;" edge="1" parent="1">
          <mxGeometry relative="1" as="geometry">
            <mxPoint x="-8850" y="-970" as="sourcePoint" />
            <mxPoint x="-8660" y="-1005" as="targetPoint" />
            <Array as="points">
              <mxPoint x="-8755" y="-970" />
              <mxPoint x="-8755" y="-1005" />
            </Array>
          </mxGeometry>
        </mxCell>
        <mxCell id="JLNBPi1FeU_z8Aygyn0l-22" style="edgeStyle=orthogonalEdgeStyle;rounded=0;orthogonalLoop=1;jettySize=auto;html=1;entryX=0;entryY=0.176;entryDx=0;entryDy=0;entryPerimeter=0;" edge="1" parent="1" source="JLNBPi1FeU_z8Aygyn0l-17" target="JLNBPi1FeU_z8Aygyn0l-20">
          <mxGeometry relative="1" as="geometry" />
        </mxCell>
        <mxCell id="JLNBPi1FeU_z8Aygyn0l-23" value="coures ( Lớp học phần )" style="swimlane;childLayout=stackLayout;horizontal=1;startSize=50;horizontalStack=0;rounded=1;fontSize=14;fontStyle=0;strokeWidth=2;resizeParent=0;resizeLast=1;shadow=0;dashed=0;align=center;arcSize=4;whiteSpace=wrap;html=1;" vertex="1" parent="1">
          <mxGeometry x="-9620" y="-200" width="320" height="220" as="geometry" />
        </mxCell>
        <mxCell id="JLNBPi1FeU_z8Aygyn0l-24" value="&lt;div&gt;&lt;span style=&quot;background-color: light-dark(#ffffff, var(--ge-dark-color, #121212));&quot;&gt;&lt;font&gt;+ id: bigint&lt;/font&gt;&lt;/span&gt;&lt;/div&gt;&lt;span style=&quot;background-color: light-dark(#ffffff, var(--ge-dark-color, #121212));&quot;&gt;&lt;font&gt;+&amp;nbsp;&lt;/font&gt;&lt;/span&gt;&lt;span style=&quot;background-color: transparent; color: light-dark(rgb(0, 0, 0), rgb(255, 255, 255));&quot;&gt;subject_id&lt;/span&gt;&lt;span style=&quot;background-color: light-dark(#ffffff, var(--ge-dark-color, #121212)); color: light-dark(rgb(0, 0, 0), rgb(255, 255, 255));&quot;&gt;: bigint&lt;/span&gt;&lt;br&gt;&lt;div&gt;&lt;div&gt;&lt;/div&gt;&lt;/div&gt;&lt;div&gt;&lt;span style=&quot;background-color: light-dark(#ffffff, var(--ge-dark-color, #121212));&quot;&gt;&lt;font&gt;+&amp;nbsp;&lt;/font&gt;&lt;/span&gt;&lt;span style=&quot;background-color: transparent; color: light-dark(rgb(0, 0, 0), rgb(255, 255, 255));&quot;&gt;teacher_id&lt;/span&gt;&lt;span style=&quot;background-color: light-dark(#ffffff, var(--ge-dark-color, #121212)); color: light-dark(rgb(0, 0, 0), rgb(255, 255, 255));&quot;&gt;: bigint&lt;/span&gt;&lt;br&gt;&lt;/div&gt;&lt;div&gt;&lt;span style=&quot;background-color: light-dark(#ffffff, var(--ge-dark-color, #121212));&quot;&gt;&lt;font&gt;+ mode: varchar&lt;br&gt;+ min_students: int&lt;br&gt;+ max_students: int&lt;/font&gt;&lt;/span&gt;&lt;/div&gt;&lt;div&gt;&lt;div&gt;&lt;span style=&quot;background-color: rgb(255, 255, 255);&quot;&gt;+ deleted_at: datetime&lt;/span&gt;&lt;/div&gt;&lt;div&gt;&lt;span style=&quot;background-color: rgb(255, 255, 255);&quot;&gt;+ created_at:&amp;nbsp;&lt;/span&gt;&lt;span style=&quot;background-color: rgb(255, 255, 255);&quot;&gt;datetime&lt;/span&gt;&lt;/div&gt;&lt;div&gt;&lt;span style=&quot;background-color: rgb(255, 255, 255);&quot;&gt;+ updated_at:&amp;nbsp;&lt;/span&gt;&lt;span style=&quot;background-color: rgb(255, 255, 255);&quot;&gt;datetime&lt;/span&gt;&lt;/div&gt;&lt;/div&gt;&lt;div&gt;&lt;span style=&quot;background-color: light-dark(#ffffff, var(--ge-dark-color, #121212));&quot;&gt;&lt;font&gt;&lt;br&gt;&lt;/font&gt;&lt;/span&gt;&lt;/div&gt;" style="align=left;strokeColor=none;fillColor=none;spacingLeft=4;fontSize=14;verticalAlign=top;resizable=0;rotatable=0;part=1;html=1;" vertex="1" parent="JLNBPi1FeU_z8Aygyn0l-23">
          <mxGeometry y="50" width="320" height="170" as="geometry" />
        </mxCell>
        <mxCell id="JLNBPi1FeU_z8Aygyn0l-25" value="schedules" style="swimlane;childLayout=stackLayout;horizontal=1;startSize=50;horizontalStack=0;rounded=1;fontSize=14;fontStyle=0;strokeWidth=2;resizeParent=0;resizeLast=1;shadow=0;dashed=0;align=center;arcSize=4;whiteSpace=wrap;html=1;" vertex="1" parent="1">
          <mxGeometry x="-10030" y="-190" width="320" height="240" as="geometry" />
        </mxCell>
        <mxCell id="JLNBPi1FeU_z8Aygyn0l-26" value="&lt;div&gt;&lt;span style=&quot;background-color: light-dark(#ffffff, var(--ge-dark-color, #121212));&quot;&gt;&lt;font&gt;+ id: bigint&lt;/font&gt;&lt;/span&gt;&lt;/div&gt;&lt;span style=&quot;background-color: light-dark(#ffffff, var(--ge-dark-color, #121212));&quot;&gt;&lt;font&gt;+&amp;nbsp;&lt;/font&gt;&lt;/span&gt;&lt;span style=&quot;background-color: transparent; color: light-dark(rgb(0, 0, 0), rgb(255, 255, 255));&quot;&gt;course_id&lt;/span&gt;&lt;span style=&quot;background-color: light-dark(#ffffff, var(--ge-dark-color, #121212)); color: light-dark(rgb(0, 0, 0), rgb(255, 255, 255));&quot;&gt;: bigint&lt;/span&gt;&lt;div&gt;+ class_id: bigint&lt;br&gt;&lt;div&gt;&lt;div&gt;&lt;/div&gt;&lt;/div&gt;&lt;div&gt;&lt;span style=&quot;background-color: light-dark(#ffffff, var(--ge-dark-color, #121212));&quot;&gt;&lt;font&gt;+&amp;nbsp;&lt;/font&gt;&lt;/span&gt;&lt;span style=&quot;background-color: transparent; color: light-dark(rgb(0, 0, 0), rgb(255, 255, 255));&quot;&gt;day_of_week&lt;/span&gt;&lt;span style=&quot;background-color: light-dark(#ffffff, var(--ge-dark-color, #121212)); color: light-dark(rgb(0, 0, 0), rgb(255, 255, 255));&quot;&gt;: varchar&lt;/span&gt;&lt;br&gt;&lt;/div&gt;&lt;div&gt;&lt;span style=&quot;background-color: light-dark(#ffffff, var(--ge-dark-color, #121212));&quot;&gt;&lt;font&gt;+&amp;nbsp;&lt;/font&gt;&lt;/span&gt;&lt;span style=&quot;background-color: transparent; color: light-dark(rgb(0, 0, 0), rgb(255, 255, 255));&quot;&gt;start_time&lt;/span&gt;&lt;span style=&quot;background-color: light-dark(#ffffff, var(--ge-dark-color, #121212)); color: light-dark(rgb(0, 0, 0), rgb(255, 255, 255));&quot;&gt;: time&lt;/span&gt;&lt;br&gt;&lt;/div&gt;&lt;div&gt;&lt;span style=&quot;background-color: light-dark(#ffffff, var(--ge-dark-color, #121212)); color: light-dark(rgb(0, 0, 0), rgb(255, 255, 255));&quot;&gt;+ end_time: time&lt;br&gt;+ room_id: bigint&lt;/span&gt;&lt;/div&gt;&lt;div&gt;&lt;div&gt;&lt;span style=&quot;background-color: rgb(255, 255, 255);&quot;&gt;+ deleted_at: datetime&lt;/span&gt;&lt;/div&gt;&lt;div&gt;&lt;span style=&quot;background-color: rgb(255, 255, 255);&quot;&gt;+ created_at:&amp;nbsp;&lt;/span&gt;&lt;span style=&quot;background-color: rgb(255, 255, 255);&quot;&gt;datetime&lt;/span&gt;&lt;/div&gt;&lt;div&gt;&lt;span style=&quot;background-color: rgb(255, 255, 255);&quot;&gt;+ updated_at:&amp;nbsp;&lt;/span&gt;&lt;span style=&quot;background-color: rgb(255, 255, 255);&quot;&gt;datetime&lt;/span&gt;&lt;/div&gt;&lt;/div&gt;&lt;div&gt;&lt;span style=&quot;background-color: light-dark(#ffffff, var(--ge-dark-color, #121212));&quot;&gt;&lt;font&gt;&lt;br&gt;&lt;/font&gt;&lt;/span&gt;&lt;/div&gt;&lt;/div&gt;" style="align=left;strokeColor=none;fillColor=none;spacingLeft=4;fontSize=14;verticalAlign=top;resizable=0;rotatable=0;part=1;html=1;" vertex="1" parent="JLNBPi1FeU_z8Aygyn0l-25">
          <mxGeometry y="50" width="320" height="190" as="geometry" />
        </mxCell>
        <mxCell id="JLNBPi1FeU_z8Aygyn0l-27" style="edgeStyle=orthogonalEdgeStyle;rounded=0;orthogonalLoop=1;jettySize=auto;html=1;entryX=1.002;entryY=0.178;entryDx=0;entryDy=0;entryPerimeter=0;" edge="1" parent="1" source="JLNBPi1FeU_z8Aygyn0l-24" target="JLNBPi1FeU_z8Aygyn0l-26">
          <mxGeometry relative="1" as="geometry" />
        </mxCell>
        <mxCell id="JLNBPi1FeU_z8Aygyn0l-28" style="edgeStyle=orthogonalEdgeStyle;rounded=0;orthogonalLoop=1;jettySize=auto;html=1;entryX=1.001;entryY=0.21;entryDx=0;entryDy=0;entryPerimeter=0;" edge="1" parent="1" target="JLNBPi1FeU_z8Aygyn0l-24">
          <mxGeometry relative="1" as="geometry">
            <mxPoint x="-9169.01" y="-970" as="sourcePoint" />
            <mxPoint x="-9300" y="-120" as="targetPoint" />
            <Array as="points">
              <mxPoint x="-9209" y="-970" />
              <mxPoint x="-9209" y="-114" />
              <mxPoint x="-9300" y="-114" />
            </Array>
          </mxGeometry>
        </mxCell>
        <mxCell id="JLNBPi1FeU_z8Aygyn0l-30" style="edgeStyle=orthogonalEdgeStyle;rounded=0;orthogonalLoop=1;jettySize=auto;html=1;entryX=1.001;entryY=0.313;entryDx=0;entryDy=0;entryPerimeter=0;" edge="1" parent="1" source="JLNBPi1FeU_z8Aygyn0l-17" target="JLNBPi1FeU_z8Aygyn0l-24">
          <mxGeometry relative="1" as="geometry">
            <Array as="points">
              <mxPoint x="-9180" y="-340" />
              <mxPoint x="-9180" y="-96" />
            </Array>
          </mxGeometry>
        </mxCell>
        <mxCell id="JLNBPi1FeU_z8Aygyn0l-31" value="students" style="swimlane;childLayout=stackLayout;horizontal=1;startSize=50;horizontalStack=0;rounded=1;fontSize=14;fontStyle=0;strokeWidth=2;resizeParent=0;resizeLast=1;shadow=0;dashed=0;align=center;arcSize=4;whiteSpace=wrap;html=1;" vertex="1" parent="1">
          <mxGeometry x="-9060" y="-173" width="320" height="200" as="geometry" />
        </mxCell>
        <mxCell id="JLNBPi1FeU_z8Aygyn0l-32" value="&lt;div&gt;&lt;span style=&quot;background-color: light-dark(#ffffff, var(--ge-dark-color, #121212));&quot;&gt;&lt;font&gt;+ id: bigint&lt;br&gt;+ user_id: bigint&lt;/font&gt;&lt;/span&gt;&lt;/div&gt;&lt;span style=&quot;background-color: light-dark(#ffffff, var(--ge-dark-color, #121212));&quot;&gt;&lt;font&gt;+ class_id: bigint&lt;/font&gt;&lt;/span&gt;&lt;div&gt;+&amp;nbsp;&lt;span style=&quot;background-color: rgb(255, 255, 255);&quot;&gt;training_program_id&lt;/span&gt;: bigint&lt;br&gt;&lt;div&gt;&lt;div&gt;&lt;div&gt;&lt;/div&gt;&lt;/div&gt;&lt;div&gt;&lt;span style=&quot;background-color: light-dark(#ffffff, var(--ge-dark-color, #121212));&quot;&gt;&lt;font&gt;+ name: varchar&lt;/font&gt;&lt;/span&gt;&lt;/div&gt;&lt;div&gt;&lt;div&gt;&lt;span style=&quot;background-color: rgb(255, 255, 255);&quot;&gt;+ deleted_at: datetime&lt;/span&gt;&lt;/div&gt;&lt;div&gt;&lt;span style=&quot;background-color: rgb(255, 255, 255);&quot;&gt;+ created_at:&amp;nbsp;&lt;/span&gt;&lt;span style=&quot;background-color: rgb(255, 255, 255);&quot;&gt;datetime&lt;/span&gt;&lt;/div&gt;&lt;div&gt;&lt;span style=&quot;background-color: rgb(255, 255, 255);&quot;&gt;+ updated_at:&amp;nbsp;&lt;/span&gt;&lt;span style=&quot;background-color: rgb(255, 255, 255);&quot;&gt;datetime&lt;/span&gt;&lt;/div&gt;&lt;/div&gt;&lt;div&gt;&lt;span style=&quot;background-color: light-dark(#ffffff, var(--ge-dark-color, #121212));&quot;&gt;&lt;font&gt;&lt;br&gt;&lt;/font&gt;&lt;/span&gt;&lt;/div&gt;&lt;/div&gt;&lt;/div&gt;" style="align=left;strokeColor=none;fillColor=none;spacingLeft=4;fontSize=14;verticalAlign=top;resizable=0;rotatable=0;part=1;html=1;" vertex="1" parent="JLNBPi1FeU_z8Aygyn0l-31">
          <mxGeometry y="50" width="320" height="150" as="geometry" />
        </mxCell>
        <mxCell id="JLNBPi1FeU_z8Aygyn0l-33" style="edgeStyle=orthogonalEdgeStyle;rounded=0;orthogonalLoop=1;jettySize=auto;html=1;entryX=0;entryY=0.25;entryDx=0;entryDy=0;" edge="1" parent="1" source="yCvwQu07WbUM5x7n1wTh-7" target="JLNBPi1FeU_z8Aygyn0l-32">
          <mxGeometry relative="1" as="geometry">
            <Array as="points">
              <mxPoint x="-9160" y="-300" />
              <mxPoint x="-9160" y="-86" />
              <mxPoint x="-9080" y="-86" />
            </Array>
          </mxGeometry>
        </mxCell>
        <mxCell id="JLNBPi1FeU_z8Aygyn0l-34" value="enrollments" style="swimlane;childLayout=stackLayout;horizontal=1;startSize=50;horizontalStack=0;rounded=1;fontSize=14;fontStyle=0;strokeWidth=2;resizeParent=0;resizeLast=1;shadow=0;dashed=0;align=center;arcSize=4;whiteSpace=wrap;html=1;" vertex="1" parent="1">
          <mxGeometry x="-9350" y="80" width="320" height="180" as="geometry" />
        </mxCell>
        <mxCell id="JLNBPi1FeU_z8Aygyn0l-35" value="&lt;div&gt;&lt;span style=&quot;background-color: light-dark(#ffffff, var(--ge-dark-color, #121212));&quot;&gt;&lt;font&gt;+ id: bigint&lt;/font&gt;&lt;/span&gt;&lt;/div&gt;&lt;span style=&quot;background-color: light-dark(#ffffff, var(--ge-dark-color, #121212));&quot;&gt;&lt;font&gt;+ student_id: bigint&lt;/font&gt;&lt;/span&gt;&lt;div&gt;&lt;div&gt;&lt;/div&gt;&lt;/div&gt;&lt;div&gt;&lt;span style=&quot;background-color: light-dark(#ffffff, var(--ge-dark-color, #121212));&quot;&gt;&lt;font&gt;+&amp;nbsp;&lt;/font&gt;&lt;/span&gt;&lt;span style=&quot;background-color: transparent; color: light-dark(rgb(0, 0, 0), rgb(255, 255, 255));&quot;&gt;course_id&lt;/span&gt;&lt;span style=&quot;background-color: light-dark(#ffffff, var(--ge-dark-color, #121212)); color: light-dark(rgb(0, 0, 0), rgb(255, 255, 255));&quot;&gt;: bigint|&lt;br&gt;&lt;/span&gt;+&amp;nbsp;&lt;span style=&quot;background-color: transparent; color: light-dark(rgb(0, 0, 0), rgb(255, 255, 255));&quot;&gt;is_completed: boolean&lt;/span&gt;&lt;/div&gt;&lt;div&gt;&lt;div&gt;&lt;span style=&quot;background-color: rgb(255, 255, 255);&quot;&gt;+ deleted_at: datetime&lt;/span&gt;&lt;/div&gt;&lt;div&gt;&lt;span style=&quot;background-color: rgb(255, 255, 255);&quot;&gt;+ created_at:&amp;nbsp;&lt;/span&gt;&lt;span style=&quot;background-color: rgb(255, 255, 255);&quot;&gt;datetime&lt;/span&gt;&lt;/div&gt;&lt;div&gt;&lt;span style=&quot;background-color: rgb(255, 255, 255);&quot;&gt;+ updated_at:&amp;nbsp;&lt;/span&gt;&lt;span style=&quot;background-color: rgb(255, 255, 255);&quot;&gt;datetime&lt;/span&gt;&lt;/div&gt;&lt;/div&gt;&lt;div&gt;&lt;span style=&quot;background-color: light-dark(#ffffff, var(--ge-dark-color, #121212));&quot;&gt;&lt;font&gt;&lt;br&gt;&lt;/font&gt;&lt;/span&gt;&lt;/div&gt;" style="align=left;strokeColor=none;fillColor=none;spacingLeft=4;fontSize=14;verticalAlign=top;resizable=0;rotatable=0;part=1;html=1;" vertex="1" parent="JLNBPi1FeU_z8Aygyn0l-34">
          <mxGeometry y="50" width="320" height="130" as="geometry" />
        </mxCell>
        <mxCell id="JLNBPi1FeU_z8Aygyn0l-36" style="edgeStyle=orthogonalEdgeStyle;rounded=0;orthogonalLoop=1;jettySize=auto;html=1;entryX=1;entryY=0.25;entryDx=0;entryDy=0;" edge="1" parent="1" source="JLNBPi1FeU_z8Aygyn0l-32" target="JLNBPi1FeU_z8Aygyn0l-35">
          <mxGeometry relative="1" as="geometry" />
        </mxCell>
        <mxCell id="JLNBPi1FeU_z8Aygyn0l-37" style="edgeStyle=orthogonalEdgeStyle;rounded=0;orthogonalLoop=1;jettySize=auto;html=1;entryX=0;entryY=0.448;entryDx=0;entryDy=0;entryPerimeter=0;" edge="1" parent="1" source="JLNBPi1FeU_z8Aygyn0l-24" target="JLNBPi1FeU_z8Aygyn0l-35">
          <mxGeometry relative="1" as="geometry" />
        </mxCell>
        <mxCell id="JLNBPi1FeU_z8Aygyn0l-38" style="edgeStyle=orthogonalEdgeStyle;rounded=0;orthogonalLoop=1;jettySize=auto;html=1;entryX=1;entryY=0.25;entryDx=0;entryDy=0;" edge="1" parent="1" source="JLNBPi1FeU_z8Aygyn0l-6" target="JLNBPi1FeU_z8Aygyn0l-32">
          <mxGeometry relative="1" as="geometry">
            <Array as="points">
              <mxPoint x="-8710" y="-630" />
              <mxPoint x="-8710" y="-86" />
            </Array>
          </mxGeometry>
        </mxCell>
        <mxCell id="JLNBPi1FeU_z8Aygyn0l-61" style="edgeStyle=orthogonalEdgeStyle;rounded=0;orthogonalLoop=1;jettySize=auto;html=1;entryX=1;entryY=0.25;entryDx=0;entryDy=0;" edge="1" parent="1" source="JLNBPi1FeU_z8Aygyn0l-39" target="JLNBPi1FeU_z8Aygyn0l-17">
          <mxGeometry relative="1" as="geometry">
            <Array as="points">
              <mxPoint x="-8685" y="-200" />
              <mxPoint x="-8685" y="-361" />
            </Array>
          </mxGeometry>
        </mxCell>
        <mxCell id="JLNBPi1FeU_z8Aygyn0l-39" value="users" style="swimlane;childLayout=stackLayout;horizontal=1;startSize=50;horizontalStack=0;rounded=1;fontSize=14;fontStyle=0;strokeWidth=2;resizeParent=0;resizeLast=1;shadow=0;dashed=0;align=center;arcSize=4;whiteSpace=wrap;html=1;fillColor=#f8cecc;strokeColor=#b85450;" vertex="1" parent="1">
          <mxGeometry x="-8560" y="-270" width="320" height="210" as="geometry" />
        </mxCell>
        <mxCell id="JLNBPi1FeU_z8Aygyn0l-40" value="&lt;div&gt;&lt;span style=&quot;background-color: light-dark(#ffffff, var(--ge-dark-color, #121212));&quot;&gt;&lt;font&gt;+ id: bigint&lt;/font&gt;&lt;/span&gt;&lt;/div&gt;&lt;font style=&quot;&quot;&gt;+ user_name&lt;/font&gt;&lt;span style=&quot;background-color: light-dark(#ffffff, var(--ge-dark-color, #121212)); color: light-dark(rgb(0, 0, 0), rgb(255, 255, 255));&quot;&gt;: varchar&lt;/span&gt;&lt;div&gt;+&amp;nbsp;&lt;span style=&quot;background-color: transparent; color: light-dark(rgb(0, 0, 0), rgb(255, 255, 255));&quot;&gt;password&lt;/span&gt;&lt;span style=&quot;background-color: transparent; color: light-dark(rgb(0, 0, 0), rgb(255, 255, 255));&quot;&gt;:&amp;nbsp;&lt;/span&gt;&lt;span style=&quot;background-color: rgb(255, 255, 255);&quot;&gt;varchar&lt;/span&gt;&lt;br&gt;&lt;div&gt;&lt;div&gt;&lt;/div&gt;&lt;/div&gt;&lt;div&gt;&lt;span style=&quot;background-color: light-dark(#ffffff, var(--ge-dark-color, #121212));&quot;&gt;&lt;font&gt;+ role: varchar&lt;br&gt;&lt;/font&gt;&lt;/span&gt;+&amp;nbsp;&lt;span style=&quot;background-color: transparent; color: light-dark(rgb(0, 0, 0), rgb(255, 255, 255));&quot;&gt;admin_level: varchar&lt;/span&gt;&lt;/div&gt;&lt;div&gt;&lt;span style=&quot;background-color: light-dark(#ffffff, var(--ge-dark-color, #121212));&quot;&gt;&lt;font&gt;+&amp;nbsp;&lt;/font&gt;&lt;/span&gt;&lt;span style=&quot;background-color: transparent; color: light-dark(rgb(0, 0, 0), rgb(255, 255, 255));&quot;&gt;school_id&lt;/span&gt;&lt;span style=&quot;background-color: light-dark(#ffffff, var(--ge-dark-color, #121212)); color: light-dark(rgb(0, 0, 0), rgb(255, 255, 255));&quot;&gt;: bigint&lt;/span&gt;&lt;/div&gt;&lt;div&gt;&lt;div&gt;&lt;span style=&quot;background-color: rgb(255, 255, 255);&quot;&gt;+ deleted_at: datetime&lt;/span&gt;&lt;/div&gt;&lt;div&gt;&lt;span style=&quot;background-color: rgb(255, 255, 255);&quot;&gt;+ created_at:&amp;nbsp;&lt;/span&gt;&lt;span style=&quot;background-color: rgb(255, 255, 255);&quot;&gt;datetime&lt;/span&gt;&lt;/div&gt;&lt;div&gt;&lt;span style=&quot;background-color: rgb(255, 255, 255);&quot;&gt;+ updated_at:&amp;nbsp;&lt;/span&gt;&lt;span style=&quot;background-color: rgb(255, 255, 255);&quot;&gt;datetime&lt;/span&gt;&lt;/div&gt;&lt;/div&gt;&lt;div&gt;&lt;span style=&quot;background-color: light-dark(#ffffff, var(--ge-dark-color, #121212));&quot;&gt;&lt;font&gt;&lt;br&gt;&lt;/font&gt;&lt;/span&gt;&lt;/div&gt;&lt;/div&gt;" style="align=left;strokeColor=none;fillColor=none;spacingLeft=4;fontSize=14;verticalAlign=top;resizable=0;rotatable=0;part=1;html=1;" vertex="1" parent="JLNBPi1FeU_z8Aygyn0l-39">
          <mxGeometry y="50" width="320" height="160" as="geometry" />
        </mxCell>
        <mxCell id="JLNBPi1FeU_z8Aygyn0l-41" value="&lt;div&gt;&lt;span class=&quot;text-sm px-1 rounded-sm !font-mono bg-orange-400/10 text-orange-500 dark:bg-orange-300/10 dark:text-orange-200&quot;&gt;specializations&lt;/span&gt;&lt;/div&gt;" style="swimlane;childLayout=stackLayout;horizontal=1;startSize=50;horizontalStack=0;rounded=1;fontSize=14;fontStyle=0;strokeWidth=2;resizeParent=0;resizeLast=1;shadow=0;dashed=0;align=center;arcSize=4;whiteSpace=wrap;html=1;" vertex="1" parent="1">
          <mxGeometry x="-8160" y="-520" width="320" height="170" as="geometry" />
        </mxCell>
        <mxCell id="JLNBPi1FeU_z8Aygyn0l-42" value="&lt;div&gt;&lt;span style=&quot;background-color: light-dark(#ffffff, var(--ge-dark-color, #121212));&quot;&gt;&lt;font&gt;+ id: bigint&lt;/font&gt;&lt;/span&gt;&lt;/div&gt;&lt;span style=&quot;background-color: light-dark(#ffffff, var(--ge-dark-color, #121212));&quot;&gt;&lt;font&gt;+ name: varchar&lt;/font&gt;&lt;/span&gt;&lt;div&gt;+ descriptiton: varchar&lt;br&gt;&lt;div&gt;&lt;div&gt;&lt;span style=&quot;background-color: rgb(255, 255, 255);&quot;&gt;+ deleted_at: datetime&lt;/span&gt;&lt;/div&gt;&lt;div&gt;&lt;span style=&quot;background-color: rgb(255, 255, 255);&quot;&gt;+ created_at:&amp;nbsp;&lt;/span&gt;&lt;span style=&quot;background-color: rgb(255, 255, 255);&quot;&gt;datetime&lt;/span&gt;&lt;/div&gt;&lt;div&gt;&lt;span style=&quot;background-color: rgb(255, 255, 255);&quot;&gt;+ updated_at:&amp;nbsp;&lt;/span&gt;&lt;span style=&quot;background-color: rgb(255, 255, 255);&quot;&gt;datetime&lt;/span&gt;&lt;/div&gt;&lt;/div&gt;&lt;div&gt;&lt;span style=&quot;background-color: light-dark(#ffffff, var(--ge-dark-color, #121212));&quot;&gt;&lt;font&gt;&lt;br&gt;&lt;/font&gt;&lt;/span&gt;&lt;/div&gt;&lt;/div&gt;" style="align=left;strokeColor=none;fillColor=none;spacingLeft=4;fontSize=14;verticalAlign=top;resizable=0;rotatable=0;part=1;html=1;" vertex="1" parent="JLNBPi1FeU_z8Aygyn0l-41">
          <mxGeometry y="50" width="320" height="120" as="geometry" />
        </mxCell>
        <mxCell id="JLNBPi1FeU_z8Aygyn0l-43" value="&lt;div&gt;&lt;span class=&quot;text-sm px-1 rounded-sm !font-mono bg-orange-400/10 text-orange-500 dark:bg-orange-300/10 dark:text-orange-200&quot;&gt;teacher_specializations&lt;/span&gt;&lt;/div&gt;" style="swimlane;childLayout=stackLayout;horizontal=1;startSize=50;horizontalStack=0;rounded=1;fontSize=14;fontStyle=0;strokeWidth=2;resizeParent=0;resizeLast=1;shadow=0;dashed=0;align=center;arcSize=4;whiteSpace=wrap;html=1;" vertex="1" parent="1">
          <mxGeometry x="-8590" y="-510" width="320" height="170" as="geometry" />
        </mxCell>
        <mxCell id="JLNBPi1FeU_z8Aygyn0l-44" value="&lt;div&gt;&lt;span style=&quot;background-color: light-dark(#ffffff, var(--ge-dark-color, #121212));&quot;&gt;&lt;font&gt;+ id: bigint&lt;/font&gt;&lt;/span&gt;&lt;/div&gt;&lt;span style=&quot;background-color: light-dark(#ffffff, var(--ge-dark-color, #121212));&quot;&gt;&lt;font&gt;+ teacher_id: bigint&lt;/font&gt;&lt;/span&gt;&lt;div&gt;+&amp;nbsp;&lt;span style=&quot;background-color: transparent; color: light-dark(rgb(0, 0, 0), rgb(255, 255, 255));&quot;&gt;specialization_id&lt;/span&gt;&lt;span style=&quot;background-color: transparent; color: light-dark(rgb(0, 0, 0), rgb(255, 255, 255));&quot;&gt;:&amp;nbsp;&lt;/span&gt;&lt;span style=&quot;background-color: rgb(255, 255, 255);&quot;&gt;bigint&lt;/span&gt;&lt;br&gt;&lt;div&gt;&lt;div&gt;&lt;span style=&quot;background-color: rgb(255, 255, 255);&quot;&gt;+ deleted_at: datetime&lt;/span&gt;&lt;/div&gt;&lt;div&gt;&lt;span style=&quot;background-color: rgb(255, 255, 255);&quot;&gt;+ created_at:&amp;nbsp;&lt;/span&gt;&lt;span style=&quot;background-color: rgb(255, 255, 255);&quot;&gt;datetime&lt;/span&gt;&lt;/div&gt;&lt;div&gt;&lt;span style=&quot;background-color: rgb(255, 255, 255);&quot;&gt;+ updated_at:&amp;nbsp;&lt;/span&gt;&lt;span style=&quot;background-color: rgb(255, 255, 255);&quot;&gt;datetime&lt;/span&gt;&lt;/div&gt;&lt;/div&gt;&lt;div&gt;&lt;span style=&quot;background-color: light-dark(#ffffff, var(--ge-dark-color, #121212));&quot;&gt;&lt;font&gt;&lt;br&gt;&lt;/font&gt;&lt;/span&gt;&lt;/div&gt;&lt;/div&gt;" style="align=left;strokeColor=none;fillColor=none;spacingLeft=4;fontSize=14;verticalAlign=top;resizable=0;rotatable=0;part=1;html=1;" vertex="1" parent="JLNBPi1FeU_z8Aygyn0l-43">
          <mxGeometry y="50" width="320" height="120" as="geometry" />
        </mxCell>
        <mxCell id="JLNBPi1FeU_z8Aygyn0l-45" style="edgeStyle=orthogonalEdgeStyle;rounded=0;orthogonalLoop=1;jettySize=auto;html=1;entryX=0;entryY=0.25;entryDx=0;entryDy=0;" edge="1" parent="1" source="JLNBPi1FeU_z8Aygyn0l-17" target="JLNBPi1FeU_z8Aygyn0l-44">
          <mxGeometry relative="1" as="geometry">
            <Array as="points">
              <mxPoint x="-8695" y="-380" />
              <mxPoint x="-8695" y="-430" />
            </Array>
          </mxGeometry>
        </mxCell>
        <mxCell id="JLNBPi1FeU_z8Aygyn0l-46" style="edgeStyle=orthogonalEdgeStyle;rounded=0;orthogonalLoop=1;jettySize=auto;html=1;entryX=0.998;entryY=0.371;entryDx=0;entryDy=0;entryPerimeter=0;" edge="1" parent="1" source="JLNBPi1FeU_z8Aygyn0l-41" target="JLNBPi1FeU_z8Aygyn0l-44">
          <mxGeometry relative="1" as="geometry" />
        </mxCell>
        <mxCell id="JLNBPi1FeU_z8Aygyn0l-47" value="buildings" style="swimlane;childLayout=stackLayout;horizontal=1;startSize=50;horizontalStack=0;rounded=1;fontSize=14;fontStyle=0;strokeWidth=2;resizeParent=0;resizeLast=1;shadow=0;dashed=0;align=center;arcSize=4;whiteSpace=wrap;html=1;" vertex="1" parent="1">
          <mxGeometry x="-10040" y="-760" width="320" height="200" as="geometry" />
        </mxCell>
        <mxCell id="JLNBPi1FeU_z8Aygyn0l-48" value="&lt;div&gt;&lt;span style=&quot;background-color: light-dark(#ffffff, var(--ge-dark-color, #121212));&quot;&gt;&lt;font&gt;+ id: bigint (unique)&lt;/font&gt;&lt;/span&gt;&lt;/div&gt;&lt;div&gt;&lt;div&gt;&lt;/div&gt;&lt;/div&gt;&lt;div&gt;&lt;span style=&quot;background-color: light-dark(#ffffff, var(--ge-dark-color, #121212));&quot;&gt;&lt;font&gt;+ school_id: bigint&lt;/font&gt;&lt;/span&gt;&lt;/div&gt;&lt;div&gt;&lt;span style=&quot;background-color: light-dark(#ffffff, var(--ge-dark-color, #121212));&quot;&gt;&lt;font&gt;+ name:&amp;nbsp; varchar&amp;nbsp;&lt;/font&gt;&lt;/span&gt;&lt;/div&gt;&lt;div&gt;&lt;span style=&quot;background-color: light-dark(#ffffff, var(--ge-dark-color, #121212));&quot;&gt;&lt;font&gt;+ latitude: decimal&lt;/font&gt;&lt;/span&gt;&lt;/div&gt;&lt;div&gt;&lt;span style=&quot;background-color: light-dark(#ffffff, var(--ge-dark-color, #121212));&quot;&gt;&lt;font&gt;+ longitude: decimal&lt;/font&gt;&lt;/span&gt;&lt;/div&gt;&lt;div&gt;&lt;span style=&quot;background-color: light-dark(#ffffff, var(--ge-dark-color, #121212));&quot;&gt;&lt;font&gt;+ deleted_at: datetime&lt;/font&gt;&lt;/span&gt;&lt;/div&gt;&lt;div&gt;&lt;span style=&quot;background-color: light-dark(#ffffff, var(--ge-dark-color, #121212));&quot;&gt;&lt;font&gt;+ created_at:&amp;nbsp;&lt;/font&gt;&lt;/span&gt;&lt;span style=&quot;background-color: rgb(255, 255, 255);&quot;&gt;datetime&lt;/span&gt;&lt;/div&gt;&lt;div&gt;&lt;span style=&quot;background-color: light-dark(#ffffff, var(--ge-dark-color, #121212));&quot;&gt;&lt;font&gt;+ updated_at:&amp;nbsp;&lt;/font&gt;&lt;/span&gt;&lt;span style=&quot;background-color: rgb(255, 255, 255);&quot;&gt;datetime&lt;/span&gt;&lt;/div&gt;&lt;div&gt;&lt;span style=&quot;background-color: light-dark(#ffffff, var(--ge-dark-color, #121212));&quot;&gt;&lt;font&gt;&lt;br&gt;&lt;/font&gt;&lt;/span&gt;&lt;/div&gt;" style="align=left;strokeColor=none;fillColor=none;spacingLeft=4;fontSize=14;verticalAlign=top;resizable=0;rotatable=0;part=1;html=1;" vertex="1" parent="JLNBPi1FeU_z8Aygyn0l-47">
          <mxGeometry y="50" width="320" height="150" as="geometry" />
        </mxCell>
        <mxCell id="JLNBPi1FeU_z8Aygyn0l-49" style="edgeStyle=orthogonalEdgeStyle;rounded=0;orthogonalLoop=1;jettySize=auto;html=1;entryX=0;entryY=0.116;entryDx=0;entryDy=0;entryPerimeter=0;" edge="1" parent="1" source="yCvwQu07WbUM5x7n1wTh-2" target="JLNBPi1FeU_z8Aygyn0l-48">
          <mxGeometry relative="1" as="geometry">
            <Array as="points">
              <mxPoint x="-10060" y="-915" />
              <mxPoint x="-10060" y="-693" />
            </Array>
          </mxGeometry>
        </mxCell>
        <mxCell id="JLNBPi1FeU_z8Aygyn0l-50" value="rooms" style="swimlane;childLayout=stackLayout;horizontal=1;startSize=50;horizontalStack=0;rounded=1;fontSize=14;fontStyle=0;strokeWidth=2;resizeParent=0;resizeLast=1;shadow=0;dashed=0;align=center;arcSize=4;whiteSpace=wrap;html=1;" vertex="1" parent="1">
          <mxGeometry x="-10040" y="-490" width="320" height="210" as="geometry" />
        </mxCell>
        <mxCell id="JLNBPi1FeU_z8Aygyn0l-51" value="&lt;div&gt;&lt;span style=&quot;background-color: light-dark(#ffffff, var(--ge-dark-color, #121212));&quot;&gt;&lt;font&gt;+ id: bigint (unique)&lt;/font&gt;&lt;/span&gt;&lt;/div&gt;&lt;div&gt;&lt;div&gt;&lt;/div&gt;&lt;/div&gt;&lt;div&gt;&lt;span style=&quot;background-color: light-dark(#ffffff, var(--ge-dark-color, #121212));&quot;&gt;&lt;font&gt;+ building_id: bigint&lt;/font&gt;&lt;/span&gt;&lt;/div&gt;&lt;div&gt;&lt;span style=&quot;background-color: light-dark(#ffffff, var(--ge-dark-color, #121212));&quot;&gt;&lt;font&gt;+ name:&amp;nbsp; varchar&amp;nbsp;&lt;/font&gt;&lt;/span&gt;&lt;/div&gt;&lt;div&gt;&lt;span style=&quot;background-color: light-dark(#ffffff, var(--ge-dark-color, #121212));&quot;&gt;&lt;font&gt;+ type: varchar&lt;/font&gt;&lt;/span&gt;&lt;/div&gt;&lt;div&gt;&lt;span style=&quot;background-color: light-dark(#ffffff, var(--ge-dark-color, #121212));&quot;&gt;&lt;font&gt;+ online_link: varchar&lt;br&gt;+ capacity: int&lt;/font&gt;&lt;/span&gt;&lt;/div&gt;&lt;div&gt;&lt;span style=&quot;background-color: light-dark(#ffffff, var(--ge-dark-color, #121212));&quot;&gt;&lt;font&gt;+ deleted_at: datetime&lt;/font&gt;&lt;/span&gt;&lt;/div&gt;&lt;div&gt;&lt;span style=&quot;background-color: light-dark(#ffffff, var(--ge-dark-color, #121212));&quot;&gt;&lt;font&gt;+ created_at:&amp;nbsp;&lt;/font&gt;&lt;/span&gt;&lt;span style=&quot;background-color: rgb(255, 255, 255);&quot;&gt;datetime&lt;/span&gt;&lt;/div&gt;&lt;div&gt;&lt;span style=&quot;background-color: light-dark(#ffffff, var(--ge-dark-color, #121212));&quot;&gt;&lt;font&gt;+ updated_at:&amp;nbsp;&lt;/font&gt;&lt;/span&gt;&lt;span style=&quot;background-color: rgb(255, 255, 255);&quot;&gt;datetime&lt;/span&gt;&lt;/div&gt;&lt;div&gt;&lt;span style=&quot;background-color: light-dark(#ffffff, var(--ge-dark-color, #121212));&quot;&gt;&lt;font&gt;&lt;br&gt;&lt;/font&gt;&lt;/span&gt;&lt;/div&gt;" style="align=left;strokeColor=none;fillColor=none;spacingLeft=4;fontSize=14;verticalAlign=top;resizable=0;rotatable=0;part=1;html=1;" vertex="1" parent="JLNBPi1FeU_z8Aygyn0l-50">
          <mxGeometry y="50" width="320" height="160" as="geometry" />
        </mxCell>
        <mxCell id="JLNBPi1FeU_z8Aygyn0l-52" style="edgeStyle=orthogonalEdgeStyle;rounded=0;orthogonalLoop=1;jettySize=auto;html=1;entryX=0.002;entryY=0.188;entryDx=0;entryDy=0;entryPerimeter=0;" edge="1" parent="1" source="JLNBPi1FeU_z8Aygyn0l-48" target="JLNBPi1FeU_z8Aygyn0l-51">
          <mxGeometry relative="1" as="geometry">
            <Array as="points">
              <mxPoint x="-10060" y="-635" />
              <mxPoint x="-10060" y="-410" />
            </Array>
          </mxGeometry>
        </mxCell>
        <mxCell id="JLNBPi1FeU_z8Aygyn0l-53" value="room_equiments" style="swimlane;childLayout=stackLayout;horizontal=1;startSize=50;horizontalStack=0;rounded=1;fontSize=14;fontStyle=0;strokeWidth=2;resizeParent=0;resizeLast=1;shadow=0;dashed=0;align=center;arcSize=4;whiteSpace=wrap;html=1;" vertex="1" parent="1">
          <mxGeometry x="-10490" y="-410" width="320" height="210" as="geometry" />
        </mxCell>
        <mxCell id="JLNBPi1FeU_z8Aygyn0l-54" value="&lt;div&gt;&lt;span style=&quot;background-color: light-dark(#ffffff, var(--ge-dark-color, #121212));&quot;&gt;&lt;font&gt;+ id: bigint (unique)&lt;/font&gt;&lt;/span&gt;&lt;/div&gt;&lt;div&gt;&lt;div&gt;&lt;/div&gt;&lt;/div&gt;&lt;div&gt;&lt;span style=&quot;background-color: light-dark(#ffffff, var(--ge-dark-color, #121212));&quot;&gt;&lt;font&gt;+ room_id: bigint&lt;/font&gt;&lt;/span&gt;&lt;/div&gt;&lt;div&gt;&lt;span style=&quot;background-color: light-dark(#ffffff, var(--ge-dark-color, #121212));&quot;&gt;&lt;font&gt;+ name:&amp;nbsp; varchar&amp;nbsp;&lt;/font&gt;&lt;/span&gt;&lt;/div&gt;&lt;div&gt;&lt;span style=&quot;background-color: light-dark(#ffffff, var(--ge-dark-color, #121212));&quot;&gt;&lt;font&gt;+ status: varchar&lt;/font&gt;&lt;/span&gt;&lt;/div&gt;&lt;div&gt;&lt;span style=&quot;background-color: light-dark(#ffffff, var(--ge-dark-color, #121212));&quot;&gt;&lt;font&gt;+ online_link: varchar&lt;br&gt;+ capacity: int&lt;/font&gt;&lt;/span&gt;&lt;/div&gt;&lt;div&gt;&lt;span style=&quot;background-color: light-dark(#ffffff, var(--ge-dark-color, #121212));&quot;&gt;&lt;font&gt;+ deleted_at: datetime&lt;/font&gt;&lt;/span&gt;&lt;/div&gt;&lt;div&gt;&lt;span style=&quot;background-color: light-dark(#ffffff, var(--ge-dark-color, #121212));&quot;&gt;&lt;font&gt;+ created_at:&amp;nbsp;&lt;/font&gt;&lt;/span&gt;&lt;span style=&quot;background-color: rgb(255, 255, 255);&quot;&gt;datetime&lt;/span&gt;&lt;/div&gt;&lt;div&gt;&lt;span style=&quot;background-color: light-dark(#ffffff, var(--ge-dark-color, #121212));&quot;&gt;&lt;font&gt;+ updated_at:&amp;nbsp;&lt;/font&gt;&lt;/span&gt;&lt;span style=&quot;background-color: rgb(255, 255, 255);&quot;&gt;datetime&lt;/span&gt;&lt;/div&gt;&lt;div&gt;&lt;span style=&quot;background-color: light-dark(#ffffff, var(--ge-dark-color, #121212));&quot;&gt;&lt;font&gt;&lt;br&gt;&lt;/font&gt;&lt;/span&gt;&lt;/div&gt;" style="align=left;strokeColor=none;fillColor=none;spacingLeft=4;fontSize=14;verticalAlign=top;resizable=0;rotatable=0;part=1;html=1;" vertex="1" parent="JLNBPi1FeU_z8Aygyn0l-53">
          <mxGeometry y="50" width="320" height="160" as="geometry" />
        </mxCell>
        <mxCell id="JLNBPi1FeU_z8Aygyn0l-55" style="edgeStyle=orthogonalEdgeStyle;rounded=0;orthogonalLoop=1;jettySize=auto;html=1;entryX=1.006;entryY=0.198;entryDx=0;entryDy=0;entryPerimeter=0;" edge="1" parent="1" source="JLNBPi1FeU_z8Aygyn0l-51" target="JLNBPi1FeU_z8Aygyn0l-54">
          <mxGeometry relative="1" as="geometry" />
        </mxCell>
        <mxCell id="JLNBPi1FeU_z8Aygyn0l-56" value="equiment_reports" style="swimlane;childLayout=stackLayout;horizontal=1;startSize=50;horizontalStack=0;rounded=1;fontSize=14;fontStyle=0;strokeWidth=2;resizeParent=0;resizeLast=1;shadow=0;dashed=0;align=center;arcSize=4;whiteSpace=wrap;html=1;" vertex="1" parent="1">
          <mxGeometry x="-10490" y="-120" width="320" height="220" as="geometry" />
        </mxCell>
        <mxCell id="JLNBPi1FeU_z8Aygyn0l-57" value="&lt;div&gt;&lt;span style=&quot;background-color: light-dark(#ffffff, var(--ge-dark-color, #121212));&quot;&gt;&lt;font&gt;+ id: bigint (unique)&lt;/font&gt;&lt;/span&gt;&lt;/div&gt;&lt;div&gt;&lt;div&gt;&lt;/div&gt;&lt;/div&gt;&lt;div&gt;&lt;span style=&quot;background-color: light-dark(#ffffff, var(--ge-dark-color, #121212));&quot;&gt;&lt;font&gt;+ equiment_id: bigint&lt;/font&gt;&lt;/span&gt;&lt;/div&gt;&lt;div&gt;&lt;span style=&quot;background-color: light-dark(#ffffff, var(--ge-dark-color, #121212));&quot;&gt;&lt;font&gt;+ user_id:&amp;nbsp; bigint&lt;/font&gt;&lt;/span&gt;&lt;/div&gt;&lt;div&gt;&lt;span style=&quot;background-color: light-dark(#ffffff, var(--ge-dark-color, #121212));&quot;&gt;&lt;font&gt;+ description: varchar&lt;br&gt;+ status: varchar&lt;/font&gt;&lt;/span&gt;&lt;/div&gt;&lt;div&gt;&lt;span style=&quot;background-color: light-dark(#ffffff, var(--ge-dark-color, #121212));&quot;&gt;&lt;font&gt;+ online_link: varchar&lt;br&gt;+ capacity: int&lt;/font&gt;&lt;/span&gt;&lt;/div&gt;&lt;div&gt;&lt;span style=&quot;background-color: light-dark(#ffffff, var(--ge-dark-color, #121212));&quot;&gt;&lt;font&gt;+&amp;nbsp;&lt;/font&gt;&lt;/span&gt;&lt;span style=&quot;background-color: transparent; color: light-dark(rgb(0, 0, 0), rgb(255, 255, 255));&quot;&gt;reported_at&lt;/span&gt;&lt;span style=&quot;color: light-dark(rgb(0, 0, 0), rgb(255, 255, 255)); background-color: light-dark(#ffffff, var(--ge-dark-color, #121212));&quot;&gt;:&amp;nbsp;&lt;/span&gt;&lt;span style=&quot;color: light-dark(rgb(0, 0, 0), rgb(255, 255, 255)); background-color: rgb(255, 255, 255);&quot;&gt;datetime&lt;/span&gt;&lt;br&gt;&lt;/div&gt;&lt;div&gt;&lt;span style=&quot;background-color: light-dark(#ffffff, var(--ge-dark-color, #121212));&quot;&gt;&lt;font&gt;+&amp;nbsp;&lt;/font&gt;&lt;/span&gt;&lt;span style=&quot;background-color: transparent; color: light-dark(rgb(0, 0, 0), rgb(255, 255, 255));&quot;&gt;resolved_at&lt;/span&gt;&lt;span style=&quot;color: light-dark(rgb(0, 0, 0), rgb(255, 255, 255)); background-color: light-dark(#ffffff, var(--ge-dark-color, #121212));&quot;&gt;:&amp;nbsp;&lt;/span&gt;&lt;span style=&quot;color: light-dark(rgb(0, 0, 0), rgb(255, 255, 255)); background-color: rgb(255, 255, 255);&quot;&gt;datetime&lt;/span&gt;&lt;br&gt;&lt;/div&gt;&lt;div&gt;&lt;span style=&quot;background-color: light-dark(#ffffff, var(--ge-dark-color, #121212));&quot;&gt;&lt;font&gt;&lt;br&gt;&lt;/font&gt;&lt;/span&gt;&lt;/div&gt;" style="align=left;strokeColor=none;fillColor=none;spacingLeft=4;fontSize=14;verticalAlign=top;resizable=0;rotatable=0;part=1;html=1;" vertex="1" parent="JLNBPi1FeU_z8Aygyn0l-56">
          <mxGeometry y="50" width="320" height="170" as="geometry" />
        </mxCell>
        <mxCell id="JLNBPi1FeU_z8Aygyn0l-58" style="edgeStyle=orthogonalEdgeStyle;rounded=0;orthogonalLoop=1;jettySize=auto;html=1;entryX=0;entryY=0.632;entryDx=0;entryDy=0;entryPerimeter=0;" edge="1" parent="1" source="JLNBPi1FeU_z8Aygyn0l-51" target="JLNBPi1FeU_z8Aygyn0l-26">
          <mxGeometry relative="1" as="geometry">
            <Array as="points">
              <mxPoint x="-10060" y="-330" />
              <mxPoint x="-10060" y="-20" />
            </Array>
          </mxGeometry>
        </mxCell>
        <mxCell id="JLNBPi1FeU_z8Aygyn0l-60" style="edgeStyle=orthogonalEdgeStyle;rounded=0;orthogonalLoop=1;jettySize=auto;html=1;entryX=0.001;entryY=0.185;entryDx=0;entryDy=0;entryPerimeter=0;" edge="1" parent="1" source="JLNBPi1FeU_z8Aygyn0l-54" target="JLNBPi1FeU_z8Aygyn0l-57">
          <mxGeometry relative="1" as="geometry">
            <Array as="points">
              <mxPoint x="-10510" y="-280" />
              <mxPoint x="-10510" y="-38" />
            </Array>
          </mxGeometry>
        </mxCell>
        <mxCell id="JLNBPi1FeU_z8Aygyn0l-62" style="edgeStyle=orthogonalEdgeStyle;rounded=0;orthogonalLoop=1;jettySize=auto;html=1;entryX=1;entryY=0.153;entryDx=0;entryDy=0;entryPerimeter=0;exitX=0.005;exitY=0.481;exitDx=0;exitDy=0;exitPerimeter=0;" edge="1" parent="1" source="JLNBPi1FeU_z8Aygyn0l-40" target="JLNBPi1FeU_z8Aygyn0l-32">
          <mxGeometry relative="1" as="geometry">
            <mxPoint x="-8550" y="-129" as="sourcePoint" />
            <mxPoint x="-8720" y="-95.54999999999973" as="targetPoint" />
          </mxGeometry>
        </mxCell>
        <mxCell id="JLNBPi1FeU_z8Aygyn0l-63" value="forums" style="swimlane;childLayout=stackLayout;horizontal=1;startSize=50;horizontalStack=0;rounded=1;fontSize=14;fontStyle=0;strokeWidth=2;resizeParent=0;resizeLast=1;shadow=0;dashed=0;align=center;arcSize=4;whiteSpace=wrap;html=1;" vertex="1" parent="1">
          <mxGeometry x="-9860" y="90" width="320" height="170" as="geometry" />
        </mxCell>
        <mxCell id="JLNBPi1FeU_z8Aygyn0l-64" value="&lt;div&gt;&lt;span style=&quot;background-color: light-dark(#ffffff, var(--ge-dark-color, #121212));&quot;&gt;&lt;font&gt;+ id: bigint&lt;/font&gt;&lt;/span&gt;&lt;/div&gt;&lt;span style=&quot;background-color: light-dark(#ffffff, var(--ge-dark-color, #121212));&quot;&gt;&lt;font&gt;+&amp;nbsp;&lt;/font&gt;&lt;/span&gt;&lt;span style=&quot;background-color: transparent; color: light-dark(rgb(0, 0, 0), rgb(255, 255, 255));&quot;&gt;course_id&lt;/span&gt;&lt;span style=&quot;background-color: light-dark(#ffffff, var(--ge-dark-color, #121212)); color: light-dark(rgb(0, 0, 0), rgb(255, 255, 255));&quot;&gt;: bigint&lt;/span&gt;&lt;div&gt;+ class_id: bigint&lt;div&gt;&lt;div&gt;&lt;span style=&quot;background-color: rgb(255, 255, 255);&quot;&gt;+ deleted_at: datetime&lt;/span&gt;&lt;/div&gt;&lt;div&gt;&lt;span style=&quot;background-color: rgb(255, 255, 255);&quot;&gt;+ created_at:&amp;nbsp;&lt;/span&gt;&lt;span style=&quot;background-color: rgb(255, 255, 255);&quot;&gt;datetime&lt;/span&gt;&lt;/div&gt;&lt;div&gt;&lt;span style=&quot;background-color: rgb(255, 255, 255);&quot;&gt;+ updated_at:&amp;nbsp;&lt;/span&gt;&lt;span style=&quot;background-color: rgb(255, 255, 255);&quot;&gt;datetime&lt;/span&gt;&lt;/div&gt;&lt;/div&gt;&lt;div&gt;&lt;span style=&quot;background-color: light-dark(#ffffff, var(--ge-dark-color, #121212));&quot;&gt;&lt;font&gt;&lt;br&gt;&lt;/font&gt;&lt;/span&gt;&lt;/div&gt;&lt;/div&gt;" style="align=left;strokeColor=none;fillColor=none;spacingLeft=4;fontSize=14;verticalAlign=top;resizable=0;rotatable=0;part=1;html=1;" vertex="1" parent="JLNBPi1FeU_z8Aygyn0l-63">
          <mxGeometry y="50" width="320" height="120" as="geometry" />
        </mxCell>
        <mxCell id="JLNBPi1FeU_z8Aygyn0l-65" value="forum_posts" style="swimlane;childLayout=stackLayout;horizontal=1;startSize=50;horizontalStack=0;rounded=1;fontSize=14;fontStyle=0;strokeWidth=2;resizeParent=0;resizeLast=1;shadow=0;dashed=0;align=center;arcSize=4;whiteSpace=wrap;html=1;" vertex="1" parent="1">
          <mxGeometry x="-10120" y="330" width="320" height="180" as="geometry" />
        </mxCell>
        <mxCell id="JLNBPi1FeU_z8Aygyn0l-66" value="&lt;div&gt;&lt;span style=&quot;background-color: light-dark(#ffffff, var(--ge-dark-color, #121212));&quot;&gt;&lt;font&gt;+ id: bigint&lt;/font&gt;&lt;/span&gt;&lt;/div&gt;&lt;span style=&quot;background-color: light-dark(#ffffff, var(--ge-dark-color, #121212));&quot;&gt;&lt;font&gt;+&amp;nbsp;&lt;/font&gt;&lt;/span&gt;&lt;span style=&quot;background-color: transparent; color: light-dark(rgb(0, 0, 0), rgb(255, 255, 255));&quot;&gt;forum_id&lt;/span&gt;&lt;span style=&quot;background-color: light-dark(#ffffff, var(--ge-dark-color, #121212)); color: light-dark(rgb(0, 0, 0), rgb(255, 255, 255));&quot;&gt;: bigint&lt;br&gt;+ user_id: bigint&lt;br&gt;&lt;/span&gt;&lt;div&gt;+ class_id: bigint&lt;div&gt;&lt;div&gt;&lt;span style=&quot;background-color: rgb(255, 255, 255);&quot;&gt;+ deleted_at: datetime&lt;/span&gt;&lt;/div&gt;&lt;div&gt;&lt;span style=&quot;background-color: rgb(255, 255, 255);&quot;&gt;+ created_at:&amp;nbsp;&lt;/span&gt;&lt;span style=&quot;background-color: rgb(255, 255, 255);&quot;&gt;datetime&lt;/span&gt;&lt;/div&gt;&lt;div&gt;&lt;span style=&quot;background-color: rgb(255, 255, 255);&quot;&gt;+ updated_at:&amp;nbsp;&lt;/span&gt;&lt;span style=&quot;background-color: rgb(255, 255, 255);&quot;&gt;datetime&lt;/span&gt;&lt;/div&gt;&lt;/div&gt;&lt;div&gt;&lt;span style=&quot;background-color: light-dark(#ffffff, var(--ge-dark-color, #121212));&quot;&gt;&lt;font&gt;&lt;br&gt;&lt;/font&gt;&lt;/span&gt;&lt;/div&gt;&lt;/div&gt;" style="align=left;strokeColor=none;fillColor=none;spacingLeft=4;fontSize=14;verticalAlign=top;resizable=0;rotatable=0;part=1;html=1;" vertex="1" parent="JLNBPi1FeU_z8Aygyn0l-65">
          <mxGeometry y="50" width="320" height="130" as="geometry" />
        </mxCell>
        <mxCell id="JLNBPi1FeU_z8Aygyn0l-67" style="edgeStyle=orthogonalEdgeStyle;rounded=0;orthogonalLoop=1;jettySize=auto;html=1;entryX=0;entryY=0.333;entryDx=0;entryDy=0;entryPerimeter=0;" edge="1" parent="1" source="yCvwQu07WbUM5x7n1wTh-7" target="JLNBPi1FeU_z8Aygyn0l-64">
          <mxGeometry relative="1" as="geometry">
            <Array as="points">
              <mxPoint x="-9690" y="-320" />
              <mxPoint x="-9690" y="70" />
              <mxPoint x="-9880" y="70" />
              <mxPoint x="-9880" y="180" />
            </Array>
          </mxGeometry>
        </mxCell>
        <mxCell id="JLNBPi1FeU_z8Aygyn0l-68" style="edgeStyle=orthogonalEdgeStyle;rounded=0;orthogonalLoop=1;jettySize=auto;html=1;entryX=0;entryY=0.417;entryDx=0;entryDy=0;entryPerimeter=0;" edge="1" parent="1" source="JLNBPi1FeU_z8Aygyn0l-23" target="JLNBPi1FeU_z8Aygyn0l-64">
          <mxGeometry relative="1" as="geometry">
            <Array as="points">
              <mxPoint x="-9650" y="-140" />
              <mxPoint x="-9650" y="80" />
              <mxPoint x="-9900" y="80" />
              <mxPoint x="-9900" y="190" />
            </Array>
          </mxGeometry>
        </mxCell>
        <mxCell id="JLNBPi1FeU_z8Aygyn0l-69" style="edgeStyle=orthogonalEdgeStyle;rounded=0;orthogonalLoop=1;jettySize=auto;html=1;" edge="1" parent="1" source="JLNBPi1FeU_z8Aygyn0l-40" target="JLNBPi1FeU_z8Aygyn0l-57">
          <mxGeometry relative="1" as="geometry">
            <Array as="points">
              <mxPoint x="-8590" y="-110" />
              <mxPoint x="-8590" y="60" />
              <mxPoint x="-9420" y="60" />
              <mxPoint x="-9420" y="290" />
              <mxPoint x="-10330" y="290" />
            </Array>
          </mxGeometry>
        </mxCell>
      </root>
    </mxGraphModel>
  </diagram>
</mxfile>
